<svg height="512pt" viewBox="-93 0 512 512" width="512pt" xmlns="http://www.w3.org/2000/svg"><path d="m319.019531 163.289062c0-85.867187-69.859375-155.726562-155.726562-155.726562-85.867188 0-155.726563 69.859375-155.726563 155.726562 0 79.730469 60.226563 145.644532 137.574219 154.664063v34.074219h-27.042969c-10.027344 0-18.152344 8.128906-18.152344 18.152344 0 10.027343 8.125 18.15625 18.152344 18.15625h27.042969v54.6875l-22.472656-22.09375c-7.148438-7.03125-18.644531-6.933594-25.671875.214843-7.027344 7.152344-6.929688 18.644531.21875 25.671875l53.351562 52.457032c6.96875 6.855468 18.484375 6.855468 25.453125 0l53.351563-52.457032c7.148437-7.027344 7.246094-18.523437.21875-25.671875-7.03125-7.148437-18.523438-7.246093-25.671875-.214843l-22.472657 22.09375v-54.6875h27.042969c10.027344 0 18.152344-8.128907 18.152344-18.15625 0-10.023438-8.125-18.152344-18.152344-18.152344h-27.042969v-34.074219c77.34375-9.019531 137.574219-74.933594 137.574219-154.664063zm-275.148437 0c0-65.847656 53.570312-119.417968 119.421875-119.417968 65.847656 0 119.421875 53.570312 119.421875 119.417968 0 65.851563-53.574219 119.421876-119.421875 119.421876-65.847657 0-119.421875-53.570313-119.421875-119.421876zm0 0" fill="#cc98e8"/><g fill="#bf80e2"><path d="m154.214844 44.214844c-2.996094-.226563-6.023438-.34375-9.078125-.34375-65.847657 0-119.417969 53.570312-119.417969 119.417968 0 65.851563 53.570312 119.421876 119.417969 119.421876 3.054687 0 6.082031-.113282 9.078125-.34375-61.625-4.652344-110.34375-56.28125-110.34375-119.078126 0-62.792968 48.71875-114.421874 110.34375-119.074218zm0 0"/><path d="m181.445312 443.023438v-54.6875h-13.109374c-2.785157 0-5.046876 2.257812-5.046876 5.042968v42.035156c.003907 9.464844 11.40625 14.246094 18.15625 7.609376zm0 0"/><path d="m190.335938 388.335938h18.152343c10.023438 0 18.152344-8.128907 18.152344-18.152344 0-10.027344-8.128906-18.15625-18.152344-18.15625h-18.152343c10.023437 0 18.152343 8.128906 18.152343 18.15625 0 10.023437-8.128906 18.152344-18.152343 18.152344zm0 0"/><path d="m163.292969 7.5625c-3.046875 0-6.074219.097656-9.078125.273438 81.660156 4.714843 146.652344 72.632812 146.652344 155.453124 0 78.246094-58.007813 143.183594-133.269532 154.101563-2.476562.359375-4.304687 2.484375-4.304687 4.980469v24.613281c0 2.785156 2.257812 5.042969 5.042969 5.042969h13.109374v-34.070313c77.347657-9.023437 137.574219-74.9375 137.574219-154.664062 0-85.871094-69.859375-155.730469-155.726562-155.730469zm0 0"/><path d="m207.570312 418.171875c1.382813.800781 2.691407 1.78125 3.863282 2.976563 7.03125 7.148437 6.933594 18.640624-.214844 25.667968l-53.351562 52.457032c-1.113282 1.09375-2.347657 1.992187-3.652344 2.734374 6.882812 3.925782 15.945312 3.027344 21.804687-2.734374l53.351563-52.457032c7.148437-7.027344 7.246094-18.519531.21875-25.667968-5.929688-6.03125-15.023438-7.023438-22.019532-2.976563zm0 0"/></g><path d="m239.722656 290.167969c-18.183594 10.996093-38.085937 17.816406-59.152344 20.273437-3.8125.445313-6.6875 3.675782-6.6875 7.511719v34.074219c0 4.175781 3.386719 7.566406 7.5625 7.566406h27.042969c5.839844 0 10.589844 4.75 10.589844 10.585938 0 5.839843-4.75 10.589843-10.589844 10.589843h-27.042969c-4.175781 0-7.5625 3.386719-7.5625 7.566407v54.6875c0 3.046874 1.828126 5.796874 4.640626 6.972656 2.808593 1.179687 6.050781.558594 8.226562-1.582032l22.46875-22.09375c2.015625-1.980468 4.644531-3.082031 7.515625-3.035156 2.828125.023438 5.476563 1.148438 7.460937 3.164063 4.09375 4.164062 4.039063 10.878906-.125 14.976562l-53.351562 52.457031c-4.027344 3.957032-10.824219 3.957032-14.851562 0l-53.347657-52.457031c-2.019531-1.984375-3.140625-4.636719-3.167969-7.460937-.023437-2.832032 1.054688-5.5 3.039063-7.515625s4.632813-3.140625 7.460937-3.164063c2.832032-.058594 5.496094 1.054688 7.515626 3.039063l22.472656 22.09375c2.171875 2.136719 5.414062 2.757812 8.226562 1.582031 2.808594-1.179688 4.636719-3.929688 4.636719-6.976562v-54.6875c0-4.179688-3.382813-7.566407-7.5625-7.566407h-27.042969c-5.839844 0-10.589844-4.75-10.589844-10.589843 0-5.835938 4.75-10.585938 10.589844-10.585938h27.042969c4.175781 0 7.5625-3.390625 7.5625-7.566406v-34.074219c0-3.835937-2.875-7.066406-6.683594-7.511719-74.621093-8.703125-130.886719-71.964844-130.886719-147.152344 0-81.695312 66.464844-148.160156 148.164063-148.160156 29.636719 0 58.257813 8.757813 82.769531 25.332032 3.460938 2.34375 8.164063 1.433593 10.503906-2.027344 2.339844-3.460938 1.429688-8.164063-2.03125-10.503906-27.027343-18.273438-58.578124-27.929688-91.246093-27.929688-90.039063 0-163.292969 73.253906-163.292969 163.289062 0 80.605469 58.679688 148.773438 137.574219 161.261719v19.914063h-19.476563c-14.183594 0-25.71875 11.539062-25.71875 25.71875 0 14.179687 11.535156 25.714844 25.71875 25.714844h19.476563v29.082031l-9.605469-9.445313c-4.898438-4.816406-11.332031-7.441406-18.246094-7.378906-6.871094.058594-13.304687 2.789062-18.121094 7.6875-4.816406 4.898438-7.4375 11.378906-7.378906 18.246094.058594 6.871094 2.789063 13.304687 7.6875 18.121094l53.351563 52.457031c4.972656 4.886719 11.5 7.332031 18.03125 7.332031 6.527343 0 13.058593-2.445312 18.027343-7.332031l53.355469-52.457031c10.109375-9.941407 10.246094-26.257813.304688-36.367188-4.816407-4.898438-11.25-7.628906-18.121094-7.6875-6.859375-.09375-13.347656 2.5625-18.25 7.378906l-9.601563 9.445313v-29.082031h19.476563c14.179687 0 25.71875-11.535157 25.71875-25.714844 0-14.179688-11.539063-25.71875-25.71875-25.71875h-19.476563v-19.914063c20.761719-3.285156 40.425782-10.484375 58.542969-21.4375 3.574219-2.164062 4.71875-6.8125 2.558594-10.386719-2.160156-3.574218-6.8125-4.722656-10.386719-2.558593zm0 0"/><path d="m163.292969 36.308594c-57.847657 0-108.398438 39.105468-122.933594 95.097656-1.046875 4.042969 1.378906 8.171875 5.421875 9.222656 4.042969 1.050782 8.171875-1.378906 9.222656-5.421875 12.800782-49.324219 57.332032-83.773437 108.289063-83.773437 61.675781 0 111.855469 50.179687 111.855469 111.855468 0 61.679688-50.179688 111.859376-111.855469 111.859376-61.679688 0-111.859375-50.179688-111.859375-111.859376 0-4.175781-3.382813-7.5625-7.5625-7.5625-4.175782 0-7.5625 3.386719-7.5625 7.5625 0 70.023438 56.964844 126.988282 126.984375 126.988282s126.984375-56.964844 126.984375-126.988282c0-70.015624-56.964844-126.980468-126.984375-126.980468zm0 0"/><path d="m278.707031 47.878906c-2.953125-2.953125-7.742187-2.953125-10.699219 0-2.953124 2.953125-2.953124 7.742188 0 10.695313 28.019532 28.019531 43.449219 65.207031 43.449219 104.71875 0 41.617187-17.734375 81.59375-48.65625 109.667969-3.089843 2.808593-3.324219 7.59375-.515625 10.6875 1.492188 1.640624 3.542969 2.476562 5.601563 2.476562 1.816406 0 3.636719-.648438 5.085937-1.964844 34.070313-30.9375 53.613282-74.992187 53.613282-120.867187 0-43.550781-17.007813-84.539063-47.878907-115.414063zm0 0"/></svg>