<svg height="512pt" viewBox="-73 0 512 512.00032" width="512pt" xmlns="http://www.w3.org/2000/svg"><path d="m341.253906 10.265625-62.972656-2.683594c-9.964844-.410156-18.484375 7.351563-18.910156 17.371094-.429688 10.019531 7.347656 18.484375 17.367187 18.914063l19.695313.835937-70.203125 65.570313c-23.089844-18.847657-52.554688-30.167969-84.617188-30.167969-73.914062 0-134.046875 60.136719-134.046875 134.050781 0 67.757812 50.53125 123.921875 115.890625 132.8125v75.46875h-19.917969c-10.027343 0-18.15625 8.128906-18.15625 18.15625s8.128907 18.15625 18.15625 18.15625h19.917969v27.53125c0 10.027344 8.128907 18.15625 18.15625 18.15625 10.027344 0 18.15625-8.132812 18.15625-18.15625v-27.53125h19.914063c10.03125 0 18.160156-8.128906 18.160156-18.15625s-8.128906-18.15625-18.160156-18.15625h-19.914063v-75.46875c65.355469-8.890625 115.890625-65.054688 115.890625-132.8125 0-28.789062-9.125-55.484375-24.628906-77.355469l70.1875-65.558593-.503906 19.707031c-.257813 10.023437 7.660156 18.359375 17.683594 18.613281.160156.003906.316406.007812.476562.007812 9.8125 0 17.886719-7.824218 18.140625-17.691406l1.617187-63.007812c.253907-9.90625-7.480468-18.1875-17.378906-18.605469zm-199.640625 301.621094c-53.890625 0-97.734375-43.839844-97.734375-97.730469s43.84375-97.734375 97.734375-97.734375 97.734375 43.84375 97.734375 97.734375-43.84375 97.730469-97.734375 97.730469zm0 0" fill="#cc98e8"/><g fill="#bf80e2"><path d="m141.613281 486.277344c0 6.71875-3.65625 12.570312-9.078125 15.707031 3.148438 1.824219 6.882813 2.75 10.867188 2.363281 9.367187-.910156 16.367187-9.070312 16.367187-18.480468v-27.117188h-13.113281c-2.785156 0-5.042969 2.257812-5.042969 5.042969zm0 0"/><path d="m43.878906 214.15625c0-50.832031 39.007813-92.714844 88.65625-97.308594-2.988281-.277344-6.019531-.425781-9.078125-.425781-53.890625 0-97.734375 43.84375-97.734375 97.734375s43.84375 97.730469 97.734375 97.730469c3.058594 0 6.085938-.148438 9.078125-.425781-49.648437-4.59375-88.65625-46.476563-88.65625-97.304688zm0 0"/><path d="m341.253906 10.265625-62.972656-2.683594c-1.800781-.074219-3.550781.128907-5.21875.550781l50.035156 2.132813c9.898438.421875 17.632813 8.699219 17.378906 18.605469l-1.617187 63.007812c-.167969 6.554688-3.800781 12.191406-9.089844 15.25 2.542969 1.472656 5.484375 2.351563 8.632813 2.433594.15625.003906.3125.007812.472656.007812 9.8125 0 17.890625-7.828124 18.144531-17.691406l1.613281-63.007812c.253907-9.90625-7.480468-18.1875-17.378906-18.605469zm0 0"/><path d="m321.214844 71.269531v-5.351562c0-4.410157-5.261719-6.695313-8.484375-3.683594l-76.691407 71.613281c-1.800781 1.679688-2.117187 4.410156-.757812 6.464844 14.039062 21.1875 22.222656 46.574219 22.222656 73.84375 0 66.296875-48.382812 121.503906-111.695312 132.171875-2.421875.410156-4.195313 2.507813-4.195313 4.964844v66.097656c0 2.785156 2.257813 5.042969 5.042969 5.042969h13.113281v-75.464844c65.359375-8.890625 115.894531-65.058594 115.894531-132.8125 0-28.789062-9.125-55.488281-24.632812-77.355469zm0 0"/><path d="m179.6875 422.433594h-18.160156c10.03125 0 18.160156 8.132812 18.160156 18.160156s-8.128906 18.15625-18.160156 18.15625h18.160156c10.027344 0 18.15625-8.128906 18.15625-18.15625 0-10.03125-8.128906-18.160156-18.15625-18.160156zm0 0"/></g><path d="m141.613281 512c-14.183593 0-25.722656-11.539062-25.722656-25.722656v-19.964844h-12.347656c-14.183594 0-25.726563-11.539062-25.726563-25.722656 0-14.179688 11.539063-25.722656 25.726563-25.722656h12.347656v-61.449219c-66.519531-12.257813-115.890625-70.988281-115.890625-139.265625 0-78.085938 63.527344-141.613282 141.613281-141.613282 30.257813 0 59.890625 9.832032 84.167969 27.800782l16-14.949219c3.054688-2.847656 7.84375-2.6875 10.695312.367187 2.851563 3.054688 2.6875 7.839844-.363281 10.695313l-20.71875 19.347656c-2.765625 2.582031-7.015625 2.726563-9.945312.332031-22.492188-18.351562-50.84375-28.460937-79.835938-28.460937-69.742187 0-126.480469 56.738281-126.480469 126.484375 0 62.960938 47.007813 116.835938 109.34375 125.316406 3.75.507813 6.542969 3.710938 6.542969 7.496094v75.464844c0 4.179687-3.386719 7.566406-7.5625 7.566406h-19.914062c-5.84375 0-10.59375 4.75-10.59375 10.59375 0 5.839844 4.75 10.589844 10.59375 10.589844h19.914062c4.175781 0 7.5625 3.386718 7.5625 7.566406v27.527344c0 5.839844 4.753907 10.59375 10.59375 10.59375 5.839844 0 10.59375-4.753906 10.59375-10.59375v-27.527344c0-4.179688 3.386719-7.566406 7.5625-7.566406h19.917969c5.839844 0 10.589844-4.75 10.589844-10.589844 0-5.84375-4.75-10.59375-10.589844-10.59375h-19.917969c-4.175781 0-7.5625-3.386719-7.5625-7.566406v-75.464844c0-3.785156 2.792969-6.988281 6.542969-7.496094 23.136719-3.148437 44.957031-12.699218 63.09375-27.621094 17.925781-14.746093 31.453125-34.035156 39.117188-55.785156 1.386718-3.941406 5.710937-6.007812 9.648437-4.621094 3.941406 1.386719 6.011719 5.707032 4.621094 9.648438-8.578125 24.351562-23.714844 45.945312-43.773438 62.445312-18.59375 15.292969-40.640625 25.546876-64.121093 29.878907v61.453125h12.351562c14.183594 0 25.722656 11.539062 25.722656 25.722656 0 14.179688-11.539062 25.722656-25.722656 25.722656h-12.351562v19.960938c0 14.183594-11.539063 25.722656-25.722657 25.722656zm0-192.546875c-58.0625 0-105.300781-47.238281-105.300781-105.296875 0-4.179688 3.386719-7.566406 7.566406-7.566406 4.179688 0 7.566406 3.386718 7.566406 7.566406 0 49.71875 40.449219 90.167969 90.167969 90.167969s90.167969-40.449219 90.167969-90.167969c0-49.722656-40.449219-90.171875-90.167969-90.171875-39.292969 0-73.796875 25.152344-85.855469 62.585937-1.28125 3.976563-5.542968 6.160157-9.519531 4.878907-3.976562-1.28125-6.164062-5.542969-4.882812-9.519531 6.78125-21.046876 19.808593-39.171876 37.671875-52.414063 18.238281-13.515625 39.878906-20.660156 62.585937-20.660156 58.0625 0 105.300781 47.238281 105.300781 105.300781 0 58.058594-47.238281 105.296875-105.300781 105.296875zm133.226563-82.765625c-4.449219 0-8.023438-3.980469-7.527344-8.402344.519531-4.660156.785156-9.414062.785156-14.128906 0-26.304688-8.035156-51.539062-23.238281-72.980469-2.1875-3.085937-1.757813-7.320312 1.007813-9.90625l70.1875-65.558593c4.804687-4.484376 12.898437-.839844 12.726562 5.722656l-.503906 19.707031c-.148438 5.835937 4.480468 10.707031 10.316406 10.859375l.28125.003906c5.6875 0 10.433594-4.628906 10.578125-10.320312l1.617187-63.007813c.144532-5.742187-4.402343-10.609375-10.140624-10.855469l-62.96875-2.679687c-5.289063-.214844-10.0625 3.65625-10.90625 8.886719-.996094 6.175781 3.75 12.011718 10.003906 12.277344l19.695312.839843c6.554688.28125 9.648438 8.597657 4.839844 13.085938l-27.363281 25.5625c-3.054688 2.847656-7.839844 2.6875-10.691407-.367188-2.855468-3.054687-2.691406-7.839843.363282-10.691406l14.175781-13.242187-1.664063-.070313c-6.863281-.292969-13.203124-3.238281-17.851562-8.300781-4.644531-5.058594-7.042969-11.625-6.753906-18.492188.605468-14.152344 12.625-25.207031 26.785156-24.6054685l62.980469 2.6796875c13.933593.59375 24.976562 12.417969 24.621093 26.359375l-1.617187 63.007812c-.269531 10.585938-7.132813 20.160157-17.167969 23.636719-10.285156 3.566407-21.976562.167969-28.726562-8.367187-3.710938-4.691406-5.6875-10.609375-5.535156-16.585938l.042968-1.664062-52.277344 48.832031c14.617188 22.78125 22.3125 48.996094 22.3125 76.230469 0 5.277344-.296874 10.59375-.878906 15.808594-.429687 3.867187-3.703125 6.726562-7.507812 6.726562zm0 0"/></svg>