<svg height="512pt" viewBox="-93 0 512 512" width="512pt" xmlns="http://www.w3.org/2000/svg"><path d="m163.277344 7.5625c-85.863282 0-155.714844 69.851562-155.714844 155.714844 0 79.71875 60.222656 145.625 137.5625 154.648437v95.976563h-27.039062c-10.027344 0-18.152344 8.128906-18.152344 18.152344 0 10.027343 8.125 18.152343 18.152344 18.152343h27.039062v36.078125c0 10.023438 8.125 18.152344 18.152344 18.152344 10.023437 0 18.152344-8.128906 18.152344-18.152344v-168.359375c77.335937-9.019531 137.558593-74.929687 137.558593-154.648437 0-85.863282-69.851562-155.714844-155.710937-155.714844zm0 275.125c-65.84375 0-119.410156-53.570312-119.410156-119.410156 0-65.84375 53.566406-119.410156 119.410156-119.410156 65.839844 0 119.40625 53.566406 119.40625 119.410156.003906 65.839844-53.566406 119.410156-119.40625 119.410156zm0 0" fill="#00f3a7"/><path d="m154.199219 44.210938c-2.996094-.226563-6.023438-.34375-9.074219-.34375-65.84375 0-119.410156 53.566406-119.410156 119.410156 0 65.839844 53.566406 119.410156 119.410156 119.410156 3.050781 0 6.078125-.117188 9.074219-.34375-61.617188-4.652344-110.332031-56.277344-110.332031-119.066406 0-62.789063 48.714843-114.414063 110.332031-119.066406zm0 0" fill="#00e49d"/><path d="m163.277344 7.5625c-3.046875 0-6.074219.097656-9.078125.273438 81.652343 4.714843 146.636719 72.625 146.636719 155.4375 0 78.238281-58 143.171874-133.257813 154.085937-2.472656.359375-4.304687 2.484375-4.304687 4.980469v163.941406c0 6.714844-3.65625 12.566406-9.074219 15.703125 3.148437 1.824219 6.878906 2.75 10.863281 2.363281 9.367188-.910156 16.363281-9.070312 16.363281-18.476562v-167.945313c77.339844-9.019531 137.5625-74.929687 137.5625-154.648437 0-85.863282-69.851562-155.714844-155.710937-155.714844zm0 0" fill="#00e49d"/><path d="m163.277344 512c-14.179688 0-25.714844-11.535156-25.714844-25.714844v-28.515625h-19.476562c-14.179688 0-25.71875-11.535156-25.71875-25.714843 0-14.175782 11.539062-25.714844 25.71875-25.714844h19.476562v-81.820313c-78.886719-12.488281-137.5625-80.648437-137.5625-161.246093 0-90.027344 73.246094-163.273438 163.277344-163.273438 32.664062 0 64.214844 9.65625 91.234375 27.929688 3.460937 2.335937 4.371093 7.039062 2.03125 10.5-2.339844 3.460937-7.039063 4.371093-10.503907 2.027343-24.507812-16.570312-53.128906-25.332031-82.761718-25.332031-81.691406 0-148.152344 66.460938-148.152344 148.148438 0 75.179687 56.265625 138.4375 130.875 147.136718 3.8125.445313 6.6875 3.675782 6.6875 7.515625v95.976563c0 4.175781-3.386719 7.5625-7.5625 7.5625h-27.039062c-5.839844 0-10.589844 4.75-10.589844 10.589844 0 5.835937 4.75 10.585937 10.589844 10.585937h27.039062c4.175781 0 7.5625 3.386719 7.5625 7.5625v36.078125c0 5.839844 4.75 10.589844 10.585938 10.589844 5.839843 0 10.589843-4.75 10.589843-10.589844v-84.367188c0-4.175781 3.386719-7.5625 7.5625-7.5625s7.5625 3.386719 7.5625 7.5625v84.367188c.003907 14.183594-11.535156 25.71875-25.710937 25.71875zm18.152344-132.769531c-4.179688 0-7.566407-3.386719-7.566407-7.566407v-53.738281c0-3.835937 2.875-7.066406 6.6875-7.511719 74.613281-8.703124 130.875-71.957031 130.875-147.136718 0-39.503906-15.429687-76.691406-43.445312-104.707032-2.953125-2.953124-2.953125-7.742187 0-10.695312 2.957031-2.953125 7.746093-2.953125 10.699219 0 30.871093 30.871094 47.871093 71.855469 47.871093 115.402344 0 80.59375-58.671875 148.753906-137.558593 161.242187v47.144531c0 4.179688-3.386719 7.566407-7.5625 7.566407zm-18.152344-88.980469c-70.011719 0-126.972656-56.960938-126.972656-126.972656 0-4.179688 3.382812-7.5625 7.5625-7.5625 4.175781 0 7.5625 3.382812 7.5625 7.5625 0 61.671875 50.171874 111.84375 111.84375 111.84375 61.671874 0 111.847656-50.171875 111.847656-111.84375s-50.175782-111.847656-111.847656-111.847656c-50.964844 0-95.496094 34.457031-108.285157 83.792968-1.046875 4.046875-5.175781 6.472656-9.21875 5.425782-4.042969-1.050782-6.472656-5.175782-5.421875-9.21875 14.519532-56.007813 65.070313-95.125 122.929688-95.125 70.011718 0 126.972656 56.957031 126.972656 126.972656 0 70.011718-56.960938 126.972656-126.972656 126.972656zm0 0"/></svg>