<svg height="512pt" viewBox="-93 0 512 512" width="512pt" xmlns="http://www.w3.org/2000/svg"><path d="m318.964844 163.265625c0-85.855469-69.847656-155.703125-155.699219-155.703125-85.855469 0-155.703125 69.847656-155.703125 155.703125 0 79.710937 60.21875 145.617187 137.550781 154.636719v125.046875l-22.46875-22.089844c-7.148437-7.027344-18.636719-6.929687-25.667969.21875-7.027343 7.148437-6.929687 18.640625.21875 25.664063l52.914063 52.027343c3.304687 3.484375 7.96875 5.667969 13.15625 5.667969 10.023437 0 18.148437-8.125 18.148437-18.148438v-168.386718c77.332032-9.019532 137.550782-74.925782 137.550782-154.636719zm-155.699219 119.398437c-65.839844 0-119.402344-53.5625-119.402344-119.402343 0-65.835938 53.5625-119.398438 119.402344-119.398438 65.835937 0 119.398437 53.5625 119.398437 119.398438 0 65.839843-53.5625 119.402343-119.398437 119.402343zm0 0" fill="#8bcaff"/><path d="m154.1875 44.207031c-2.996094-.226562-6.019531-.34375-9.074219-.34375-65.835937 0-119.398437 53.5625-119.398437 119.402344 0 65.835937 53.5625 119.398437 119.398437 119.398437 3.054688 0 6.078125-.113281 9.074219-.34375-61.613281-4.648437-110.324219-56.269531-110.324219-119.054687s48.710938-114.40625 110.324219-119.058594zm0 0" fill="#60b8ff"/><path d="m163.265625 7.5625c-3.046875 0-6.074219.097656-9.078125.269531 81.648438 4.71875 146.628906 72.625 146.628906 155.429688 0 78.230469-57.996094 143.160156-133.25 154.074219-2.472656.359374-4.300781 2.480468-4.300781 4.980468v163.96875c0 6.714844-3.65625 12.5625-9.074219 15.703125 3.0625 1.777344 6.679688 2.699219 10.542969 2.390625 9.515625-.761718 16.679687-9.039062 16.679687-18.585937v-167.890625c77.332032-9.019532 137.550782-74.925782 137.550782-154.640625 0-85.851563-69.847656-155.699219-155.699219-155.699219zm0 0" fill="#60b8ff"/><path d="m181.414062 391.019531c-4.175781 0-7.5625 3.386719-7.5625 7.5625v87.707031c0 5.835938-4.75 10.585938-10.589843 10.585938-2.917969 0-5.640625-1.175781-7.667969-3.3125-.0625-.0625-.121094-.125-.183594-.1875l-52.914062-52.023438c-4.113282-4.046874-4.175782-10.855468-.128906-14.972656 4.050781-4.121094 10.855468-4.175781 14.976562-.125l22.464844 22.089844c4.6875 4.609375 12.867187 1.167969 12.867187-5.394531v-125.046875c0-3.839844-2.875-7.066406-6.6875-7.511719-74.605469-8.703125-130.863281-71.953125-130.863281-147.125 0-81.6875 66.453125-148.140625 148.136719-148.140625 29.632812 0 58.25 8.757812 82.757812 25.328125 3.460938 2.339844 8.164063 1.433594 10.503907-2.027344 2.339843-3.460937 1.429687-8.160156-2.03125-10.5-27.015626-18.269531-58.5625-27.925781-91.226563-27.925781-90.027344 0-163.265625 73.238281-163.265625 163.265625 0 80.585937 58.667969 148.742187 137.550781 161.226563v100.414062l-9.601562-9.4375c-10.003907-9.835938-26.53125-9.695312-36.363281.304688-9.828126 10-9.6875 26.535156.308593 36.363281l52.824219 51.9375c4.902344 5.113281 11.484375 7.925781 18.546875 7.925781 14.175781 0 25.710937-11.535156 25.710937-25.714844v-87.703125c0-4.175781-3.386718-7.5625-7.5625-7.5625zm0 0"/><path d="m163.265625 275.101562c-61.667969 0-111.839844-50.167968-111.839844-111.835937 0-4.179687-3.386719-7.566406-7.5625-7.566406s-7.5625 3.386719-7.5625 7.566406c0 70.003906 56.953125 126.960937 126.960938 126.960937 70.007812 0 126.964843-56.957031 126.964843-126.960937 0-70.007813-56.957031-126.964844-126.964843-126.964844-57.863281 0-108.410157 39.121094-122.921875 95.136719-1.046875 4.042969 1.382812 8.171875 5.425781 9.21875 4.039063 1.046875 8.167969-1.382812 9.214844-5.425781 12.785156-49.34375 57.3125-83.804688 108.285156-83.804688 61.667969 0 111.835937 50.171875 111.835937 111.839844 0 61.664063-50.167968 111.835937-111.835937 111.835937zm0 0"/><path d="m278.65625 47.871094c-2.953125-2.953125-7.742188-2.953125-10.695312 0-2.953126 2.953125-2.953126 7.742187 0 10.695312 28.015624 28.011719 43.441406 65.195313 43.441406 104.695313 0 75.175781-56.257813 138.425781-130.867188 147.125-3.808594.445312-6.683594 3.675781-6.683594 7.511719v50.433593c0 4.175781 3.386719 7.5625 7.5625 7.5625 4.175782 0 7.5625-3.386719 7.5625-7.5625v-43.839843c78.882813-12.484376 137.550782-80.640626 137.550782-161.230469 0-43.539063-17-84.523438-47.871094-115.390625zm0 0"/></svg>