<svg id="Capa_1" enable-background="new 0 0 512 512" height="512" viewBox="0 0 512 512" 
width="512" xmlns="http://www.w3.org/2000/svg">
<path d="m411.7130127 163.276001c0-85.8600006-69.8530273-155.7130008-155.7130127-155.7130008s-155.7129974 69.8530002-155.7129974 155.7130008c0 79.7210083 60.2220001 145.6289978 137.5610046 154.6489868v95.9790039h-27.0399933c-10.0249939 0-18.1520081 8.1270142-18.1520081 18.1520081s8.1269989 18.1520081 18.1520081 18.1520081h27.0400085v36.0769958c0 10.0249939 8.1269989 18.1520081 18.1520081 18.1520081 10.0249939 0 18.1520081-8.1270142 18.1520081-18.1520081v-36.0769958h27.0400085c10.0249939 0 18.1520081-8.1270142 18.1520081-18.1520081s-8.1270142-18.1520081-18.1520081-18.1520081h-27.0400085v-95.9790039c77.3379516-9.019989 137.5609741-74.9279938 137.5609741-154.6489868zm-275.1230164 0c0-65.8420029 53.5670013-119.4089966 119.4089966-119.4089966 65.8429871 0 119.4100037 53.5670013 119.4100037 119.4089966 0 65.8430023-53.5670166 119.4100037-119.4100037 119.4100037-65.8419952-.0000001-119.4089966-53.5670014-119.4089966-119.4100037z"
 fill="#b5b5b5"/>
<g fill="#b5b5b5">
<path fill="#b5b5b5" d="m246.923996 44.2089996c-2.9960022-.2260017-6.022995-.3429985-9.076004-.3429985-65.8420105 0-119.4089966 53.5669975-119.4089966 119.4089966 0 65.8430023 53.5670013 119.4100037 119.4089966 119.4100037 3.0529938 0 6.0800018-.1159973 9.076004-.3429871-61.6190033-4.6529846-110.3339996-56.2770081-110.3339996-119.0670013-.0000001-62.7880135 48.7149963-114.4130135 110.3339996-119.0660134z"/>
<path fill="#b5b5b5" d="m256 486.2850037c0 6.7149963-3.6560059 12.5629883-9.076004 15.7030029 3.147995 1.8240051 6.8820038 2.7489929 10.8650055 2.3609924 9.3649902-.9110107 16.3619995-9.0679932 16.3619995-18.4769897v-35.6650085h-13.1090088c-2.7850037 0-5.0419922 2.2569885-5.0419922 5.0419922z"/>
<path fill="#b5b5b5" d="m256 7.5630002c-3.0469971 0-6.0709991.098-9.076004.2709999 81.6519928 4.7170005 146.6369781 72.6279984 146.6369781 155.4409943 0 78.2359924-58 143.1679993-133.257019 154.0859985-2.4729919.3590088-4.3040009 2.4809875-4.3040009 4.980011v86.519989c0 2.7850037 2.2570038 5.0419922 5.0420074 5.0419922h13.1090088v-95.9790039c77.3389893-9.0209961 137.5610046-74.9290009 137.5610046-154.6490021.0010377-85.8589787-69.8519896-155.7119789-155.711975-155.7119789z"/>
<path fill="#b5b5b5" d="m301.1919861 413.9049988h-18.1519775c10.0249939 0 18.1520081 8.1270142 18.1520081 18.1520081s-8.1270142 18.1520081-18.1520081 18.1520081h18.1520081c10.0249939 0 18.1520081-8.1270142 18.1520081-18.1520081-.0010377-10.026001-8.1280214-18.1520081-18.1520387-18.1520081z"/>
</g>
</svg>