<svg height="512pt" viewBox="-93 0 512 512" width="512pt" xmlns="http://www.w3.org/2000/svg"><path d="m7.5625 348.722656c0 85.863282 69.851562 155.714844 155.714844 155.714844 85.859375 0 155.710937-69.851562 155.710937-155.714844 0-79.71875-60.21875-145.628906-137.558593-154.648437v-76.375l17.023437 11.332031c8.34375 5.554688 19.613281 3.292969 25.167969-5.054688 5.554687-8.34375 3.292968-19.613281-5.054688-25.167968l-22.53125-14.996094 22.53125-15c8.347656-5.554688 10.609375-16.824219 5.054688-25.167969-3.496094-5.253906-9.257813-8.09375-15.128906-8.09375-3.453126 0-6.949219.984375-10.039063 3.042969l-17.023437 11.332031v-24.210937c0-10.023438-8.125-18.152344-18.152344-18.152344-10.023438 0-18.152344 8.128906-18.152344 18.152344v24.210937l-17.023438-11.332031c-3.09375-2.058594-6.585937-3.042969-10.042968-3.042969-5.867188 0-11.628906 2.839844-15.125 8.09375-5.554688 8.34375-3.292969 19.613281 5.050781 25.167969l22.535156 15-22.535156 14.996094c-8.34375 5.554687-10.605469 16.824218-5.050781 25.167968 5.554687 8.347657 16.824218 10.609376 25.167968 5.054688l17.023438-11.332031v76.375c-77.339844 9.019531-137.5625 74.929687-137.5625 154.648437zm275.125 0c0 65.84375-53.566406 119.410156-119.410156 119.410156s-119.410156-53.566406-119.410156-119.410156c0-65.839844 53.566406-119.410156 119.410156-119.410156s119.410156 53.570312 119.410156 119.410156zm0 0" fill="#ff94d4"/><g fill="#ff73c6"><path d="m163.277344 25.714844v26.84375c0 4.019531 4.476562 6.425781 7.824218 4.203125l10.328126-6.835938v-23.796875c0-9.410156-7-17.566406-16.363282-18.480468-3.984375-.386719-7.71875.539062-10.867187 2.363281 5.421875 3.140625 9.078125 8.988281 9.078125 15.703125zm0 0"/><path d="m181.429688 194.074219v-76.375l-10.328126-6.832031c-3.351562-2.214844-7.824218.1875-7.824218 4.207031v74.582031c0 2.5 1.832031 4.621094 4.304687 4.980469 75.257813 10.917969 133.257813 75.851562 133.257813 154.085937 0 82.8125-64.984375 150.726563-146.636719 155.441406 3.003906.175782 6.027344.273438 9.074219.273438 85.863281 0 155.714844-69.855469 155.714844-155.714844-.003907-79.71875-60.222657-145.628906-137.5625-154.648437zm0 0"/><path d="m206.066406 44.601562c4.859375 8.363282 2.003906 19.117188-6.046875 24.476563l-15.832031 10.535156c-2.996094 1.996094-2.996094 6.398438 0 8.394531l15.828125 10.535157c7.722656 5.140625 10.738281 15.273437 6.550781 23.550781-1.679687 3.324219-4.203125 5.835938-7.125 7.523438 8.246094 4.773437 18.894532 2.371093 24.21875-5.699219 5.546875-8.40625 2.917969-19.777344-5.464844-25.355469l-22.160156-14.75 22.148438-14.746094c8.3125-5.53125 11-16.769531 5.601562-25.167968-3.476562-5.414063-9.328125-8.347657-15.292968-8.347657-3.09375 0-6.214844.796875-9.054688 2.4375 2.652344 1.527344 4.960938 3.746094 6.628906 6.613281zm0 0"/><path d="m43.867188 348.722656c0-62.789062 48.714843-114.414062 110.332031-119.066406-2.996094-.226562-6.019531-.34375-9.074219-.34375-65.84375 0-119.410156 53.570312-119.410156 119.410156 0 65.84375 53.566406 119.410156 119.410156 119.410156 3.054688 0 6.078125-.117187 9.074219-.34375-61.617188-4.652343-110.332031-56.277343-110.332031-119.066406zm0 0"/></g><path d="m288.167969 243.664062c-2.691407-3.195312-7.460938-3.605468-10.65625-.910156-3.195313 2.691406-3.601563 7.460938-.910157 10.65625 22.457032 26.652344 34.824219 60.5 34.824219 95.3125 0 37.007813-13.777343 72.46875-38.792969 99.84375-2.558593 2.796875-2.617187 7.207032-.125 10.066406 2.929688 3.359376 8.285157 3.425782 11.289063.136719 27.570313-30.167969 42.757813-69.25 42.757813-110.046875 0-38.371094-13.632813-75.683594-38.386719-105.058594zm0 0"/><path d="m250.183594 468.636719c-25.414063 18.472656-55.464844 28.238281-86.90625 28.238281-81.691406 0-148.148438-66.460938-148.148438-148.152344 0-75.175781 56.261719-138.433594 130.875-147.136718 3.808594-.445313 6.683594-3.671876 6.683594-7.511719v-76.375c0-5.917969-6.816406-9.582031-11.753906-6.296875l-17.023438 11.332031c-4.808594 3.203125-11.484375 1.855469-14.679687-2.945313-3.238281-4.859374-1.914063-11.445312 2.945312-14.683593l22.535157-14.996094c4.417968-2.941406 4.417968-9.652344 0-12.59375l-22.535157-15c-4.859375-3.234375-6.183593-9.820313-2.945312-14.679687 3.195312-4.804688 9.871093-6.148438 14.679687-2.949219l17.023438 11.332031c4.9375 3.285156 11.753906-.378906 11.753906-6.296875v-24.207031c0-5.835938 4.75-10.585938 10.589844-10.585938s10.589844 4.75 10.589844 10.585938v24.210937c0 5.917969 6.816406 9.578125 11.753906 6.292969l17.023437-11.332031c4.808594-3.199219 11.484375-1.855469 14.679688 2.949219 3.234375 4.859374 1.914062 11.445312-2.949219 14.679687l-22.53125 15c-4.417969 2.941406-4.417969 9.652344 0 12.589844l22.53125 15c4.863281 3.238281 6.183594 9.820312 2.949219 14.683593-3.234375 4.859376-9.820313 6.179688-14.679688 2.945313l-17.023437-11.332031c-4.9375-3.285156-11.753906.378906-11.753906 6.296875v76.375c0 3.839843 2.875 7.066406 6.6875 7.511719 27.597656 3.21875 53.683593 14.175781 75.441406 31.683593 3.257812 2.617188 8.015625 2.101563 10.636718-1.152343 2.617188-3.253907 2.101563-8.015626-1.152343-10.632813-22.214844-17.878906-48.535157-29.558594-76.488281-34v-55.664063l5.269531 3.507813c11.679687 7.773437 27.894531 4.503906 35.65625-7.15625 7.855469-11.804687 4.644531-27.800781-7.15625-35.65625l-13.074219-8.703125 13.074219-8.703125c11.800781-7.855469 15.011719-23.851563 7.15625-35.65625-4.78125-7.179687-12.789063-11.46875-21.421875-11.46875-5.074219 0-10 1.492187-14.234375 4.3125l-5.269531 3.507813v-10.089844c0-14.179688-11.535157-25.714844-25.714844-25.714844-14.179688 0-25.714844 11.535156-25.714844 25.714844v10.089844l-5.269531-3.507813c-4.238281-2.820313-9.160157-4.3125-14.234375-4.3125-8.632813 0-16.640625 4.289063-21.421875 11.46875-7.855469 11.804687-4.644531 27.800781 7.15625 35.65625l13.074219 8.703125-13.074219 8.703125c-11.800781 7.855469-15.015625 23.851563-7.15625 35.652344 7.757812 11.660156 23.976562 14.9375 35.652343 7.15625l5.273438-3.507813v55.664063c-78.890625 12.488281-137.5625 80.648437-137.5625 161.242187 0 90.03125 73.246094 163.277344 163.277344 163.277344 34.65625 0 67.78125-10.761719 95.796875-31.125 3.378906-2.457031 4.128906-7.1875 1.671875-10.566406-2.457032-3.378906-7.1875-4.125-10.5625-1.671875zm0 0"/><path d="m163.277344 460.570312c-61.671875 0-111.847656-50.175781-111.847656-111.847656 0-4.175781-3.386719-7.5625-7.5625-7.5625-4.175782 0-7.5625 3.386719-7.5625 7.5625 0 70.015625 56.960937 126.972656 126.972656 126.972656 70.011718 0 126.972656-56.957031 126.972656-126.972656 0-70.011718-56.960938-126.972656-126.972656-126.972656-57.933594 0-108.5 39.179688-122.96875 95.277344-1.042969 4.046875 1.390625 8.167968 5.433594 9.210937 4.046874 1.042969 8.171874-1.386719 9.214843-5.433593 12.742188-49.414063 57.285157-83.925782 108.320313-83.925782 61.671875 0 111.84375 50.171875 111.84375 111.84375s-50.171875 111.847656-111.84375 111.847656zm0 0"/></svg>