<svg height="511pt" viewBox="1 0 511.99967 511" width="511pt" xmlns="http://www.w3.org/2000/svg"><path d="m486.449219 344.90625c-.054688 0-.105469 0-.160157 0-9.957031 0-18.074218 8.03125-18.160156 18.007812l-.238281 28.210938-69.621094-69.609375 78.207031-141.167969c4.859376-8.773437 1.683594-19.824218-7.089843-24.683594-8.777344-4.863281-19.828125-1.6875-24.691407 7.085938l-34.121093 61.589844c-1.265625-6.753906-2.964844-13.46875-5.121094-20.117188-13.128906-40.464844-41.230469-73.394531-79.128906-92.726562-37.902344-19.332032-81.066407-22.75-121.535157-9.625-18.625 6.039062-35.648437 15.257812-50.492187 27.136718l-63.855469-63.847656 19.710938-19.707031c7.089844-7.089844 7.089844-18.589844 0-25.679687-7.09375-7.09375-18.59375-7.09375-25.6875 0l-19.710938 19.703124-26.21875-26.214843c-7.089844-7.089844-18.589844-7.089844-25.683594 0-7.09375 7.09375-7.09375 18.589843 0 25.683593l26.214844 26.214844-19.707031 19.707032c-7.09375 7.089843-7.09375 18.589843 0 25.679687 3.546875 3.546875 8.195313 5.320313 12.84375 5.320313s9.296875-1.773438 12.84375-5.320313l19.707031-19.703125 63.988282 63.976562c-5.207032 6.644532-9.910157 13.746094-14.074219 21.257813-.019531.042969-.046875.078125-.070313.117187l-83.199218 150.183594c-4.863282 8.773438-1.6875 19.824219 7.085937 24.683594 2.789063 1.542969 5.808594 2.277344 8.785156 2.277344 6.390625 0 12.589844-3.378906 15.90625-9.363282l34.121094-61.59375c1.265625 6.753907 2.96875 13.472657 5.125 20.121094 13.125 40.464844 41.230469 73.394532 79.128906 92.726563 22.75 11.605469 47.394531 17.476562 72.21875 17.476562 16.527344 0 33.136719-2.605469 49.3125-7.851562 6.796875-2.203125 13.375-4.839844 19.71875-7.863281l53.054688 53.042968-17.71875 17.714844c-7.09375 7.089844-7.09375 18.589844 0 25.679688 3.546875 3.546874 8.195312 5.320312 12.84375 5.320312 4.648437 0 9.296875-1.773438 12.84375-5.320312l17.714843-17.714844 23.828126 23.828125c3.546874 3.546875 8.195312 5.320312 12.84375 5.320312 4.648437 0 9.296874-1.773437 12.84375-5.320312 7.09375-7.09375 7.09375-18.589844 0-25.683594l-96.742188-96.726563c8.832031-7.152343 16.871094-15.261718 24.003906-24.207031l94.554688 94.542969c1.605468 1.605469 3.550781 2.910156 5.632812 3.8125 2.296875.992188 4.75 1.503906 7.210938 1.503906 4.648437 0 9.296875-1.773437 12.84375-5.320312 3.664062-3.660156 5.417968-8.5 5.296875-13.296875l.601562-70.949219c.082031-10.027344-7.980469-18.226562-18.007812-18.3125zm-122.984375-35.675781c-14.921875 29.253906-40.351563 50.945312-71.589844 61.074219-31.246094 10.132812-64.5625 7.492187-93.816406-7.429688-29.257813-14.921875-50.949219-40.34375-61.085938-71.578125-10.132812-31.238281-7.492187-64.550781 7.433594-93.800781 14.925781-29.253906 40.347656-50.945313 71.589844-61.074219 12.492187-4.050781 25.308594-6.0625 38.070312-6.0625 19.160156 0 38.1875 4.53125 55.746094 13.488281 29.257812 14.925782 50.953125 40.34375 61.085938 71.582032 10.132812 31.238281 7.496093 64.550781-7.433594 93.800781zm0 0" fill="#8bcaff"/><path d="m486.449219 344.90625c-.054688 0-.105469 0-.160157 0-9.957031 0-18.074218 8.03125-18.160156 18.007812l-.238281 28.210938-69.621094-69.609375 78.207031-141.167969c4.859376-8.773437 1.683594-19.824218-7.089843-24.683594-8.777344-4.863281-19.828125-1.6875-24.691407 7.085938l-34.121093 61.589844c-1.265625-6.753906-2.964844-13.46875-5.121094-20.117188-13.128906-40.464844-41.230469-73.394531-79.128906-92.726562-37.902344-19.332032-81.066407-22.75-121.535157-9.625-18.625 6.039062-35.648437 15.257812-50.492187 27.136718l-63.855469-63.847656 19.710938-19.707031c7.089844-7.089844 7.089844-18.589844 0-25.679687-7.09375-7.09375-18.59375-7.09375-25.6875 0l-19.710938 19.703124-26.21875-26.214843c-7.089844-7.089844-18.589844-7.089844-25.683594 0-7.09375 7.09375-7.09375 18.589843 0 25.683593l26.214844 26.214844-19.707031 19.707032c-7.09375 7.089843-7.09375 18.589843 0 25.679687 3.546875 3.546875 8.195313 5.320313 12.84375 5.320313s9.296875-1.773438 12.84375-5.320313l19.707031-19.703125 63.988282 63.976562c-5.207032 6.644532-9.910157 13.746094-14.074219 21.257813-.019531.042969-.046875.078125-.070313.117187l-83.199218 150.183594c-4.863282 8.773438-1.6875 19.824219 7.085937 24.683594 2.789063 1.542969 5.808594 2.277344 8.785156 2.277344 6.390625 0 12.589844-3.378906 15.90625-9.363282l34.121094-61.59375c1.265625 6.753907 2.96875 13.472657 5.125 20.121094 13.125 40.464844 41.230469 73.394532 79.128906 92.726563 22.75 11.605469 47.394531 17.476562 72.21875 17.476562 16.527344 0 33.136719-2.605469 49.3125-7.851562 6.796875-2.203125 13.375-4.839844 19.71875-7.863281l53.054688 53.042968-17.71875 17.714844c-7.09375 7.089844-7.09375 18.589844 0 25.679688 3.546875 3.546874 8.195312 5.320312 12.84375 5.320312 4.648437 0 9.296875-1.773438 12.84375-5.320312l17.714843-17.714844 23.828126 23.828125c3.546874 3.546875 8.195312 5.320312 12.84375 5.320312 4.648437 0 9.296874-1.773437 12.84375-5.320312 7.09375-7.09375 7.09375-18.589844 0-25.683594l-96.742188-96.726563c8.832031-7.152343 16.871094-15.261718 24.003906-24.207031l94.554688 94.542969c1.605468 1.605469 3.550781 2.910156 5.632812 3.8125 2.296875.992188 4.75 1.503906 7.210938 1.503906 4.648437 0 9.296875-1.773437 12.84375-5.320312 3.664062-3.660156 5.417968-8.5 5.296875-13.296875l.601562-70.949219c.082031-10.027344-7.980469-18.226562-18.007812-18.3125zm-122.984375-35.675781c-14.921875 29.253906-40.351563 50.945312-71.589844 61.074219-31.246094 10.132812-64.5625 7.492187-93.816406-7.429688-29.257813-14.921875-50.949219-40.34375-61.085938-71.578125-10.132812-31.238281-7.492187-64.550781 7.433594-93.800781 14.925781-29.253906 40.347656-50.945313 71.589844-61.074219 12.492187-4.050781 25.308594-6.0625 38.070312-6.0625 19.160156 0 38.1875 4.53125 55.746094 13.488281 29.257812 14.925782 50.953125 40.34375 61.085938 71.582032 10.132812 31.238281 7.496093 64.550781-7.433594 93.800781zm0 0" fill="#8bcaff"/><g fill="#60b8ff"><path d="m354.3125 377.132812c8.832031-7.152343 16.875-15.261718 24.007812-24.210937 0-.003906 0-.003906 0-.007813l-5.796874-5.796874c-2.078126-2.074219-5.476563-1.945313-7.378907.292968-6.816406 8.007813-17.292969 19.257813-24.972656 26.28125-2.109375 1.933594-2.171875 5.230469-.148437 7.253906l92.929687 92.914063c7.09375 7.09375 7.089844 18.589844 0 25.683594-1.15625 1.15625-2.441406 2.105469-3.792969 2.882812 2.792969 1.613281 5.917969 2.4375 9.050782 2.4375 4.648437 0 9.296874-1.773437 12.84375-5.320312 7.09375-7.09375 7.09375-18.589844 0-25.683594zm0 0"/><path d="m198.058594 362.878906c-29.257813-14.925781-50.949219-40.34375-61.085938-71.582031-10.132812-31.238281-7.492187-64.550781 7.429688-93.800781 14.925781-29.253906 40.351562-50.945313 71.59375-61.074219 9.527344-3.089844 19.242187-4.984375 28.980468-5.714844-2.996093-.222656-6.003906-.347656-9.015624-.347656-12.757813 0-25.578126 2.011719-38.066407 6.0625-31.242187 10.128906-56.667969 31.820313-71.59375 61.074219-14.925781 29.25-17.5625 62.5625-7.429687 93.800781 10.132812 31.234375 31.828125 56.65625 61.085937 71.582031 20.324219 10.363282 42.609375 14.796875 64.792969 13.144532-16.070312-1.203126-31.902344-5.601563-46.691406-13.144532zm0 0"/><path d="m308.21875 111.496094c37.902344 19.332031 66.003906 52.261718 79.132812 92.726562 1.429688 4.414063 5.222657 18.632813 7.980469 29.671875 1.109375 4.429688 7.066407 5.210938 9.277344 1.21875l5.960937-10.761719c0-.007812 0-.011718.003907-.019531-1.265625-6.75-2.96875-13.464843-5.121094-20.109375-13.128906-40.464844-41.230469-73.394531-79.132813-92.726562-25.5-13.007813-53.378906-18.796875-81.21875-17.207032 21.722657 1.261719 43.152344 7.023438 63.117188 17.207032zm0 0"/><path d="m45.046875 110.546875 19.707031-19.703125-5.496094-5.496094c-1.964843-1.960937-5.144531-1.960937-7.109374 0l-25.203126 25.199219c-1.160156 1.15625-2.441406 2.105469-3.792968 2.882813 2.792968 1.609374 5.917968 2.4375 9.050781 2.4375 4.648437 0 9.296875-1.773438 12.84375-5.320313zm0 0"/><path d="m458.371094 180.347656-76.367188 137.855469c-1.085937 1.960937-.742187 4.402344.84375 5.988281l76.410156 76.402344c3.152344 3.152344 8.546876.945312 8.585938-3.511719l.050781-5.953125-69.625-69.613281 78.207031-141.167969c4.859376-8.773437 1.6875-19.824218-7.089843-24.683594-5.769531-3.195312-12.515625-2.902343-17.847657.15625 8.574219 4.933594 11.644532 15.84375 6.832032 24.527344zm0 0"/><path d="m95.570312 24.898438c3.242188 7.148437 1.441407 15.59375-4.109374 21.144531l-15.566407 15.5625c-1.960937 1.960937-1.960937 5.144531 0 7.109375l64.84375 64.816406c1.765625 1.765625 4.566407 1.964844 6.566407.460938 2.285156-1.726563 4.621093-3.390626 7.003906-4.992188l-63.867188-63.839844 19.367188-19.363281c7.035156-7.035156 7.511718-18.535156.632812-25.726563-5.925781-6.203124-15.128906-7.246093-22.1875-3.183593 2.976563 1.714843 5.609375 4.246093 7.316406 8.011719zm0 0"/><path d="m396.042969 470.222656c-1.964844-1.960937-5.148438-1.960937-7.109375 0l-23.210938 23.207032c-1.160156 1.160156-2.441406 2.105468-3.792968 2.886718 2.792968 1.609375 5.917968 2.433594 9.050781 2.433594 4.648437 0 9.296875-1.773438 12.84375-5.320312l17.714843-17.714844zm0 0"/><path d="m486.449219 344.90625c-.054688 0-.105469 0-.160157 0-3.292968 0-6.375.894531-9.042968 2.429688 5.488281 3.164062 9.164062 9.101562 9.109375 15.882812l-.601563 70.949219c.121094 4.800781-1.632812 9.636719-5.296875 13.300781-1.15625 1.15625-2.4375 2.101562-3.792969 2.882812.597657.339844 1.207032.65625 1.839844.929688 2.296875.992188 4.75 1.503906 7.210938 1.503906 4.648437 0 9.296875-1.773437 12.84375-5.316406 3.664062-3.664062 5.417968-8.5 5.296875-13.300781l.601562-70.949219c.082031-10.027344-7.980469-18.226562-18.007812-18.3125zm0 0"/><path d="m319.886719 394.070312c-1.476563-1.472656-3.699219-1.882812-5.605469-1.035156-8.089844 3.609375-23.402344 9.90625-29.300781 11.820313-13.222657 4.289062-26.730469 6.808593-40.25 7.585937 3.007812.175782 6.019531.265625 9.035156.265625 16.53125 0 33.140625-2.605469 49.316406-7.851562 6.796875-2.203125 13.375-4.839844 19.71875-7.863281.003907 0 .003907-.003907.003907-.003907zm0 0"/><path d="m20.433594 13.261719 31.722656 31.710937c1.964844 1.964844 5.148438 1.964844 7.113281 0l5.496094-5.492187-26.230469-26.21875c-5.933594-5.933594-14.949218-6.882813-21.890625-2.882813 1.351563.78125 2.632813 1.726563 3.789063 2.882813zm0 0"/><path d="m94.371094 272.835938c-1.183594-4.367188-7.054688-5.105469-9.25-1.144532l-40.046875 72.285156c-1.664063 3-4.050781 5.347657-6.824219 6.941407v.011719c2.851562 1.636718 5.957031 2.410156 9.019531 2.410156 6.390625 0 12.589844-3.375 15.90625-9.363282l34.121094-61.59375v.003907c-.230469-.683594-.46875-1.367188-.695313-2.054688-.804687-2.492187-1.546874-4.988281-2.230468-7.496093zm0 0"/></g><path d="m438.210938 512.402344c-6.867188 0-13.320313-2.675782-18.175782-7.527344l-18.496094-18.492188-12.382812 12.378907c-9.910156 9.90625-26.441406 9.910156-36.351562 0-4.855469-4.851563-7.53125-11.304688-7.53125-18.171875 0-6.867188 2.675781-13.320313 7.53125-18.175782l12.382812-12.378906-44.015625-44.007812c-5.164063 2.265625-10.445313 4.277344-15.761719 6-16.8125 5.453125-34.1875 8.21875-51.644531 8.21875-26.386719 0-51.839844-6.15625-75.644531-18.296875-39.695313-20.25-69.128906-54.742188-82.875-97.121094-.21875-.671875-.433594-1.34375-.640625-2.019531l-24.832031 44.820312c-5.421876 9.792969-16.949219 15.035156-27.898438 12.671875-10.386719-2.242187-18.449219-10.882812-20.007812-21.378906-.824219-5.550781.214843-11.289063 2.933593-16.199219l83.199219-150.179687c.046875-.085938.105469-.1875.164062-.285157 3.207032-5.777343 6.769532-11.386718 10.617188-16.730468l-54.027344-54.019532-14.375 14.371094c-7.585937 7.585938-19.449218 9.671875-29.160156 5.078125-9.742188-4.609375-15.644531-15.089843-14.597656-25.804687.578125-5.886719 3.226562-11.441406 7.40625-15.621094l14.375-14.371094-20.886719-20.878906c-10.019531-10.023438-10.019531-26.328125 0-36.351562 9.910156-9.90625 26.445313-9.90625 36.355469 0l20.882812 20.882812 14.375-14.375c10.023438-10.019531 26.332032-10.019531 36.355469 0 10.019531 10.023438 10.019531 26.328125 0 36.351562l-14.378906 14.371094 53.847656 53.839844c14.363281-10.5625 30.3125-18.726562 47.507813-24.300781 37.414062-12.136719 76.40625-10.921875 112.765624 3.507812 3.875 1.539063 5.765626 5.921875 4.226563 9.792969-1.535156 3.871094-5.917969 5.761719-9.792969 4.226562-33.054687-13.121093-68.515625-14.21875-102.546875-3.183593-17.628906 5.71875-33.8125 14.417969-48.101562 25.851562-3.003907 2.402344-7.328125 2.164063-10.046875-.554687l-63.855469-63.847656c-2.945313-2.945313-2.945313-7.71875 0-10.664063l19.707031-19.707031c4.140625-4.140625 4.140625-10.875 0-15.015625s-10.878906-4.140625-15.019531 0l-19.707031 19.703125c-2.945313 2.945312-7.722656 2.945312-10.667969 0l-26.21875-26.210938c-4.09375-4.09375-10.925781-4.09375-15.019531 0-4.140625 4.140625-4.140625 10.875 0 15.015625l26.21875 26.214844c2.945312 2.945313 2.945312 7.71875 0 10.664063l-19.710938 19.707031c-3.851562 3.851562-4.117187 10.222656-.589844 14.375 3.964844 4.667969 11.277344 4.972656 15.609376.640625l19.710937-19.707032c2.945313-2.945312 7.722656-2.941406 10.667969 0l63.988281 63.980469c2.699219 2.695313 2.957031 6.984375.605469 9.984375-4.953125 6.316406-9.46875 13.132813-13.414063 20.257813-.046875.085937-.105469.1875-.164062.285156l-83.109375 150.015625c-2.621094 4.730469-1.164063 10.878906 3.308594 13.921875 5.101562 3.46875 12.285156 1.761719 15.273437-3.628906l34.121094-61.59375c1.542969-2.78125 4.664062-4.292969 7.800781-3.792969 3.140625.511719 5.625 2.933594 6.210938 6.058594 1.21875 6.492187 2.859374 12.941406 4.882812 19.179687 12.507812 38.546875 39.277344 69.921875 75.382812 88.339844 21.664063 11.046875 44.804688 16.652344 68.789063 16.648437 15.875 0 31.683594-2.515624 46.988281-7.480468 6.375-2.066406 12.699219-4.589844 18.800782-7.5 2.882812-1.378906 6.320312-.785156 8.578124 1.476562l53.054688 53.042969c2.945312 2.945313 2.945312 7.71875 0 10.667969l-17.71875 17.710937c-4.09375 4.09375-4.09375 10.925781 0 15.015625 4.09375 4.09375 10.925781 4.09375 15.019531 0l17.714844-17.710937c2.90625-2.90625 7.761719-2.90625 10.667969 0l23.832031 23.824219c4.089844 4.09375 10.921875 4.09375 15.015625 0 4.09375-4.089844 4.097656-10.921876.003906-15.015626l-96.742187-96.726562c-3.121094-3.121094-2.839844-8.417969.585937-11.195312 8.382813-6.789063 16.070313-14.546876 22.851563-23.046876 2.761719-3.464843 8.09375-3.765624 11.230469-.628906l94.554687 94.539063c3.09375 3.097656 8.035156 3.96875 12.003906 2.121093 3.9375-1.835937 6.105469-5.894531 6.105469-10.152343l.601562-70.945313c.046876-5.855468-4.675781-10.660156-10.53125-10.710937-5.898437 0-10.660156 4.722656-10.710937 10.527343l-.238281 28.214844c-.054688 6.539063-8.238282 9.90625-12.875 5.269532l-69.621094-69.613282c-2.378906-2.378906-2.894531-6.042968-1.265625-8.984375l17.160156-30.980469c2.019531-3.640624 6.609375-4.957031 10.253907-2.941406 3.644531 2.019532 4.960937 6.609375 2.941406 10.25l-14.40625 26.007813 52.878906 52.875.085938-10.222657c.121093-14.054687 11.648437-25.484374 25.703124-25.484374h.296876c14.097656.121093 25.53125 11.75 25.414062 25.921874l-.601562 70.828126c.15625 7.804687-3.28125 15.308593-9.277344 20.300781-6.09375 5.074219-14.402344 7.046875-22.132813 5.265625-4.675781-1.078125-9.050781-3.484375-12.449219-6.878906l-88.742187-88.726563c-4.203125 4.757813-8.675781 9.265625-13.378906 13.496094l90.96875 90.957031c5.660156 5.65625 8.367187 13.746094 7.296875 21.671875-1.070313 7.886719-5.902344 14.964844-12.820313 18.886719-3.847656 2.175781-8.234375 3.3125-12.652343 3.3125zm-184.414063-128.492188c-20.335937.003906-40.523437-4.808594-59.167969-14.316406-31.050781-15.835938-54.074218-42.820312-64.828125-75.972656-4.328125-13.332032-6.492187-27.113282-6.429687-40.957032.019531-4.152343 3.394531-7.507812 7.542968-7.507812h.035157c4.164062.019531 7.527343 3.410156 7.507812 7.574219-.054687 12.238281 1.859375 24.429687 5.691407 36.238281 9.511718 29.320312 29.875 53.183594 57.335937 67.191406 27.460937 14.007813 58.738281 16.484375 88.0625 6.972656 29.324219-9.507812 53.191406-29.867187 67.199219-57.328124 14.011718-27.457032 16.488281-58.726563 6.976562-88.046876-9.515625-29.320312-29.875-53.179687-57.339844-67.191406-16.476562-8.402344-34.078124-12.664062-52.316406-12.664062-12.074218 0-24.097656 1.914062-35.742187 5.691406-29.328125 9.511719-53.191407 29.871094-67.203125 57.328125-3.867188 7.585937-6.902344 15.558594-9.011719 23.703125-1.046875 4.03125-5.160156 6.453125-9.195313 5.40625-4.03125-1.042969-6.453124-5.160156-5.410156-9.191406 2.390625-9.207032 5.8125-18.210938 10.183594-26.773438 15.839844-31.046875 42.824219-54.066406 75.980469-64.816406 13.148437-4.269531 26.742187-6.429688 40.398437-6.429688 20.351563 0 40.816406 4.949219 59.171875 14.3125 31.050781 15.835938 54.078125 42.820313 64.832031 75.972657 10.757813 33.152343 7.957032 68.507812-7.882812 99.554687-15.84375 31.046875-42.828125 54.066406-75.988281 64.820313-13.25 4.296875-26.859375 6.429687-40.402344 6.429687zm176.238281-112.207031c-5.65625 0-9.316406-6.269531-6.589844-11.195313l46.433594-83.8125c2.835938-5.121093.976563-11.597656-4.144531-14.4375-5.125-2.835937-11.605469-.976562-14.441406 4.144532l-34.121094 61.59375c-1.539063 2.78125-4.664063 4.292968-7.800781 3.789062-3.140625-.507812-5.625-2.929687-6.210938-6.054687-1.214844-6.484375-2.855468-12.933594-4.882812-19.179688-11.078125-34.152343-32.890625-62.277343-63.070313-81.335937-3.523437-2.222656-4.574219-6.878906-2.351562-10.402344 2.226562-3.519531 6.886719-4.574219 10.40625-2.351562 33.199219 20.964843 57.183593 51.890624 69.367187 89.433593.21875.671875.429688 1.347657.640625 2.023438l24.832031-44.824219c6.863282-12.398438 22.542969-16.898438 34.941407-10.03125 12.398437 6.867188 16.898437 22.539062 10.03125 34.9375l-46.433594 83.8125c-1.375 2.488281-3.949219 3.890625-6.605469 3.890625zm0 0"/></svg>