<svg height="512pt" viewBox="0 0 512.00194 512" width="512pt" xmlns="http://www.w3.org/2000/svg"><path d="m498.933594 472.894531-26.578125-26.582031 19.980469-19.980469c7.191406-7.191406 7.191406-18.847656 0-26.039062-7.191407-7.191407-18.851563-7.191407-26.039063 0l-19.984375 19.980469-62.765625-62.769532c5.597656-7.019531 10.640625-14.550781 15.074219-22.539062.039062-.070313.082031-.132813.121094-.203125l84.347656-152.277344c4.925781-8.894531 1.707031-20.101563-7.1875-25.03125-8.898438-4.925781-20.105469-1.710937-25.03125 7.1875l-34.59375 62.449219c-1.28125-6.847656-3.007813-13.660156-5.191406-20.398438-13.308594-41.027344-41.800782-74.417968-80.222657-94.019531-4.714843-2.40625-9.507812-4.570313-14.371093-6.488281-34.75-13.714844-72.84375-14.949219-108.835938-3.273438-18.882812 6.125-36.140625 15.472656-51.1875 27.515625l-85.644531-85.644531 33.332031-.28125c10.167969-.085938 18.34375-8.398438 18.257812-18.570312-.085937-10.117188-8.3125-18.257813-18.410156-18.257813-.054687 0-.105468 0-.160156.003906l-77.257812.652344c-10.050782.085937-18.171876 8.210937-18.257813 18.257813l-.652344 77.257812c-.085937 10.167969 8.085938 18.484375 18.257813 18.570312h.15625c10.097656 0 18.324218-8.140624 18.410156-18.257812l.28125-33.332031 85.777344 85.777343c-5.277344 6.730469-10.042969 13.929688-14.257813 21.539063-.027343.046875-.058593.085937-.082031.132813l-84.347656 152.277343c-4.929688 8.898438-1.710938 20.105469 7.183594 25.03125 2.828124 1.566407 5.886718 2.308594 8.90625 2.308594 6.480468 0 12.765624-3.425781 16.125-9.492187l34.59375-62.453126c1.28125 6.847657 3.003906 13.660157 5.191406 20.398438 13.308594 41.027344 41.796875 74.421875 80.222656 94.023438 23.0625 11.765624 48.046875 17.71875 73.210938 17.71875 16.757812 0 33.597656-2.640626 49.996093-7.960938 18.4375-5.980469 35.320313-15.03125 50.113281-26.664062l62.855469 62.855468-19.980469 19.980469c-7.191406 7.1875-7.191406 18.847656 0 26.039063 3.597657 3.597656 8.308594 5.394531 13.019532 5.394531 4.714844 0 9.425781-1.796875 13.019531-5.394531l19.984375-19.980469 26.578125 26.582031c3.597656 3.59375 8.308594 5.390625 13.019531 5.390625 4.710938 0 9.425782-1.796875 13.019532-5.390625 7.195312-7.195312 7.195312-18.851562.003906-26.042969zm-202.992188-97.800781c-31.675781 10.273438-65.453125 7.597656-95.113281-7.535156-29.65625-15.128906-51.652344-40.90625-61.925781-72.578125-10.273438-31.671875-7.597656-65.449219 7.535156-95.113281 15.128906-29.660157 40.90625-51.652344 72.582031-61.925782 12.660157-4.105468 25.65625-6.144531 38.59375-6.144531 19.421875 0 38.710938 4.597656 56.515625 13.679687 29.660156 15.128907 51.652344 40.90625 61.925782 72.578126 10.273437 31.675781 7.597656 65.453124-7.53125 95.113281-15.132813 29.660156-40.910157 51.652343-72.582032 61.925781zm0 0" fill="#00f3a7"/><g fill="#00e49d"><path d="m200.828125 367.558594c-29.65625-15.128906-51.652344-40.90625-61.925781-72.578125-10.273438-31.671875-7.597656-65.449219 7.535156-95.113281 15.128906-29.660157 40.90625-51.652344 72.582031-61.925782 9.644531-3.128906 19.484375-5.046875 29.34375-5.789062-3.046875-.226563-6.105469-.355469-9.164062-.355469-12.9375 0-25.933594 2.039063-38.597657 6.144531-31.671874 10.273438-57.449218 32.265625-72.578124 61.925782-15.132813 29.660156-17.808594 63.4375-7.535157 95.113281 10.273438 31.671875 32.269531 57.449219 61.925781 72.578125 20.617188 10.515625 43.21875 15.011718 65.71875 13.328125-16.28125-1.222657-32.316406-5.683594-47.304687-13.328125zm0 0"/><path d="m312.449219 112.671875c38.425781 19.601563 66.914062 52.992187 80.222656 94.019531 1.449219 4.472656 5.300781 18.898438 8.105469 30.105469 1.125 4.503906 7.1875 5.296875 9.4375 1.234375l6.0625-10.945312s0-.003907 0-.007813c-1.285156-6.84375-3.007813-13.652344-5.191406-20.386719-13.308594-41.027344-41.800782-74.417968-80.222657-94.019531-25.859375-13.195313-54.136719-19.066406-82.371093-17.445313 22.011718 1.28125 43.726562 7.121094 63.957031 17.445313zm0 0"/><path d="m464.675781 182.484375-84.347656 152.28125c-.039063.066406-.082031.132813-.121094.199219-3.707031 6.683594-7.839843 13.042968-12.367187 19.050781-1.53125 2.027344-1.324219 4.875.472656 6.671875l65.179688 65.175781c1.996093 2 5.234374 2 7.234374 0l5.589844-5.589843-62.769531-62.765626c5.597656-7.019531 10.640625-14.550781 15.074219-22.542968.039062-.066406.082031-.132813.121094-.199219l84.347656-152.28125c4.925781-8.894531 1.707031-20.101563-7.1875-25.03125-5.863282-3.246094-12.714844-2.9375-18.125.179687 8.667968 5.011719 11.769531 16.054688 6.898437 24.851563zm0 0"/><path d="m26.089844 122.414062c10.097656 0 18.324218-8.140624 18.410156-18.257812l.28125-33.332031-9.628906-9.628907c-3.207032-3.210937-8.695313-.964843-8.730469 3.574219l-.335937 39.386719c-.054688 6.757812-3.757813 12.617188-9.210938 15.777344 2.667969 1.542968 5.753906 2.453125 9.058594 2.480468zm0 0"/><path d="m97.953125 283.785156c-.816406-2.507812-1.5625-5.027344-2.25-7.554687-1.210937-4.445313-7.179687-5.195313-9.414063-1.164063l-40.617187 73.332032c-1.679687 3.03125-4.085937 5.402343-6.886719 7.015624v.015626c2.902344 1.671874 6.0625 2.460937 9.175782 2.460937 6.480468 0 12.765624-3.425781 16.125-9.492187l34.59375-62.457032c-.242188-.71875-.492188-1.433594-.726563-2.15625zm0 0"/><path d="m498.933594 472.894531-26.578125-26.582031 19.980469-19.980469c7.191406-7.191406 7.191406-18.847656 0-26.039062-6.027344-6.027344-15.183594-6.984375-22.226563-2.90625 1.359375.785156 2.648437 1.742187 3.8125 2.90625 7.191406 7.191406 7.191406 18.847656 0 26.039062l-16.363281 16.363281c-1.996094 2-1.996094 5.238282 0 7.234376l22.960937 22.964843c7.195313 7.191407 7.195313 18.847657 0 26.039063-1.164062 1.164062-2.453125 2.121094-3.8125 2.90625 2.84375 1.644531 6.019531 2.488281 9.207031 2.488281 4.710938 0 9.425782-1.796875 13.019532-5.394531 7.191406-7.191406 7.191406-18.847656 0-26.039063zm0 0"/><path d="m440.722656 466.769531c-1.996094-2-5.234375-2-7.234375 0l-25.570312 25.566407c-1.164063 1.164062-2.453125 2.117187-3.8125 2.90625 2.839843 1.644531 6.019531 2.484374 9.207031 2.484374 4.710938 0 9.425781-1.796874 13.019531-5.394531l19.980469-19.972656zm0 0"/><path d="m357.417969 383.457031.003906.007813c0-.003906 0-.003906 0-.007813l-4.554687-4.550781c-1.789063-1.792969-4.617188-2.007812-6.652344-.496094-15.34375 11.394532-40.257813 26.179688-57.324219 31.714844-13.394531 4.34375-27.082031 6.898438-40.777344 7.691406 3.058594.175782 6.125.265625 9.195313.265625 16.753906 0 33.59375-2.636719 49.996094-7.957031 18.433593-5.980469 35.320312-15.03125 50.113281-26.667969zm0 0"/><path d="m85.742188 44.65625 18.414062-.15625c10.167969-.085938 18.34375-8.398438 18.257812-18.566406-.085937-10.117188-8.3125-18.257813-18.410156-18.257813-.054687 0-.105468 0-.160156 0l-16.097656.136719c9.085937 1.0625 16.175781 8.734375 16.253906 18.121094.085938 10.167968-8.089844 18.636718-18.257812 18.722656zm0 0"/><path d="m70.824219 44.78125-6.199219.050781c-4.539062.039063-6.78125 5.53125-3.570312 8.738281l81.609374 81.46875c1.800782 1.796876 4.644532 2 6.675782.46875 2.328125-1.757812 4.707031-3.449218 7.128906-5.082031zm0 0"/></g><path d="m485.914062 512c-6.96875 0-13.519531-2.710938-18.445312-7.640625l-21.15625-21.15625-14.554688 14.558594c-7.414062 7.414062-19.101562 9.671875-28.742187 5.535156-3.035156-1.300781-5.8125-3.199219-8.148437-5.535156-4.925782-4.929688-7.640626-11.480469-7.640626-18.445313 0-6.96875 2.714844-13.519531 7.640626-18.449218l14.554687-14.554688-52.710937-52.710938c-14.273438 10.3125-30.066407 18.316407-47.039063 23.820313-17.046875 5.53125-34.664063 8.335937-52.363281 8.335937-26.757813 0-52.5625-6.242187-76.699219-18.558593-40.25-20.53125-70.09375-55.507813-84.035156-98.488281-.214844-.660157-.425781-1.324219-.632813-1.988282l-25.140625 45.390625c-5.011719 9.046875-15.402343 14.425781-25.679687 13.292969-3.421875-.378906-6.769532-1.441406-9.78125-3.109375-12.582032-6.972656-17.148438-22.878906-10.179688-35.460937l84.347656-152.28125c.046876-.089844.113282-.199219.175782-.304688 3.242187-5.839844 6.84375-11.519531 10.746094-16.929688l-68.128907-68.128906-.128906 15.027344c-.117187 14.261719-11.820313 25.867188-26.082031 25.867188l-.300782-.003907c-14.304687-.117187-25.910156-11.917969-25.789062-26.304687l.65625-77.257813c.117188-14.140625 11.722656-25.742187 25.863281-25.863281l77.484375-.65625c14.261719 0 25.960938 11.605469 26.082032 25.867188.09375 10.878906-6.832032 20.945312-17.054688 24.707031-2.816406 1.039062-5.808594 1.574219-8.808594 1.597656l-15.03125.128906 67.945313 67.945313c14.554687-10.707032 30.722656-18.980469 48.148437-24.632813 37.820313-12.265625 77.25-11.078125 114.023438 3.433594 3.941406 1.554687 5.878906 6.011719 4.324218 9.953125-1.558593 3.941406-6.015624 5.878906-9.953124 4.320312-33.425782-13.191406-69.269532-14.265624-103.65625-3.109374-17.871094 5.796874-34.277344 14.613281-48.761719 26.207031-3.050781 2.441406-7.453125 2.199219-10.21875-.5625l-85.644531-85.648438c-4.714844-4.714843-1.296876-13.039062 5.359374-13.097656l33.335938-.28125c5.851562-.050781 10.699219-4.976563 10.648438-10.832031-.050782-5.871094-4.867188-10.648438-10.738282-10.648438l-77.355468.652344c-5.820313.050781-10.597657 4.828125-10.648438 10.652344l-.652344 77.257812c-.050781 5.921875 4.726563 10.78125 10.648438 10.828125 5.964844 0 10.785156-4.773437 10.832031-10.648437l.28125-33.332032c.058594-6.65625 8.382813-10.078124 13.097656-5.359374l85.78125 85.777343c2.742188 2.742188 3.003907 7.105469.609375 10.15625-5.011718 6.398438-9.582031 13.304688-13.585937 20.527344-.050781.089844-.113281.195313-.175781.300781l-84.253907 152.109375c-2.628906 4.742188-1.203125 10.910157 3.246094 14.011719 5.15625 3.597656 12.503906 1.894531 15.546875-3.601562l34.59375-62.453126c1.574219-2.84375 4.878906-4.410156 8.074219-3.832031 3.097656.5625 5.597656 3.042969 6.179687 6.136719 1.230469 6.574219 2.894532 13.117188 4.949219 19.445312 12.675781 39.082032 39.8125 70.886719 76.410156 89.554688 21.957031 11.203125 45.414063 16.882812 69.726563 16.882812 16.085937 0 32.113281-2.554687 47.628906-7.585937 17.4375-5.65625 33.5-14.203125 47.738281-25.398437 3.054688-2.402344 7.421875-2.140626 10.167969.605468l62.855469 62.855469c2.996093 2.996094 2.996093 7.851563 0 10.847656l-19.980469 19.984375c-4.144531 4.136719-4.140625 11.046875 0 15.1875 4.136719 4.140625 11.046875 4.144532 15.1875 0l19.980469-19.980468c3-2.996094 7.855469-2.996094 10.851562 0l26.582031 26.578124c4.140626 4.140626 11.046876 4.140626 15.1875 0 4.140626-4.140624 4.144532-11.046874.003907-15.1875l-26.582031-26.582031c-2.996094-2.996093-2.996094-7.851562 0-10.847656l19.980468-19.984375c4.144532-4.136719 4.140625-11.046875 0-15.1875-4.136718-4.140625-11.046875-4.140625-15.1875 0l-19.980468 19.980469c-3 2.996093-7.855469 2.996093-10.851563 0l-62.769531-62.765625c-2.761719-2.761719-3.007813-7.160156-.570313-10.210938 5.332031-6.6875 10.164063-13.914062 14.359375-21.480468.019532-.03125.035156-.0625.054688-.09375.042968-.078126.089844-.152344.132812-.226563l21.386719-38.609375c2.054687-3.707031 6.722656-5.046875 10.429687-2.992188 3.707032 2.050782 5.046876 6.722657 2.992188 10.425782l-21.453125 38.734375c-.058594.109375-.128906.226562-.199219.34375-3.46875 6.242187-7.335937 12.273437-11.535156 18.003906l52.597656 52.59375 14.554688-14.554687c7.691406-7.691407 19.726562-9.8125 29.574218-5.160157 9.835938 4.644531 15.828126 15.183594 14.851563 26-.546875 6.046875-3.242187 11.761719-7.535156 16.050781l-14.554688 14.554688 21.152344 21.15625c4.929687 4.925781 7.640625 11.476562 7.640625 18.445312s-2.710938 13.519532-7.640625 18.445313c-4.925781 4.929687-11.476563 7.640625-18.445313 7.640625zm-93.878906-180.96875c-.003906.011719-.011718.019531-.015625.03125zm-134.695312 57.882812c-20.621094 0-41.09375-4.875-59.996094-14.519531-31.488281-16.0625-54.832031-43.425781-65.738281-77.046875-4.1875-12.910156-6.378907-26.25-6.511719-39.65625-.042969-4.238281 3.359375-7.703125 7.59375-7.746094h.078125c4.203125 0 7.632813 3.382813 7.671875 7.59375.121094 11.847657 2.058594 23.648438 5.765625 35.074219 9.640625 29.726563 30.277344 53.914063 58.113281 68.113281 27.835938 14.203126 59.535156 16.710938 89.257813 7.070313 29.722656-9.640625 53.914062-30.28125 68.113281-58.113281 14.199219-27.835938 16.710938-59.535156 7.070312-89.257813-9.644531-29.722656-30.28125-53.914062-58.117187-68.113281-16.699219-8.519531-34.542969-12.839844-53.03125-12.839844-12.234375 0-24.421875 1.941406-36.226563 5.769532-29.722656 9.640624-53.914062 30.28125-68.113281 58.113281-4.15625 8.152343-7.355469 16.730469-9.507812 25.5-1.007813 4.113281-5.164063 6.632812-9.277344 5.621093-4.117187-1.007812-6.636719-5.164062-5.625-9.277343 2.433594-9.917969 6.046875-19.613281 10.742187-28.816407 16.0625-31.484374 43.425782-54.832031 77.046876-65.734374 13.335937-4.328126 27.117187-6.519532 40.960937-6.519532 20.640625 0 41.390625 5.015625 60.003906 14.515625 31.488281 16.058594 54.832031 43.425781 65.738281 77.046875s8.066407 69.476563-7.996093 100.964844c-16.0625 31.484375-43.425781 54.832031-77.046875 65.734375-13.441406 4.359375-27.238282 6.523437-40.96875 6.523437zm177.714844-112.046874c-5.757813 0-9.480469-6.378907-6.707032-11.390626l48.027344-86.710937c2.871094-5.179687.992188-11.730469-4.191406-14.601563-5.183594-2.867187-11.734375-.988281-14.601563 4.191407l-34.589843 62.453125c-1.578126 2.84375-4.878907 4.410156-8.078126 3.832031-3.097656-.558594-5.59375-3.039063-6.175781-6.136719-1.234375-6.578125-2.898437-13.121094-4.949219-19.441406-11.222656-34.59375-33.300781-63.089844-63.855468-82.410156-3.582032-2.265625-4.652344-7.003906-2.386719-10.585938 2.265625-3.582031 7.003906-4.648437 10.585937-2.382812 33.617188 21.253906 57.914063 52.601562 70.253907 90.640625.214843.660156.425781 1.324219.628906 1.992187l25.144531-45.394531c6.96875-12.582031 22.875-17.148437 35.460938-10.183594 12.582031 6.972657 17.148437 22.878907 10.179687 35.460938l-48.027343 86.710937c-1.402344 2.53125-4.023438 3.957032-6.71875 3.957032zm0 0"/></svg>