<svg height="512pt" viewBox="-93 0 512 512" width="512pt" xmlns="http://www.w3.org/2000/svg"><path d="m181.429688 194.074219v-168.359375c0-10.023438-8.128907-18.152344-18.152344-18.152344-10.027344 0-18.152344 8.128906-18.152344 18.152344v168.359375c-77.339844 9.019531-137.5625 74.929687-137.5625 154.648437 0 85.863282 69.851562 155.714844 155.714844 155.714844 85.859375 0 155.710937-69.851562 155.710937-155.714844 0-79.71875-60.222656-145.628906-137.558593-154.648437zm-136.1875 172.800781h236.066406c-8.769532 57.257812-58.359375 101.257812-118.035156 101.257812-59.671876 0-109.261719-43.996093-118.03125-101.257812zm236.066406-36.304688h-236.066406c8.769531-57.257812 58.359374-101.257812 118.035156-101.257812 59.671875 0 109.261718 44 118.03125 101.257812zm0 0" fill="#ffe55a"/><g fill="#ffd500"><path d="m45.242188 366.875h-12.117188c-3.203125 0-5.585938 2.949219-4.9375 6.089844 11.234375 54.261718 59.398438 95.167968 116.9375 95.167968 3.054688 0 6.078125-.121093 9.074219-.347656-55.5625-4.195312-100.636719-46.582031-108.957031-100.910156zm0 0"/><path d="m33.125 330.570312h12.117188c8.320312-54.328124 53.394531-96.710937 108.957031-100.910156-2.996094-.222656-6.019531-.347656-9.074219-.347656-57.539062 0-105.703125 40.910156-116.9375 95.167969-.648438 3.140625 1.734375 6.089843 4.9375 6.089843zm0 0"/><path d="m181.429688 194.074219v-167.945313c0-9.410156-7-17.566406-16.363282-18.480468-3.984375-.386719-7.71875.539062-10.867187 2.363281 5.421875 3.140625 9.078125 8.988281 9.078125 15.703125v163.941406c0 2.5 1.828125 4.621094 4.300781 4.980469 75.261719 10.917969 133.257813 75.851562 133.257813 154.085937 0 82.8125-64.984376 150.726563-146.636719 155.441406 3.003906.175782 6.03125.273438 9.078125.273438 85.859375 0 155.710937-69.851562 155.710937-155.714844 0-79.71875-60.222656-145.628906-137.558593-154.648437zm0 0"/></g><path d="m163.277344 512c-90.03125 0-163.277344-73.246094-163.277344-163.277344 0-80.59375 58.675781-148.753906 137.5625-161.242187v-161.765625c0-14.179688 11.535156-25.714844 25.714844-25.714844 14.175781 0 25.714844 11.535156 25.714844 25.714844v70.179687c0 4.175781-3.386719 7.5625-7.5625 7.5625-4.179688 0-7.566407-3.386719-7.566407-7.5625v-70.179687c0-5.835938-4.75-10.585938-10.585937-10.585938-5.839844 0-10.589844 4.75-10.589844 10.585938v168.359375c0 3.839843-2.875 7.066406-6.6875 7.511719-74.609375 8.703124-130.875 71.960937-130.875 147.136718 0 81.691406 66.460938 148.152344 148.148438 148.152344 31.886718 0 62.28125-10.019531 87.90625-28.96875 3.355468-2.484375 8.09375-1.777344 10.578124 1.582031 2.484376 3.359375 1.773438 8.097657-1.582031 10.578125-28.246093 20.890625-61.753906 31.933594-96.898437 31.933594zm0-36.304688c-30.492188 0-59.988282-11.007812-83.058594-31.003906-22.832031-19.785156-37.910156-47.011718-42.449219-76.671875-.695312-4.511719 2.914063-8.707031 7.472657-8.707031h54.722656c4.179687 0 7.5625 3.386719 7.5625 7.5625 0 4.179688-3.386719 7.5625-7.5625 7.5625h-45.550782c5.375 22.707031 17.847657 43.34375 35.710938 58.824219 20.320312 17.609375 46.300781 27.308593 73.152344 27.308593 26.847656 0 52.828125-9.699218 73.152344-27.308593 17.859374-15.480469 30.335937-36.117188 35.710937-58.824219h-141.921875c-4.179688 0-7.566406-3.382812-7.566406-7.5625 0-4.175781 3.386718-7.5625 7.566406-7.5625h151.089844c4.558594 0 8.167968 4.195312 7.476562 8.707031-4.542968 29.660157-19.617187 56.886719-42.449218 76.671875-23.074219 19.996094-52.570313 31.003906-83.058594 31.003906zm114.933594-14.460937c-6.464844 0-9.917969-7.921875-5.578126-12.667969 25.015626-27.375 38.792969-62.832031 38.792969-99.839844 0-75.179687-56.265625-138.4375-130.875-147.136718-3.8125-.445313-6.6875-3.675782-6.6875-7.515625v-67.925781c0-4.179688 3.386719-7.5625 7.5625-7.5625 4.179688 0 7.5625 3.382812 7.5625 7.5625v61.335937c78.890625 12.484375 137.5625 80.648437 137.5625 161.242187 0 40.792969-15.183593 79.878907-42.753906 110.046876-1.492187 1.628906-3.535156 2.460937-5.585937 2.460937zm3.097656-123.097656h-236.066406c-4.558594 0-8.167969-4.199219-7.476563-8.710938 4.542969-29.65625 19.621094-56.886719 42.453125-76.671875 23.070312-19.992187 52.566406-31.003906 83.054688-31.003906 30.492187 0 59.988281 11.011719 83.058593 31.003906 22.832031 19.785156 37.910157 47.015625 42.449219 76.671875.695312 4.511719-2.914062 8.710938-7.472656 8.710938zm-226.894532-15.128907h217.722657c-5.371094-22.703124-17.847657-43.34375-35.710938-58.820312-20.320312-17.613281-46.300781-27.308594-73.148437-27.308594-26.851563 0-52.832032 9.695313-73.152344 27.308594-17.863281 15.476562-30.339844 36.117188-35.710938 58.820312zm0 0"/></svg>