<svg height="512pt" viewBox="0 0 512.00145 512" width="512pt" xmlns="http://www.w3.org/2000/svg"><path d="m504.046875 414.085938c-1.492187-6.105469-6.054687-10.996094-12.046875-12.894532 0 0-96.996094-31.734375-97.59375-32.328125l-19.503906-19.507812c5.46875-6.859375 10.394531-14.21875 14.726562-22.027344.035156-.0625.074219-.121094.109375-.183594l82.445313-148.859375c4.816406-8.695312 1.671875-19.648437-7.023438-24.46875-8.695312-4.8125-19.648437-1.671875-24.464844 7.027344l-33.8125 61.046875c-1.253906-6.691406-2.941406-13.351563-5.078124-19.9375-13.007813-40.109375-40.855469-72.75-78.414063-91.910156-37.554687-19.164063-80.328125-22.550781-120.429687-9.539063-18.457032 5.984375-35.324219 15.125-50.035157 26.894532l-63.277343-63.28125 19.53125-19.53125c7.027343-7.03125 7.027343-18.425782 0-25.457032-7.03125-7.027344-18.425782-7.027344-25.457032 0l-19.527344 19.53125-25.980468-25.980468c-7.03125-7.03125-18.425782-7.03125-25.457032 0-7.027343 7.027343-7.027343 18.425781 0 25.453124l25.980469 25.984376-19.53125 19.53125c-7.027343 7.027343-7.027343 18.425781 0 25.453124 3.515625 3.515626 8.121094 5.273438 12.730469 5.273438 4.605469 0 9.210938-1.757812 12.726562-5.273438l19.527344-19.53125 63.410156 63.414063c-5.160156 6.585937-9.820312 13.625-13.945312 21.070313-.023438.042968-.050781.074218-.074219.117187l-82.445312 148.855469c-4.816407 8.695312-1.671875 19.648437 7.027343 24.46875 2.761719 1.527344 5.753907 2.253906 8.703126 2.253906 6.332031 0 12.476562-3.347656 15.761718-9.28125l33.8125-61.046875c1.253906 6.695313 2.9375 13.355469 5.074219 19.941406 13.007813 40.105469 40.855469 72.746094 78.414063 91.910157 22.542968 11.5 46.964843 17.320312 71.5625 17.320312 16.378906 0 32.839843-2.582031 48.871093-7.78125 18.027344-5.847656 34.539063-14.703125 49-26.082031l19.585938 19.589843c.597656.59375 32.332031 97.597657 32.332031 97.597657 1.746094 5.503906 6.144531 9.925781 11.640625 11.695312 6.363281 2.046875 13.515625.316407 18.242187-4.410156l68.121094-68.125c4.445313-4.445313 6.25-10.886719 4.761719-16.992187zm-214.789063-47.519532c-30.960937 10.042969-63.976562 7.425782-92.96875-7.363281-28.992187-14.789063-50.488281-39.988281-60.53125-70.949219-10.039062-30.960937-7.425781-63.980468 7.363282-92.972656 14.792968-28.992188 39.988281-50.492188 70.945312-60.53125 12.378906-4.015625 25.078125-6.007812 37.722656-6.007812 18.988282 0 37.84375 4.492187 55.242188 13.371093 28.992188 14.789063 50.492188 39.984375 60.53125 70.949219 10.042969 30.960938 7.425781 63.976562-7.363281 92.972656-14.789063 28.992188-39.984375 50.488282-70.941407 60.53125zm137.382813 86.246094-12.195313-38.453125 38.453126 12.199219zm0 0" fill="#ff94d4"/><g fill="#ff73c6"><path d="m196.289062 359.203125c-28.992187-14.789063-50.488281-39.988281-60.53125-70.949219-10.039062-30.960937-7.425781-63.980468 7.363282-92.972656 14.792968-28.992188 39.988281-50.492188 70.945312-60.53125 9.429688-3.0625 19.046875-4.9375 28.683594-5.660156-2.980469-.222656-5.964844-.347656-8.957031-.347656-12.648438 0-25.347657 1.992187-37.726563 6.007812-30.957031 10.039062-56.152344 31.539062-70.941406 60.53125-14.792969 28.992188-17.40625 62.011719-7.363281 92.972656 10.042969 30.960938 31.539062 56.160156 60.53125 70.949219 20.148437 10.28125 42.238281 14.671875 64.234375 13.027344-15.917969-1.195313-31.589844-5.554688-46.238282-13.027344zm0 0"/><path d="m504.546875 417.578125c-.355469-7.695313-5.449219-14.136719-12.546875-16.386719 0 0-96.996094-31.730468-97.59375-32.328125l-19.503906-19.507812c5.46875-6.859375 10.394531-14.21875 14.726562-22.027344.035156-.0625.074219-.121094.109375-.183594l82.449219-148.859375c4.816406-8.695312 1.671875-19.648437-7.023438-24.46875-5.730468-3.171875-12.429687-2.871094-17.71875.175782 8.472657 4.898437 11.503907 15.695312 6.742188 24.292968l-82.445312 148.859375c-.035157.0625-.078126.121094-.113282.183594-3.621094 6.527344-7.65625 12.742187-12.078125 18.613281-1.496093 1.984375-1.292969 4.765625.464844 6.523438l16.394531 16.398437c.59375.59375 97.59375 32.328125 97.59375 32.328125 7.097656 2.25 12.191406 8.695313 12.542969 16.386719.238281 5.15625-1.902344 10.144531-5.550781 13.792969l-67.828125 67.832031c-1.121094 1.121094-2.382813 2.066406-3.734375 2.839844 1.101562.640625 2.269531 1.175781 3.492187 1.566406 6.363281 2.046875 13.515625.320313 18.242188-4.40625l67.828125-67.832031c3.644531-3.648438 5.785156-8.636719 5.550781-13.792969zm0 0"/><path d="m418.777344 460.683594 7.851562-7.851563-12.203125-38.433593-10.816406-3.429688c-3.863281-1.226562-7.503906 2.414062-6.277344 6.277344l13.144531 41.414062c1.136719 3.570313 5.652344 4.671875 8.300782 2.023438zm0 0"/><path d="m323.390625 110.042969c-25.277344-12.898438-52.917969-18.636719-80.515625-17.050781 21.515625 1.25 42.738281 6.960937 62.519531 17.050781 37.554688 19.160156 65.402344 51.800781 78.410157 91.910156 1.417968 4.367187 5.160156 18.496094 7.886718 29.46875 1.09375 4.40625 7.023438 5.1875 9.222656 1.214844l5.917969-10.679688c.007813-.058593.015625-.113281.027344-.175781-1.253906-6.65625-2.929687-13.277344-5.054687-19.828125-13.007813-40.109375-40.855469-72.75-78.414063-91.910156zm0 0"/><path d="m44.664062 109.101562 19.542969-19.539062-5.464843-5.464844c-1.953126-1.953125-5.117188-1.953125-7.070313 0l-25.007813 25.007813c-1.136718 1.136719-2.398437 2.070312-3.726562 2.839843 2.777344 1.605469 5.882812 2.429688 9 2.429688 4.605469 0 9.210938-1.757812 12.726562-5.273438zm0 0"/><path d="m95.722656 277.324219c-.796875-2.453125-1.527344-4.914063-2.199218-7.386719-1.183594-4.34375-7.019532-5.078125-9.199219-1.140625l-39.695313 71.671875c-1.640625 2.964844-3.996094 5.28125-6.730468 6.859375v.015625c2.835937 1.632812 5.921874 2.40625 8.96875 2.40625 6.332031 0 12.472656-3.347656 15.757812-9.28125l33.808594-61.039062c-.238282-.699219-.480469-1.398438-.710938-2.105469zm0 0"/><path d="m349.355469 374.730469-4.449219-4.449219c-1.753906-1.753906-4.515625-1.964844-6.503906-.488281-15 11.148437-39.347656 25.601562-56.039063 31.015625-13.09375 4.25-26.46875 6.746094-39.855469 7.519531 2.988282.171875 5.984376.261719 8.984376.261719 16.382812 0 32.839843-2.578125 48.871093-7.78125 18.023438-5.84375 34.53125-14.699219 48.992188-26.074219 0 0 0 0 0-.003906zm0 0"/><path d="m20.214844 12.679688 31.449218 31.449218c1.953126 1.949219 5.117188 1.949219 7.070313 0l5.464844-5.464844-25.984375-25.984374c-5.894532-5.894532-14.84375-6.828126-21.730469-2.84375 1.332031.769531 2.59375 1.703124 3.730469 2.84375zm0 0"/><path d="m94.671875 24.222656c3.203125 7.09375 1.40625 15.464844-4.101563 20.96875l-15.386718 15.390625c-1.949219 1.949219-1.949219 5.117188 0 7.070313l64.261718 64.253906c1.757813 1.757812 4.542969 1.957031 6.527344.460938 2.273438-1.71875 4.597656-3.371094 6.96875-4.964844l-63.292968-63.285156 19.191406-19.191407c6.976562-6.980469 7.441406-18.386719.617187-25.511719-5.886719-6.144531-15.011719-7.175781-22.007812-3.125 2.941406 1.699219 5.539062 4.203126 7.222656 7.933594zm0 0"/></g><path d="m418.332031 511.953125c-10.953125 0-20.894531-7.34375-24.199219-17.765625-11.367187-34.75-28.449218-86.703125-31.617187-95.699219l-13.84375-13.84375c-13.953125 10.089844-29.398437 17.917969-45.996094 23.300781-16.660156 5.40625-33.882812 8.148438-51.183593 8.148438-26.152344 0-51.375-6.101562-74.96875-18.140625-39.34375-20.070313-68.515626-54.265625-82.140626-96.277344-.207031-.644531-.414062-1.296875-.617187-1.945312l-24.578125 44.375c-4.492188 8.109375-13.042969 13.144531-22.320312 13.144531-4.296876 0-8.5625-1.105469-12.339844-3.195312-12.300782-6.8125-16.761719-22.363282-9.949219-34.660157l82.445313-148.855469c.042968-.085937.101562-.179687.160156-.277343 3.175781-5.722657 6.703125-11.28125 10.511718-16.574219l-53.503906-53.507812-14.226562 14.226562c-9.828125 9.832031-26.230469 9.828125-36.058594 0-9.941406-9.941406-9.941406-26.121094 0-36.0625l14.226562-14.226562-20.675781-20.679688c-9.941406-9.945312-9.941406-26.121094 0-36.0625 9.828125-9.832031 26.230469-9.832031 36.058594 0l20.679687 20.675781 14.226563-14.226562c4.816406-4.816407 11.21875-7.46875 18.027344-7.46875 6.8125 0 13.214843 2.652343 18.03125 7.46875 9.832031 9.832031 9.832031 26.234375 0 36.0625l-14.226563 14.230469 53.328125 53.328124c14.226563-10.460937 30.027344-18.550781 47.0625-24.074218 36.859375-11.957032 75.304688-10.839844 111.175781 3.246094 3.855469 1.511718 5.753907 5.867187 4.238282 9.722656-1.511719 3.855468-5.867188 5.753906-9.722656 4.238281-32.597657-12.796875-67.546876-13.8125-101.0625-2.941406-17.46875 5.667969-33.503907 14.289062-47.660157 25.621093-2.984375 2.386719-7.289062 2.148438-9.988281-.554687l-63.28125-63.28125c-2.929688-2.929687-2.929688-7.679687 0-10.609375l19.53125-19.53125c4.046875-4.046875 4.046875-10.804688 0-14.847656-4.09375-4.097656-10.753906-4.097656-14.847656 0l-19.53125 19.53125c-2.929688 2.925781-7.675782 2.925781-10.605469 0l-25.980469-25.984375c-4.046875-4.046875-10.800781-4.046875-14.847656 0-4.09375 4.09375-4.09375 10.753906 0 14.847656l25.980469 25.984375c2.929687 2.929688 2.929687 7.675781 0 10.609375l-19.53125 19.527344c-4.09375 4.09375-4.09375 10.753906 0 14.851562 4.046875 4.046875 10.800781 4.046875 14.847656 0l19.53125-19.535156c2.886719-2.886719 7.71875-2.886719 10.605469 0l63.410156 63.417969c2.683594 2.679687 2.9375 6.945312.597656 9.929687-4.902344 6.257813-9.375 13.011719-13.289062 20.078125-.042969.082032-.101563.175782-.15625.269532l-82.359375 148.699218c-2.566407 4.628906-1.179688 10.648438 3.160156 13.6875 5.039063 3.53125 12.230469 1.863282 15.207031-3.511718l33.816406-61.050782c1.5625-2.820312 4.867188-4.347656 8.027344-3.71875 2.96875.589844 5.34375 2.996094 5.902344 5.972656 1.203125 6.429688 2.832031 12.824219 4.839844 19.007813 12.390625 38.203125 38.914062 69.292969 74.6875 87.542969 21.460937 10.949218 44.390625 16.503906 68.152344 16.5 15.726562 0 31.390624-2.492188 46.558593-7.414063 17.050781-5.53125 32.757813-13.886719 46.675781-24.839843 2.984376-2.351563 7.257813-2.097657 9.941407.589843l19.585937 19.589844c1.457032 1.457031 1.457032 1.457031 7.113282 18.429687 3.0625 9.1875 7.085937 21.378907 11.09375 33.550782 8.011718 24.332031 15.945312 48.589844 15.945312 48.589844 2.339844 7.367187 11.949219 9.820312 17.453125 4.3125l68.121094-68.125c5.46875-5.46875 3.105469-15.101563-4.246094-17.433594-.066406-.019532-24.324219-7.953125-48.652344-15.964844-12.171875-4.007812-24.363281-8.035156-33.546875-11.09375-16.976562-5.660156-16.976562-5.660156-18.433594-7.113281l-19.503906-19.511719c-2.695312-2.699219-2.9375-6.996094-.558594-9.980469 5.207032-6.527343 9.925782-13.589843 14.03125-20.988281.039063-.074219.105469-.1875.164063-.285156l21.371094-38.582032c2.007812-3.621093 6.570312-4.933593 10.195312-2.925781 3.621094 2.007813 4.933594 6.570313 2.925781 10.195313l-21.429687 38.6875c-.046875.089844-.117187.207031-.1875.324218-3.367187 6.066407-7.148437 11.976563-11.261719 17.589844l13.730469 13.734375c8.992187 3.167969 60.949219 20.25 95.753906 31.636719 13.300781 4.214844 20.753907 18.964844 16.445313 32.191406-1.234375 3.800782-3.359375 7.296875-6.1875 10.125l-68.121094 68.128906c-4.824219 4.824219-11.445312 7.445313-18.136719 7.445313zm-35.136719-188.476563c-.011718.023438-.027343.050782-.039062.070313zm43.445313 136.835938c-3.230469 0-6.171875-2.152344-7.148437-5.230469l-12.195313-38.453125c-1.804687-5.6875 3.730469-11.21875 9.414063-9.417968l38.453124 12.195312c5.257813 1.667969 6.945313 8.542969 3.035157 12.453125l-26.253907 26.257813c-1.425781 1.421874-3.339843 2.195312-5.304687 2.195312zm-.671875-34.429688 4.089844 12.90625 8.8125-8.8125zm-174.445312-45.804687c-20.15625 0-40.167969-4.769531-58.640626-14.195313-30.777343-15.699218-53.597656-42.449218-64.257812-75.3125-4.214844-12.992187-6.355469-26.417968-6.371094-39.90625-.003906-4.144531 3.347656-7.503906 7.492188-7.507812h.007812c4.136719 0 7.492188 3.351562 7.5 7.492188.011719 11.917968 1.910156 23.792968 5.636719 35.292968 9.425781 29.054688 29.601563 52.703125 56.804687 66.582032 27.210938 13.882812 58.195313 16.335937 87.246094 6.910156 29.054688-9.421875 52.699219-29.597656 66.578125-56.808594 13.878907-27.207031 16.332031-58.195312 6.910157-87.25-9.425782-29.054688-29.597657-52.699219-56.804688-66.582031-16.324219-8.328125-33.761719-12.550781-51.835938-12.550781-11.957031 0-23.871093 1.898437-35.410156 5.640624-29.050781 9.421876-52.695312 29.597657-66.578125 56.808594-3.910156 7.664063-6.957031 15.730469-9.054687 23.972656-1.019532 4.015626-5.105469 6.4375-9.117188 5.417969-4.015625-1.019531-6.441406-5.101562-5.417968-9.117187 2.371093-9.320313 5.816406-18.433594 10.230468-27.089844 15.699219-30.777344 42.445313-53.597656 75.308594-64.257812 13.035156-4.230469 26.503906-6.375 40.039062-6.375 20.175782 0 40.457032 4.90625 58.652344 14.1875 30.773438 15.703124 53.59375 42.453124 64.253906 75.316406 10.660157 32.867187 7.886719 67.917968-7.816406 98.695312-15.699218 30.777344-42.445312 53.597656-75.308594 64.257813-13.136718 4.261719-26.625 6.378906-40.046874 6.378906zm174.164062-110.351563c-5.628906 0-9.265625-6.238281-6.554688-11.136718l46.488282-83.9375c2.808594-5.0625.96875-11.46875-4.097656-14.273438-5.0625-2.800781-11.464844-.964844-14.269532 4.097656l-33.8125 61.050782c-1.5625 2.820312-4.871094 4.351562-8.03125 3.71875-2.96875-.589844-5.34375-2.996094-5.902344-5.972656-1.203124-6.429688-2.832031-12.824219-4.835937-19.007813-10.871094-33.519531-32.210937-61.21875-61.703125-80.101563-3.488281-2.230468-4.507812-6.871093-2.273438-10.359374 2.230469-3.488282 6.871094-4.507813 10.359376-2.273438 32.453124 20.777344 55.925781 51.246094 67.882812 88.105469.210938.648437.414062 1.296875.617188 1.949219l24.578124-44.375c6.8125-12.300782 22.359376-16.765626 34.660157-9.953126 12.300781 6.816407 16.761719 22.363282 9.953125 34.664063l-46.492188 83.9375c-1.367187 2.472656-3.929687 3.867187-6.566406 3.867187zm0 0"/></svg>