<svg height="512pt" viewBox="0 0 512 512" width="512pt" xmlns="http://www.w3.org/2000/svg"><path d="m499.097656 473.039062-26.597656-26.597656 19.992188-19.992187c7.199218-7.195313 7.199218-18.859375 0-26.058594-7.195313-7.195313-18.859376-7.195313-26.058594 0l-19.992188 19.996094-62.808594-62.808594c5.609376-7.03125 10.65625-14.574219 15.097657-22.578125.035156-.0625.074219-.117188.105469-.179688l84.402343-152.378906c4.933594-8.902344 1.710938-20.113281-7.1875-25.046875-8.90625-4.929687-20.117187-1.710937-25.050781 7.191407l-34.613281 62.492187c-1.285157-6.851563-3.011719-13.667969-5.195313-20.410156-13.320312-41.058594-41.824218-74.46875-80.273437-94.085938-38.449219-19.613281-82.234375-23.082031-123.292969-9.765625-18.890625 6.128906-36.160156 15.484375-51.21875 27.535156l-26.714844-26.71875 19.71875-19.71875c7.195313-7.195312 7.195313-18.863281 0-26.058593-7.195312-7.195313-18.863281-7.195313-26.058594 0l-19.71875 19.71875-32.925781-32.921875 33.355469-.285156c10.175781-.085938 18.355469-8.402344 18.269531-18.578126-.085937-10.125-8.320312-18.269531-18.421875-18.269531-.054687 0-.109375 0-.160156 0l-77.308594.65625c-10.054687.082031-18.183594 8.210938-18.269531 18.265625l-.65625 77.308594c-.085937 10.175781 8.09375 18.496094 18.269531 18.582031h.160156c10.105469 0 18.335938-8.144531 18.421876-18.269531l.285156-33.351562 32.921875 32.921874-20.269531 20.265626c-7.195313 7.199218-7.195313 18.863281 0 26.058593 3.597656 3.597657 8.316406 5.398438 13.03125 5.398438 4.714843 0 9.429687-1.800781 13.027343-5.398438l20.269531-20.265625 26.851563 26.851563c-5.285156 6.738281-10.058594 13.945312-14.28125 21.566406-.019531.042969-.050781.078125-.070313.121094l-84.402343 152.375c-4.929688 8.902343-1.710938 20.113281 7.191406 25.046875 2.828125 1.566406 5.890625 2.308594 8.910156 2.308594 6.484375 0 12.769531-3.425782 16.136719-9.5l34.613281-62.492188c1.285157 6.851562 3.011719 13.671875 5.195313 20.414062 13.320312 41.054688 41.828125 74.46875 80.273437 94.082032 23.082031 11.773437 48.082031 17.730468 73.261719 17.730468 16.769531 0 33.617188-2.640624 50.03125-7.964843 18.445312-5.984375 35.34375-15.042969 50.144531-26.683594l62.898438 62.894531-19.996094 19.996094c-7.195313 7.195312-7.195313 18.859375 0 26.054688 7.101563 7.101562 18.957031 7.101562 26.058594 0l19.992187-19.992188 26.597656 26.597656c7.101563 7.101563 18.957032 7.101563 26.058594 0 7.195313-7.195312 7.195313-18.863281 0-26.058594zm-203.125-97.863281c-31.695312 10.28125-65.496094 7.601563-95.171875-7.539062-29.683593-15.140625-51.6875-40.933594-61.96875-72.625-10.28125-31.695313-7.601562-65.496094 7.539063-95.171875 15.140625-29.679688 40.933594-51.6875 72.625-61.96875 12.671875-4.109375 25.675781-6.148438 38.621094-6.148438 19.4375 0 38.738281 4.597656 56.550781 13.6875 29.683593 15.140625 51.6875 40.933594 61.96875 72.628906 10.28125 31.691407 7.601562 65.492188-7.539063 95.171876-15.140625 29.679687-40.933594 51.683593-72.625 61.964843zm0 0" fill="#ff646f"/><g fill="#ff4755"><path d="m200.800781 367.636719c-29.683593-15.140625-51.6875-40.933594-61.96875-72.625-10.28125-31.695313-7.601562-65.492188 7.539063-95.171875 15.140625-29.679688 40.933594-51.6875 72.625-61.96875 9.722656-3.152344 19.640625-5.074219 29.578125-5.804688-2.992188-.21875-5.996094-.34375-9-.34375-12.945313 0-25.949219 2.039063-38.621094 6.148438-31.691406 10.28125-57.484375 32.289062-72.625 61.96875-15.140625 29.679687-17.816406 63.476562-7.539063 95.171875 10.28125 31.691406 32.289063 57.484375 61.96875 72.625 20.574219 10.496093 43.125 15 65.585938 13.351562-16.367188-1.203125-32.488281-5.667969-47.542969-13.351562zm0 0"/><path d="m312.875 112.582031c38.449219 19.617188 66.953125 53.027344 80.273438 94.085938 1.457031 4.488281 5.273437 18.835937 8.039062 29.941406 1.097656 4.417969 7.039062 5.199219 9.246094 1.214844l5.953125-10.75c-1.285157-6.851563-3.007813-13.667969-5.195313-20.410157-13.320312-41.054687-41.828125-74.46875-80.273437-94.082031-25.816407-13.171875-54.035157-19.046875-82.222657-17.46875 22.089844 1.261719 43.878907 7.113281 64.179688 17.46875zm0 0"/><path d="m83.363281 149.957031 20.269531-20.242187-5.480468-5.480469c-1.957032-1.957031-5.128906-1.957031-7.085938 0l-25.746094 25.722656c-1.21875 1.21875-2.574218 2.214844-4.007812 3.023438 2.792969 1.570312 5.90625 2.375 9.019531 2.375 4.71875 0 9.433594-1.800781 13.03125-5.398438zm0 0"/><path d="m465.195312 182.441406-84.402343 152.378906c-.03125.0625-.070313.117188-.105469.175782-3.726562 6.722656-7.886719 13.121094-12.445312 19.160156-1.5 1.988281-1.292969 4.777344.464843 6.539062l65.164063 65.164063c1.957031 1.957031 5.128906 1.957031 7.085937 0l5.476563-5.476563-62.800782-62.804687c5.605469-7.03125 10.65625-14.574219 15.097657-22.582031.03125-.058594.070312-.113282.105469-.175782l84.402343-152.378906c4.929688-8.902344 1.710938-20.113281-7.191406-25.046875-5.792969-3.207031-12.554687-2.945312-17.9375.066407 8.820313 4.964843 11.996094 16.117187 7.085937 24.980468zm0 0"/><path d="m134.476562 62.066406c3.929688 7.347656 2.289063 16.449219-3.601562 22.339844l-15.683594 15.683594c-1.957031 1.957031-1.957031 5.128906 0 7.085937l27.695313 27.695313c1.765625 1.765625 4.554687 1.964844 6.546875.460937 2.277344-1.71875 4.605468-3.378906 6.972656-4.980469l-26.714844-26.71875 19.375-19.378906c7.117188-7.113281 7.617188-18.730468.699219-26.035156-5.96875-6.296875-15.246094-7.414062-22.40625-3.382812 2.820313 1.585937 5.34375 3.910156 7.117187 7.230468zm0 0"/><path d="m25.945312 122.332031c10.105469 0 18.335938-8.144531 18.421876-18.269531l.285156-33.351562-9.4375-9.4375c-3.144532-3.140626-8.519532-.941407-8.554688 3.503906l-.332031 39.285156c-.058594 6.84375-3.847656 12.773438-9.414063 15.90625 2.625 1.476562 5.648438 2.335938 8.875 2.363281zm0 0"/><path d="m499.097656 473.039062-26.597656-26.597656 19.992188-19.992187c7.195312-7.195313 7.195312-18.859375 0-26.058594-5.976563-5.976563-15.027344-6.96875-22.050782-3.019531 1.433594.804687 2.789063 1.800781 4.007813 3.019531 7.195312 7.199219 7.195312 18.863281 0 26.058594l-16.449219 16.449219c-1.957031 1.957031-1.957031 5.132812 0 7.089843l23.054688 23.050781c7.195312 7.195313 7.195312 18.863282 0 26.058594-1.210938 1.210938-2.570313 2.199219-4.007813 2.996094 7.003906 3.882812 16.160156 2.894531 22.050781-2.996094 7.195313-7.195312 7.195313-18.863281 0-26.058594zm0 0"/><path d="m440.964844 467.023438c-1.957032-1.957032-5.132813-1.957032-7.089844 0l-25.46875 25.46875c-1.210938 1.210937-2.566406 2.199218-4.007812 2.996093 7.003906 3.882813 16.160156 2.894531 22.050781-2.996093l19.992187-19.992188zm0 0"/><path d="m289.296875 410.230469c-13.460937 4.367187-27.21875 6.925781-40.984375 7.707031 2.996094.167969 5.996094.257812 9 .257812 16.765625 0 33.617188-2.640624 50.027344-7.964843 17.820312-5.78125 34.1875-14.4375 48.621094-25.511719.519531-.449219 1.023437-.84375 1.515624-1.167969l-4.46875-4.464843c-1.753906-1.757813-4.527343-1.96875-6.519531-.488282-15.3125 11.390625-40.085937 26.085938-57.191406 31.632813zm0 0"/><path d="m98.003906 284.253906c-.839844-2.597656-1.613281-5.203125-2.320312-7.820312-1.175782-4.355469-7.035156-5.089844-9.21875-1.144532l-40.542969 73.171876c-1.71875 3.109374-4.207031 5.515624-7.09375 7.132812v.007812c2.855469 1.601563 5.949219 2.359376 9.003906 2.359376 6.480469 0 12.769531-3.425782 16.132813-9.5l34.625-62.484376c-.195313-.574218-.398438-1.148437-.585938-1.722656zm0 0"/><path d="m70.707031 44.652344.011719.011718h.011719zm0 0"/><path d="m61.160156 53.277344 29.90625 29.789062c1.960938 1.953125 5.128906 1.949219 7.082032-.003906l5.484374-5.484375-32.914062-32.914063-6.066406.050782c-4.449219.039062-6.644532 5.421875-3.492188 8.5625zm0 0"/><path d="m103.910156 7.519531c-.054687 0-.109375 0-.160156 0l-15.746094.132813c9.101563 1.054687 16.203125 8.738281 16.285156 18.136718.082032 10.105469-7.984374 18.53125-18.0625 18.730469l17.835938-.148437c10.175781-.085938 18.355469-8.40625 18.269531-18.582032-.085937-10.125-8.320312-18.269531-18.421875-18.269531zm0 0"/><path d="m86.019531 44.53125c.070313 0 .136719-.007812.207031-.011719l-.238281.003907zm0 0"/></g><path d="m486.066406 512c-6.640625 0-13.285156-2.527344-18.34375-7.585938l-21.28125-21.28125-14.675781 14.675782c-9.9375 9.9375-26.757813 9.933594-36.691406 0-10.003907-10-10-26.691406 0-36.6875l14.679687-14.679688-52.957031-52.953125c-14.296875 10.351563-30.121094 18.375-47.136719 23.894531-17.042968 5.527344-34.652344 8.332032-52.347656 8.332032-26.75 0-52.546875-6.242188-76.675781-18.554688-40.238281-20.523437-70.070313-55.492187-84.011719-98.460937-.25-.777344-.5-1.5625-.742188-2.347657l-25.339843 45.753907c-4.925781 8.894531-15.09375 14.238281-25.214844 13.25-3.515625-.339844-6.960937-1.414063-10.050781-3.128907-12.515625-6.929687-17.054688-22.75-10.125-35.261718l84.402344-152.378906c.046874-.082032.101562-.175782.160156-.273438 3.273437-5.898438 6.90625-11.621094 10.835937-17.070312l-16.917969-16.917969-14.953124 14.949219c-10 10-26.6875 10.003906-36.691407 0-10-10-10-26.6875 0-36.6875l14.953125-14.953126-14.925781-14.925781-.128906 15.417969c-.121094 14.183594-11.757813 25.722656-25.941407 25.726562l-.296874-.003906c-14.226563-.121094-25.769532-11.855468-25.648438-26.160156l.65625-77.308594c.117188-14.066406 11.65625-25.605468 25.71875-25.722656l77.535156-.65625c14.183594 0 25.820313 11.539062 25.9375 25.722656.121094 14.304688-11.417968 26.042969-25.722656 26.164063l-15.417969.128906 14.925781 14.925781 14.402344-14.402344c10-10 26.6875-10 36.691406 0 10 10 10 26.6875 0 36.691407l-14.40625 14.402343 16.742188 16.738282c14.578125-10.738282 30.777344-19.035156 48.246094-24.703125 38.464844-12.480469 80.109375-10.792969 117.253906 4.757812 3.828125 1.605469 5.632812 6.007813 4.03125 9.839844-1.605469 3.832031-6.007812 5.636719-9.839844 4.03125-33.824218-14.160156-71.757812-15.695313-106.808594-4.328125-17.898437 5.808594-34.332031 14.640625-48.839843 26.25-2.992188 2.394531-7.304688 2.15625-10.015625-.550781l-26.71875-26.71875c-2.933594-2.9375-2.933594-7.695313 0-10.632813l19.722656-19.71875c4.484375-4.488281 4.121094-12.070312-.757812-16.117187-4.273438-3.542969-10.746094-3.234375-14.671876.691406l-19.71875 19.71875c-2.933593 2.933594-7.695312 2.933594-10.628906 0l-32.921875-32.921875c-4.625-4.621094-1.269531-12.777344 5.25-12.835938l33.351563-.28125c6.015625-.050781 10.867187-4.988281 10.816406-11-.050781-5.964843-4.941406-10.816406-10.902344-10.816406l-77.40625.65625c-5.914062.050782-10.765625 4.902344-10.816406 10.816406l-.652344 77.304688c-.050781 6.015625 4.800782 10.949219 10.816406 11 6.054688 0 10.949219-4.847656 11-10.8125l.28125-33.355469c.054688-6.515625 8.210938-9.871093 12.832032-5.25l32.925781 32.921875c2.890625 2.898438 2.890625 7.738282 0 10.632813l-20.269531 20.269531c-4.253906 4.25-4.253906 11.171875 0 15.421875 4.207031 4.207031 11.222656 4.207031 15.429687 0l20.265625-20.265625c2.890625-2.894531 7.738282-2.894531 10.628906 0l26.851563 26.851562c2.691406 2.6875 2.945313 6.960938.601563 9.953126-5.027344 6.414062-9.609376 13.335937-13.617188 20.574218-.046875.082032-.101562.175782-.160156.269532l-84.316406 152.222656c-2.914063 5.265625-1.003907 11.914062 4.257812 14.828125 5.203125 2.882812 11.949219.945312 14.828125-4.253907l34.617187-62.492187c1.527344-2.765625 4.796876-4.3125 7.902344-3.757813 3.019532.539063 5.496094 3 6.0625 6.015626 1.230469 6.585937 2.898438 13.136718 4.957032 19.476562 12.695312 39.148438 39.878906 71.003906 76.539062 89.707031 21.992188 11.21875 45.488281 16.910157 69.84375 16.90625 16.113281 0 32.167969-2.554687 47.707031-7.597656 17.46875-5.664063 33.558594-14.222656 47.820313-25.441406 2.992187-2.351563 7.269531-2.097657 9.964844.59375l62.894531 62.898437c2.894531 2.894532 2.894531 7.734375 0 10.632813l-19.996094 19.992187c-4.203125 4.199219-4.207031 11.222656 0 15.425782 4.144531 4.132812 11.285156 4.140624 15.425781 0l19.996094-19.996094c2.933594-2.933594 7.695312-2.933594 10.632812 0l26.59375 26.597656c4.179688 4.179688 11.246094 4.183594 15.425782 0 4.253906-4.25 4.253906-11.171875 0-15.425781l-26.597656-26.59375c-2.933594-2.9375-2.933594-7.699219 0-10.632813l19.996093-19.996094c4.203125-4.203124 4.207031-11.21875 0-15.421874-4.253906-4.253907-11.171875-4.257813-15.425781 0l-19.992188 19.992187c-2.898437 2.894531-7.738281 2.894531-10.636718 0l-62.804688-62.808594c-2.707031-2.707031-2.949218-7.011719-.558594-10.003906 5.34375-6.699219 10.1875-13.945313 14.394532-21.539063.070312-.121093.125-.210937.175781-.296874l22.910156-41.359376c2.011719-3.632812 6.585938-4.945312 10.21875-2.933593 3.632813 2.011719 4.945313 6.585937 2.933594 10.21875l-22.980469 41.484375c-.066406.125-.125.21875-.175781.304687-3.484375 6.277344-7.386719 12.363281-11.628906 18.148438l52.835937 52.835937 14.675782-14.675781c10-10 26.6875-10 36.691406 0 10 10 10 26.691406 0 36.6875l-14.675782 14.679687 21.28125 21.28125c10.113282 10.113282 10.113282 26.574219 0 36.6875-5.058593 5.058594-11.703124 7.585938-18.347656 7.585938zm-363.339844-330.160156-.035156.0625c.011719-.019532.023438-.042969.035156-.0625zm134.617188 207.007812c-20.609375 0-41.070312-4.875-59.960938-14.511718-31.46875-16.054688-54.804687-43.402344-65.703124-77.003907-4.429688-13.65625-6.621094-27.765625-6.511719-41.945312.03125-4.148438 3.441406-7.480469 7.578125-7.457031 4.152344.03125 7.492187 3.421874 7.457031 7.574218-.09375 12.558594 1.847656 25.070313 5.777344 37.1875 9.664062 29.785156 30.34375 54.023438 58.234375 68.25 27.890625 14.230469 59.65625 16.746094 89.4375 7.085938 29.78125-9.664063 54.019531-30.34375 68.25-58.230469 14.226562-27.894531 16.742187-59.65625 7.082031-89.4375-9.660156-29.785156-30.339844-54.023437-58.234375-68.25-16.730469-8.539063-34.609375-12.867187-53.132812-12.867187-12.261719 0-24.476563 1.945312-36.300782 5.78125-29.785156 9.660156-54.019531 30.34375-68.25 58.234374-3.933594 7.707032-7.011718 15.808594-9.160156 24.085938-1.039062 4.019531-5.144531 6.441406-9.160156 5.394531-4.019532-1.042969-6.433594-5.144531-5.394532-9.164062 2.421876-9.335938 5.890626-18.46875 10.320313-27.148438 16.054687-31.46875 43.402344-54.800781 77.003906-65.703125 13.328125-4.324218 27.101563-6.515625 40.941407-6.515625 20.628906 0 41.363281 5.019531 59.96875 14.507813 31.46875 16.054687 54.800781 43.402344 65.699218 77.003906 10.902344 33.601562 8.0625 69.4375-7.988281 100.910156-16.058594 31.46875-43.402344 54.800782-77.007813 65.699219-13.429687 4.355469-27.222656 6.519531-40.945312 6.519531zm179.027344-114.285156c-5.640625 0-9.289063-6.253906-6.566406-11.164062l46.859374-84.597657c2.914063-5.261719 1.003907-11.914062-4.257812-14.828125-5.261719-2.914062-11.914062-1.003906-14.828125 4.257813l-34.613281 62.492187c-1.535156 2.769532-4.644532 4.285156-7.777344 3.777344-3.128906-.503906-5.605469-2.917969-6.1875-6.035156-1.238281-6.589844-2.90625-13.144532-4.960938-19.476563-10.960937-33.792969-32.355468-61.871093-61.875-81.203125-3.472656-2.273437-4.445312-6.933594-2.171874-10.40625 2.277343-3.476562 6.9375-4.445312 10.410156-2.171875 32.417968 21.230469 55.910156 52.054688 67.941406 89.140625.253906.78125.5 1.5625.742188 2.347656l25.339843-45.75c6.929688-12.515624 22.753907-17.054687 35.265625-10.128906 12.515625 6.933594 17.054688 22.753906 10.125 35.269532l-46.859375 84.597656c-1.375 2.476562-3.941406 3.878906-6.585937 3.878906zm0 0"/></svg>