<svg height="512pt" viewBox="-93 0 512 512" width="512pt" xmlns="http://www.w3.org/2000/svg"><path d="m318.988281 163.277344c0-85.863282-69.851562-155.714844-155.710937-155.714844-85.863282 0-155.714844 69.851562-155.714844 155.714844 0 66.726562 42.191406 123.773437 101.292969 145.890625-.007813.238281-.035157.46875-.035157.707031v104.03125h-27.039062c-10.023438 0-18.152344 8.125-18.152344 18.152344 0 10.023437 8.128906 18.152344 18.152344 18.152344h27.039062v36.074218c0 10.027344 8.125 18.152344 18.152344 18.152344 10.023438 0 18.152344-8.125 18.152344-18.152344v-168.359375c5.957031.695313 12.011719 1.0625 18.152344 1.0625 6.492187 0 12.890625-.402343 19.175781-1.179687v165.089844c0 10.027343 8.128906 18.152343 18.152344 18.152343 5.183593 0 9.847656-2.183593 13.15625-5.667969l52.917969-52.03125c7.148437-7.027343 7.246093-18.519531.21875-25.667968-7.027344-7.148438-18.519532-7.246094-25.671876-.214844l-22.46875 22.089844v-130.792969c58.542969-22.402344 100.230469-79.164063 100.230469-145.488281zm-275.121093 0c0-65.84375 53.566406-119.410156 119.410156-119.410156 65.839844 0 119.410156 53.566406 119.410156 119.410156 0 65.839844-53.570312 119.410156-119.410156 119.410156-65.84375 0-119.410156-53.570312-119.410156-119.410156zm0 0" fill="#ffe55a"/><g fill="#ffd500"><path d="m126.972656 486.285156c0 6.714844-3.65625 12.5625-9.074218 15.703125 3.148437 1.824219 6.878906 2.75 10.863281 2.359375 9.367187-.910156 16.363281-9.066406 16.363281-18.476562v-167.945313c-4.265625 0-8.488281-.179687-12.667969-.519531-2.949219-.242188-5.484375 2.058594-5.484375 5.019531zm0 0"/><path d="m163.277344 7.5625c-3.046875 0-6.074219.097656-9.078125.273438 81.652343 4.714843 146.636719 72.625 146.636719 155.441406 0 65.140625-40.210938 121.058594-97.109376 144.253906-1.902343.773438-3.121093 2.644531-3.121093 4.695312v133.148438c0 4.472656 5.386719 6.730469 8.578125 3.59375l9.574218-9.414062v-130.789063c58.542969-22.402344 100.230469-79.164063 100.230469-145.488281 0-85.863282-69.851562-155.714844-155.710937-155.714844zm0 0"/><path d="m154.199219 44.210938c-2.996094-.226563-6.023438-.34375-9.074219-.34375-65.84375 0-119.410156 53.566406-119.410156 119.410156 0 65.839844 53.566406 119.410156 119.410156 119.410156 3.050781 0 6.078125-.117188 9.074219-.34375-61.617188-4.652344-110.332031-56.277344-110.332031-119.070312 0-62.785157 48.714843-114.410157 110.332031-119.0625zm0 0"/><path d="m244.878906 414.710938c1.382813.800781 2.691406 1.777343 3.863282 2.972656 7.03125 7.148437 6.933593 18.640625-.214844 25.667968l-52.917969 52.03125c-1.195313 1.261719-2.574219 2.34375-4.082031 3.21875 2.671875 1.550782 5.765625 2.449219 9.078125 2.449219 5.183593 0 9.847656-2.183593 13.15625-5.667969l52.917969-52.03125c7.148437-7.027343 7.246093-18.519531.214843-25.667968-5.925781-6.027344-15.019531-7.023438-22.015625-2.972656zm0 0"/></g><path d="m126.972656 512c-14.179687 0-25.714844-11.535156-25.714844-25.714844v-28.515625h-19.476562c-14.179688 0-25.714844-11.535156-25.714844-25.714843 0-14.175782 11.535156-25.714844 25.714844-25.714844h19.476562v-92.03125c-28.714843-11.8125-53.316406-31.433594-71.386718-56.992188-19.542969-27.640625-29.871094-60.160156-29.871094-94.042968 0-90.027344 73.246094-163.273438 163.277344-163.273438 32.664062 0 64.214844 9.65625 91.234375 27.929688 3.460937 2.339843 4.371093 7.039062 2.03125 10.5-2.339844 3.460937-7.042969 4.371093-10.503907 2.03125-24.507812-16.574219-53.128906-25.335938-82.761718-25.335938-81.691406 0-148.152344 66.460938-148.152344 148.152344 0 30.734375 9.371094 60.234375 27.097656 85.308594 17.339844 24.527343 41.300782 43.027343 69.285156 53.5 3.050782 1.140624 5.027344 4.109374 4.90625 7.367187-.007812.171875-.03125 104.453125-.03125 104.453125 0 4.175781-3.386718 7.5625-7.5625 7.5625h-27.039062c-5.839844 0-10.589844 4.75-10.589844 10.585938 0 5.839843 4.75 10.589843 10.589844 10.589843h27.039062c4.175782 0 7.5625 3.386719 7.5625 7.5625v36.078125c0 5.839844 4.75 10.585938 10.589844 10.585938 5.835938 0 10.585938-4.75 10.585938-10.585938v-168.359375c0-4.453125 4.011718-8.035156 8.441406-7.511719 11.875 1.386719 23.789062 1.332032 35.527344-.113281 4.445312-.546875 8.488281 3.03125 8.488281 7.507813v54.230468c0 4.179688-3.386719 7.5625-7.5625 7.5625s-7.5625-3.382812-7.5625-7.5625v-45.902343c-7.398437.527343-14.761719.550781-22.203125.066406v160.082031c0 14.179688-11.535156 25.714844-25.714844 25.714844zm73.632813-3.386719c-14.179688 0-25.714844-11.535156-25.714844-25.714843v-82.058594c0-4.179688 3.386719-7.5625 7.5625-7.5625s7.5625 3.386718 7.5625 7.5625v82.058594c0 4.117187 2.480469 7.953124 6.226563 9.648437 4.328124 1.960937 8.9375.671875 12.214843-2.558594l52.917969-52.027343c4.164062-4.09375 4.21875-10.8125.128906-14.976563-4.050781-4.117187-10.859375-4.175781-14.976562-.125l-22.46875 22.089844c-4.6875 4.613281-12.863282 1.167969-12.863282-5.390625v-130.792969c0-3.136719 1.933594-5.945313 4.859376-7.066406 27.726562-10.605469 51.441406-29.125 68.582031-53.550781 17.523437-24.976563 26.789062-54.324219 26.789062-84.871094 0-39.507813-15.429687-76.691406-43.445312-104.707032-2.953125-2.953124-2.953125-7.742187 0-10.699218 2.953125-2.949219 7.742187-2.949219 10.699219 0 30.871093 30.875 47.871093 71.859375 47.871093 115.402344 0 33.675781-10.210937 66.027343-29.53125 93.5625-17.871093 25.464843-42.234375 45.101562-70.699219 57.042968v107.636719l9.601563-9.441406c10-9.828125 26.539063-9.691407 36.367187.308593 9.941407 10.109376 9.800782 26.421876-.308593 36.363282l-52.832031 51.945312c-4.902344 5.113282-11.480469 7.921875-18.542969 7.921875zm-37.328125-218.363281c-70.015625 0-126.972656-56.960938-126.972656-126.972656 0-4.179688 3.382812-7.5625 7.5625-7.5625 4.175781 0 7.5625 3.382812 7.5625 7.5625 0 61.671875 50.171874 111.84375 111.84375 111.84375 61.671874 0 111.847656-50.171875 111.847656-111.84375s-50.175782-111.847656-111.847656-111.847656c-50.964844 0-95.496094 34.457031-108.285157 83.792968-1.046875 4.046875-5.179687 6.472656-9.21875 5.425782-4.042969-1.050782-6.472656-5.175782-5.421875-9.21875 14.519532-56.007813 65.070313-95.125 122.929688-95.125 70.011718 0 126.972656 56.957031 126.972656 126.972656 0 70.011718-56.960938 126.972656-126.972656 126.972656zm0 0"/></svg>