<svg id="Capa_1" transform="rotate(45)" enable-background="new 0 0 512 512" height="512" viewBox="0 0 512 512" width="512" xmlns="http://www.w3.org/2000/svg"><path d="m411.7269897 163.2910004c0-85.8680038-69.8589783-155.727005-155.7269897-155.727005s-155.7269897 69.8589935-155.7269897 155.727005c0 79.7279968 60.2280045 145.641983 137.5740051 154.6640167v125.0690002l-22.4710083-22.0939941c-7.1490021-7.0299988-18.6430054-6.9330139-25.6710052.2170105-7.029007 7.1489868-6.9320068 18.6419983.2169952 25.67099l53.352005 52.4570007c6.9700012 6.8540039 18.4839935 6.8540039 25.4539948 0l53.3519897-52.4570007c7.1489868-7.0289917 7.2460022-18.5230103.2170105-25.67099-7.0299988-7.1499939-18.5230103-7.2470093-25.67099-.2170105l-22.4710083 22.0939941v-125.0690307c77.3439941-9.0209961 137.5719909-74.9359894 137.5719909-154.6639862zm-275.1479949 0c0-65.8479996 53.5720062-119.4210052 119.4210052-119.4210052s119.42099 53.5720024 119.42099 119.4210052-53.571991 119.4210052-119.42099 119.4210052-119.4210052-53.5720062-119.4210052-119.4210052z" fill="#8bcaff"/><g fill="#60b8ff"><path d="m246.9230042 44.2130013c-2.9960022-.2260017-6.022995-.3429985-9.0769958-.3429985-65.848999 0-119.4209976 53.5719986-119.4209976 119.4209976s53.5719986 119.4210052 119.4209976 119.4210052c3.0529938 0 6.0800018-.1159973 9.0769958-.3429871-61.625-4.6530151-110.3439941-56.2830048-110.3439941-119.07901-.0000153-62.7940063 48.7199859-114.4230079 110.3439941-119.0770072z"/><path d="m300.2780151 418.1719971c1.3829956.8009949 2.6900024 1.7799988 3.8649902 2.9750061 7.0289917 7.1489868 6.9320068 18.6419983-.2170105 25.67099l-53.352005 52.4570007c-1.1109924 1.0920105-2.345993 1.9899902-3.651001 2.7340088 6.8829956 3.9259949 15.9440155 3.0270081 21.8040009-2.7340088l53.3519897-52.4570007c7.1489868-7.0289917 7.2460022-18.5230103.2170105-25.67099-5.9279784-6.0310059-15.0239867-7.0230103-22.0179748-2.9750061z"/><path d="m256 7.5640001c-3.0469971 0-6.0720062.098-9.0769958.2709999 81.6589966 4.717 146.651001 72.6350021 146.651001 155.4559937 0 78.2429962-58.0050049 143.1820221-133.2690125 154.1009979-2.472992.3590155-4.3049927 2.4820013-4.3049927 4.9809942v113.0419922c0 9.4639893 11.4049988 14.2449951 18.1530151 7.6099854v-125.0699768c77.3460083-9.0220032 137.5740051-74.9360046 137.5740051-154.6640015-.0000305-85.8679886-69.8590087-155.726985-155.7270202-155.726985z"/></g><path d="m309.5690002 408.1570129c-6.8580017-.0490112-13.3500061 2.5620117-18.2470093 7.3789978l-9.605011 9.4440002v-43.2300109c0-4.177002-3.3859863-7.5639954-7.5639954-7.5639954s-7.5639954 3.3859863-7.5639954 7.5639954v61.2730103c0 6.5599976 8.177002 10.0050049 12.8670044 5.3940125l22.4719849-22.0950012c4.1109924-4.0440063 10.9370117-3.9930115 14.9750061.1270142 4.0419922 4.1239929 3.9930115 10.9230042-.1260071 14.9750061l-53.3540039 52.4570007c-4.0239868 3.9559937-10.822998 3.9570007-14.8470001 0l-53.352005-52.4570007c-4.1159973-4.0469971-4.1730042-10.8590088-.125-14.9760132 4.0449982-4.1130066 10.8580017-4.1719971 14.973999-.1260071l22.4710083 22.0939941c4.6900024 4.6099854 12.8670044 1.1679993 12.8670044-5.3940125v-125.0670166c0-3.8389893-2.875-7.0679932-6.6869965-7.5130005-74.6179962-8.7030029-130.8869934-71.9639893-130.8869934-147.151001 0-81.697998 66.4660034-148.1629944 148.1629944-148.1629944 29.6380157 0 58.2599945 8.7609997 82.7710114 25.3339996 3.4630127 2.3419991 8.1640015 1.4319992 10.5029907-2.0289993 2.3399963-3.4609985 1.4309998-8.1630001-2.0289917-10.5030003-27.0239867-18.2719907-58.5759887-27.9299907-91.244995-27.9299907-90.0390015 0-163.2910004 73.2519989-163.2910004 163.2910004 0 80.6029968 58.6790009 148.7700043 137.5740051 161.2580109v100.4299927l-9.6040039-9.4429932c-4.845993-4.7640076-11.2380066-7.3800049-18.0249939-7.3800049-.0740051 0-.1490021 0-.2230072.0010071-6.8699951.0580139-13.3059998 2.7879944-18.1199951 7.6860046-4.8170013 4.8980103-7.4380035 11.3789978-7.3800049 18.2479858s2.7879944 13.3049927 7.6869965 18.1210022l53.3509979 52.4559937c4.9720001 4.8880005 11.5 7.3320007 18.0299988 7.3320007 6.5289917 0 13.0599976-2.4440002 18.0289917-7.3320007l53.3529968-52.4570007c4.8989868-4.8160095 7.6279907-11.2520142 7.6860046-18.1210022s-2.5629883-13.348999-7.3789978-18.2470093c-4.8150024-4.8979798-11.2499999-7.6279908-18.118988-7.6859742z"/><path d="m371.2099915 47.6759987c-2.9599915-2.9490013-7.7489929-2.9399986-10.696991.019001-2.9490051 2.9580002-2.9410095 7.7480011.0190125 10.6969986 28.1359863 28.0390015 43.631012 65.2929993 43.631012 104.8999939 0 75.1869965-56.2690125 138.447998-130.8869934 147.151001-3.8129883.4450073-6.6870117 3.6749878-6.6870117 7.5130005v33.5400085c0 4.177002 3.3859863 7.5639954 7.5639954 7.5639954s7.5639954-3.3869934 7.5639954-7.5639954v-26.9460144c78.894989-12.4880066 137.5740051-80.6560059 137.5740051-161.2579956-.0000307-43.6579895-17.0760195-84.7169953-48.0810243-115.6159935z"/><path d="m256 275.1480103c-61.678009 0-111.8569946-50.1790009-111.8569946-111.8569946 0-4.177002-3.3860016-7.5639954-7.5639954-7.5639954s-7.5639954 3.3869934-7.5639954 7.5639954c0 70.019989 56.9649963 126.9849854 126.9849854 126.9849854s126.9849854-56.9649963 126.9849854-126.9850006-56.9649964-126.9850007-126.9850007-126.9850007c-57.9389954 0-108.5090027 39.1829987-122.9789886 95.2860107-1.0429993 4.0449982 1.3910065 8.1699982 5.4360046 9.2129974 4.0500031 1.0440063 8.1699982-1.3899994 9.2140045-5.4349976 12.7439881-49.4200134 57.2910004-83.9360122 108.3289948-83.9360122 61.678009 0 111.8569946 50.1790009 111.8569946 111.8570023s-50.1789856 111.8570099-111.8569946 111.8570099z"/></svg>