<svg height="512pt" viewBox="-93 0 512 512" width="512pt" xmlns="http://www.w3.org/2000/svg"><path d="m181.429688 194.074219v-168.359375c0-10.023438-8.128907-18.152344-18.152344-18.152344-10.027344 0-18.152344 8.128906-18.152344 18.152344v168.359375c-77.339844 9.023437-137.5625 74.929687-137.5625 154.648437 0 85.863282 69.851562 155.714844 155.714844 155.714844 85.859375 0 155.710937-69.851562 155.710937-155.714844 0-79.71875-60.222656-145.628906-137.558593-154.648437zm101.257812 154.648437c0 65.84375-53.570312 119.410156-119.410156 119.410156-65.84375 0-119.410156-53.566406-119.410156-119.410156 0-65.839844 53.566406-119.410156 119.410156-119.410156 65.839844 0 119.410156 53.570312 119.410156 119.410156zm0 0" fill="#ff646f"/><path d="m154.199219 229.65625c-2.996094-.226562-6.023438-.34375-9.074219-.34375-65.84375 0-119.410156 53.570312-119.410156 119.410156 0 65.84375 53.566406 119.410156 119.410156 119.410156 3.050781 0 6.078125-.117187 9.074219-.34375-61.617188-4.652343-110.332031-56.273437-110.332031-119.066406 0-62.789062 48.714843-114.414062 110.332031-119.066406zm0 0" fill="#ff4755"/><path d="m181.429688 194.074219v-167.945313c0-9.410156-7-17.566406-16.367188-18.480468-3.980469-.386719-7.714844.539062-10.863281 2.363281 5.421875 3.140625 9.078125 8.988281 9.078125 15.703125v163.941406c0 2.5 1.828125 4.621094 4.300781 4.980469 75.261719 10.917969 133.257813 75.851562 133.257813 154.085937 0 82.8125-64.984376 150.726563-146.636719 155.441406 3.003906.175782 6.03125.273438 9.078125.273438 85.859375 0 155.710937-69.851562 155.710937-155.714844 0-79.71875-60.222656-145.628906-137.558593-154.648437zm0 0" fill="#ff4755"/><path d="m163.277344 512c-90.03125 0-163.277344-73.246094-163.277344-163.277344 0-80.59375 58.675781-148.753906 137.5625-161.242187v-161.765625c0-14.179688 11.535156-25.714844 25.714844-25.714844 14.175781 0 25.714844 11.535156 25.714844 25.714844v70.179687c0 4.175781-3.386719 7.5625-7.5625 7.5625-4.179688 0-7.566407-3.386719-7.566407-7.5625v-70.179687c0-5.835938-4.75-10.585938-10.585937-10.585938-5.839844 0-10.589844 4.75-10.589844 10.585938v168.359375c0 3.839843-2.875 7.066406-6.6875 7.511719-74.609375 8.703124-130.875 71.960937-130.875 147.140624 0 81.6875 66.460938 148.148438 148.148438 148.148438 31.441406 0 61.492187-9.765625 86.90625-28.234375 3.378906-2.457031 8.109374-1.710937 10.566406 1.667969 2.453125 3.378906 1.707031 8.109375-1.671875 10.566406-28.015625 20.363281-61.140625 31.125-95.796875 31.125zm0-36.304688c-70.015625 0-126.972656-56.957031-126.972656-126.972656 0-4.175781 3.382812-7.5625 7.5625-7.5625 4.175781 0 7.5625 3.386719 7.5625 7.5625 0 61.671875 50.171874 111.847656 111.84375 111.847656 61.671874 0 111.847656-50.175781 111.847656-111.847656s-50.175782-111.84375-111.847656-111.84375c-50.894532 0-95.410157 34.394532-108.246094 83.648438-1.054688 4.042968-5.1875 6.464844-9.226563 5.410156-4.042969-1.050781-6.464843-5.183594-5.410156-9.226562 14.574219-55.910157 65.105469-94.960938 122.882813-94.960938 70.015624 0 126.972656 56.960938 126.972656 126.972656.003906 70.015625-56.957032 126.972656-126.96875 126.972656zm114.933594-14.460937c-6.464844 0-9.917969-7.921875-5.578126-12.667969 25.015626-27.375 38.792969-62.832031 38.792969-99.839844 0-75.179687-56.265625-138.4375-130.875-147.136718-3.8125-.445313-6.6875-3.675782-6.6875-7.515625v-67.925781c0-4.179688 3.386719-7.5625 7.5625-7.5625 4.179688 0 7.5625 3.382812 7.5625 7.5625v61.335937c78.890625 12.484375 137.5625 80.648437 137.5625 161.242187 0 40.792969-15.183593 79.878907-42.753906 110.046876-1.492187 1.628906-3.535156 2.460937-5.585937 2.460937zm0 0"/></svg>