<svg height="512pt" viewBox="-138 0 512 512" width="512pt" xmlns="http://www.w3.org/2000/svg"><path d="m229.429688 251.527344c0-55.097656-40.363282-100.9375-93.074219-109.519532v-43.902343l2.796875 1.859375c3.046875 2.03125 6.492187 3 9.898437 3 5.789063 0 11.464844-2.800782 14.914063-7.980469 5.476562-8.226563 3.246094-19.335937-4.980469-24.8125l-8.226563-5.472656 8.226563-5.476563c8.226563-5.476562 10.457031-16.585937 4.980469-24.8125-5.476563-8.226562-16.585938-10.457031-24.8125-4.980468l-2.796875 1.859374v-5.898437c0-9.882813-8.011719-17.894531-17.894531-17.894531-9.882813 0-17.894532 8.011718-17.894532 17.894531v5.898437l-2.792968-1.859374c-8.226563-5.476563-19.335938-3.246094-24.8125 4.980468-5.476563 8.226563-3.246094 19.335938 4.980468 24.8125l8.222656 5.476563-8.222656 5.472656c-8.226562 5.476563-10.457031 16.585937-4.980468 24.8125 3.445312 5.179687 9.125 7.980469 14.910156 7.980469 3.40625 0 6.851562-.972656 9.902344-3l2.792968-1.859375v43.902343c-52.707031 8.582032-93.074218 54.421876-93.074218 109.519532 0 55.09375 40.367187 100.933594 93.074218 109.519531v18.917969h-12.679687c-9.882813 0-17.898438 8.011718-17.898438 17.894531s8.015625 17.898437 17.898438 17.898437h12.679687v28.164063l-5.652344-5.558594c-7.046874-6.929687-18.378906-6.835937-25.308593.210938-6.925781 7.046875-6.832031 18.378906.214843 25.308593l36.09375 35.488282c6.855469 6.742187 18.238282 6.734375 25.09375 0l36.09375-35.488282c7.046876-6.929687 7.144532-18.261718.214844-25.308593-6.929687-7.042969-18.257812-7.140625-25.304687-.210938l-5.65625 5.558594v-28.164063h12.683593c9.882813 0 17.894532-8.015624 17.894532-17.898437s-8.011719-17.894531-17.894532-17.894531h-12.683593v-18.917969c52.710937-8.585937 93.074219-54.425781 93.074219-109.519531zm-110.96875-75.179688c35.289062 0 64.960937 24.441406 73.011718 57.285156h-146.019531c8.050781-32.84375 37.722656-57.285156 73.007813-57.285156zm-73.007813 93.074219h146.019531c-8.050781 32.839844-37.722656 57.285156-73.007812 57.285156-35.289063 0-64.960938-24.445312-73.011719-57.285156zm0 0" fill="#00f3a7"/><g fill="#00e49d"><path d="m118.371094 25.390625v8.019531c0 3.90625 4.285156 6.300782 7.613281 4.253906l10.371094-6.375v-5.394531c0-9.433593-7.089844-17.617187-16.492188-18.34375-3.808593-.296875-7.375.625-10.394531 2.386719 5.316406 3.101562 8.902344 8.851562 8.902344 15.453125zm0 0"/><path d="m147.070312 36.292969c4.109376 8.15625 1.132813 18.132812-6.472656 23.195312l-1.578125 1.050781c-2.96875 1.976563-2.96875 6.339844 0 8.316407l1.585938 1.054687c7.921875 5.277344 10.742187 15.847656 5.984375 24.089844-1.636719 2.828125-3.90625 5.023438-6.511719 6.535156 2.8125 1.636719 5.90625 2.433594 8.972656 2.433594 5.878907 0 11.648438-2.894531 15.078125-8.238281 5.316406-8.28125 2.667969-19.355469-5.527344-24.808594l-7.84375-5.222656 7.851563-5.230469c8.273437-5.503906 10.863281-16.730469 5.378906-25.019531-5.265625-7.957031-15.78125-10.308594-23.910156-5.570313 2.871094 1.667969 5.34375 4.140625 6.992187 7.414063zm0 0"/><path d="m34.148438 233.632812h11.304687c7.355469-30.007812 32.769531-52.992187 64.015625-56.738281-2.949219-.355469-5.949219-.546875-8.992188-.546875-32.855468 0-60.84375 21.191406-71.042968 50.625-1.128906 3.253906 1.269531 6.660156 4.714844 6.660156zm0 0"/><path d="m136.355469 142.007812v-43.902343l-10.074219-7.230469c-3.308594-2.371094-7.910156-.011719-7.910156 4.058594v42.914062c0 2.378906 1.675781 4.421875 4.007812 4.890625 50.730469 10.195313 89.066406 55.097657 89.066406 108.789063s-38.332031 98.59375-89.066406 108.789062c-2.332031.46875-4.007812 2.511719-4.007812 4.886719v9.769531c0 2.757813 2.238281 4.996094 4.996094 4.996094h7.257812c9.703125 0 17.96875 7.542969 18.3125 17.242188.359375 10.179687-7.785156 18.546874-17.882812 18.546874h-7.6875c-2.757813 0-4.996094 2.234376-4.996094 4.996094v28.804688c0 4.414062 5.304687 6.65625 8.472656 3.585937l9.511719-9.222656v-28.164063h12.253906c9.703125 0 17.96875-7.546874 18.3125-17.246093.363281-10.179688-7.785156-18.546875-17.882813-18.546875h-12.683593v-18.917969c52.710937-8.582031 93.074219-54.425781 93.074219-109.519531 0-55.097656-40.363282-100.9375-93.074219-109.519532zm0 0"/><path d="m145.566406 435.671875c1.34375.78125 2.617188 1.738281 3.761719 2.902344 6.929687 7.046875 6.835937 18.378906-.210937 25.308593l-36.09375 35.488282c-1.066407 1.046875-2.277344 1.925781-3.554688 2.691406 6.8125 4.09375 15.910156 2.839844 21.539062-2.691406l36.09375-35.488282c7.046876-6.929687 7.144532-18.261718.214844-25.308593-5.855468-5.957031-14.847656-6.925781-21.75-2.902344zm0 0"/><path d="m45.453125 269.421875h-11.304687c-3.445313 0-5.84375 3.402344-4.714844 6.660156 10.199218 29.429688 38.183594 50.625 71.042968 50.625 3.042969 0 6.042969-.195312 8.992188-.550781-31.25-3.742188-56.660156-26.726562-64.015625-56.734375zm0 0"/></g><path d="m118.460938 512c-6.589844 0-13.113282-2.664062-17.808594-7.292969l-36.082032-35.480469c-9.984374-9.816406-10.121093-25.921874-.304687-35.90625 4.753906-4.835937 11.105469-7.53125 17.886719-7.585937 3.84375-.019531 7.546875.78125 10.921875 2.351563v-4.835938h-5.1875c-14 0-25.390625-11.390625-25.390625-25.390625 0-13.996094 11.390625-25.386719 25.390625-25.386719h5.1875v-5.234375c-24.960938-5.480469-47.671875-19.039062-64.496094-38.625-18.429687-21.457031-28.578125-48.835937-28.578125-77.085937 0-30.78125 11.792969-59.960938 33.207031-82.167969 2.875-2.976563 7.617188-3.0625 10.597657-.191406 2.976562 2.871093 3.0625 7.617187.191406 10.597656-18.707032 19.398437-29.007813 44.882813-29.007813 71.761719 0 24.667968 8.863281 48.578125 24.960938 67.320312 15.929687 18.542969 37.886719 30.902344 61.824219 34.800782 3.625.589843 6.289062 3.722656 6.289062 7.398437v18.921875c0 4.136719-3.355469 7.492188-7.496094 7.492188h-12.679687c-5.734375 0-10.402344 4.667968-10.402344 10.402343s4.667969 10.398438 10.402344 10.398438h12.679687c4.140625 0 7.496094 3.355469 7.496094 7.496093v28.164063c0 6.589844-8.054688 9.789063-12.75 5.34375-1.917969-1.816406-3.769531-3.707031-5.652344-5.558594-4.089844-4.023437-10.6875-3.964843-14.710937.121094-4.015625 4.089844-3.960938 10.6875.128906 14.710937l35.996094 35.394532c2.09375 1.800781 4.605469 3.085937 7.417969 3.074218 2.800781-.011718 5.261718-1.289062 7.351562-3.070312l36.003906-35.398438c4.089844-4.019531 4.144532-10.621093.125-14.710937-4.019531-4.089844-10.621094-4.140625-14.707031-.121094-1.882813 1.851563-3.738281 3.738281-5.652344 5.558594-4.691406 4.445313-12.75 1.246094-12.75-5.34375v-28.167969c0-4.136718 3.355469-7.492187 7.492188-7.492187h12.683593c5.734376 0 10.398438-4.667969 10.398438-10.402344s-4.664062-10.398437-10.398438-10.398437h-12.683593c-4.136719 0-7.492188-3.355469-7.492188-7.496094v-18.921875c0-3.671875 2.664063-6.804688 6.289063-7.394531 19.460937-3.171876 37.5625-11.855469 52.339844-25.117188 3.082031-2.765625 7.820312-2.507812 10.585937.574219 2.761719 3.082031 2.507813 7.816406-.574219 10.582031-15.316406 13.742188-33.753906 23.195312-53.652344 27.554688v5.230468h5.1875c13.996094 0 25.386719 11.386719 25.386719 25.386719s-11.390625 25.390625-25.386719 25.390625h-5.1875v4.847656c9.464844-4.390625 21.085938-2.632812 28.808594 5.222656 9.8125 9.984376 9.679688 26.089844-.300781 35.902344l-36.097656 35.492188c-4.703125 4.621094-11.203125 7.285156-17.800781 7.285156zm-7.300782-17.984375.011719.011719c-.003906-.003906-.007813-.007813-.011719-.011719zm7.300782-159.816406c-38.179688 0-71.195313-25.902344-80.285157-62.996094-1.144531-4.648437 2.496094-9.277344 7.277344-9.277344h42.941406c4.140625 0 7.496094 3.355469 7.496094 7.496094 0 4.136719-3.355469 7.492187-7.496094 7.492187h-32.675781c10.199219 25.320313 34.78125 42.296876 62.742188 42.296876 27.964843 0 52.546874-16.976563 62.746093-42.296876h-62.835937c-4.140625 0-7.492188-3.355468-7.492188-7.492187 0-4.140625 3.351563-7.496094 7.492188-7.496094h73.101562c4.78125 0 8.417969 4.628907 7.277344 9.277344-9.09375 37.09375-42.109375 62.996094-80.289062 62.996094zm93.453124-15.414063c-1.386718 0-2.785156-.382812-4.039062-1.1875-3.484375-2.238281-4.496094-6.871094-2.257812-10.355468 10.675781-16.632813 16.320312-35.902344 16.320312-55.714844 0-24.671875-8.867188-48.578125-24.964844-67.320313-15.925781-18.546875-37.882812-30.90625-61.820312-34.804687-3.625-.589844-6.289063-3.722656-6.289063-7.394532v-43.902343c0-5.859375 6.753907-9.496094 11.648438-6.238281l2.792969 1.859374c4.628906 3.082032 11.046874 1.882813 14.25-2.648437 3.34375-4.726563 2.085937-11.464844-2.726563-14.667969l-8.222656-5.472656c-4.378907-2.914062-4.378907-9.5625 0-12.476562l8.226562-5.476563c4.714844-3.140625 6.035157-9.699219 2.894531-14.421875-3.140624-4.714844-9.699218-6.039062-14.421874-2.894531-2.164063 1.441406-4.160157 3.097656-6.894532 3.101562-2.316406.007813-4.585937-1.074219-6.003906-2.921875-2.207031-2.882812-1.542969-7.046875-1.542969-10.457031 0-5.734375-4.667969-10.402344-10.402343-10.402344-5.734376 0-10.398438 4.667969-10.398438 10.402344v5.898437c0 4.101563-3.433594 7.507813-7.53125 7.492188-2.714844-.007812-4.765625-1.683594-6.910156-3.109375-4.773438-3.179687-11.242188-1.882813-14.421875 2.894531-3.144531 4.722656-1.820313 11.28125 2.894531 14.417969l8.226562 5.476563c4.375 2.914062 4.375 9.5625 0 12.476562l-8.226562 5.472656c-4.8125 3.203125-6.070312 9.941406-2.726562 14.667969 3.210937 4.535156 9.625 5.726563 14.253906 2.648437l2.792968-1.859374c4.894532-3.257813 11.648438.378906 11.648438 6.238281v43.902343c0 3.675782-2.664062 6.804688-6.292969 7.394532-12.660156 2.0625-24.699219 6.429687-35.785156 12.976562-3.5625 2.105469-8.160156.925782-10.261719-2.640625-2.109375-3.5625-.925781-8.15625 2.636719-10.261719 10.847656-6.410156 22.5-10.992187 34.710937-13.667968v-25.886719c-1.699218.355469-3.4375.539063-5.199218.539063-8.527344 0-16.433594-4.234376-21.152344-11.324219-3.753906-5.644531-5.089844-12.414063-3.753906-19.0625 1.246094-6.214844 4.683594-11.628907 9.738281-15.375-5.054687-3.75-8.492187-9.164063-9.738281-15.375-1.335938-6.648438 0-13.421875 3.757812-19.066407 6.042969-9.082031 16.96875-13.011718 27.007813-10.632812 2.621093-11.230469 12.714843-19.625 24.730469-19.625 12.015624 0 22.105468 8.386719 24.726562 19.613281 3.523438-.839843 7.21875-.914062 10.875-.179687 13.5625 2.722656 22.625 16.308594 19.898438 29.890625-1.246094 6.210937-4.6875 11.625-9.738282 15.375 5.050782 3.746093 8.492188 9.160156 9.738282 15.375 1.335937 6.648437 0 13.417969-3.757813 19.0625-4.722656 7.089843-12.628906 11.324219-21.152344 11.324219-1.757812 0-3.5-.183594-5.199219-.539063v25.890625c24.960938 5.484375 47.667969 19.042969 64.492188 38.628906 18.429688 21.457032 28.582031 48.832032 28.582031 77.082032 0 22.691406-6.464843 44.757812-18.695312 63.816406-1.433594 2.230468-3.847657 3.445312-6.316407 3.445312zm-20.441406-77.660156h-146.019531c-4.785156 0-8.421875-4.628906-7.28125-9.277344 9.09375-37.089844 42.109375-62.996094 80.289063-62.996094 38.179687 0 71.195312 25.90625 80.289062 62.996094 1.140625 4.648438-2.496094 9.277344-7.277344 9.277344zm-135.753906-14.988281h125.488281c-10.199219-25.320313-34.78125-42.296875-62.746093-42.296875-27.960938 0-52.542969 16.976562-62.742188 42.296875zm0 0"/></svg>