<svg height="512pt" viewBox="-93 0 512 512" width="512pt" xmlns="http://www.w3.org/2000/svg"><path d="m317.585938 162.558594c0-85.484375-69.546876-155.027344-155.027344-155.027344-85.484375 0-155.027344 69.542969-155.027344 155.027344 0 79.367187 59.957031 144.988281 136.953125 153.96875v70.316406l-55.390625 90.089844c-3.429688 5.574218-3.574219 12.570312-.382812 18.285156 3.195312 5.710938 9.230468 9.25 15.773437 9.25h116.144531c6.546875 0 12.582032-3.539062 15.773438-9.253906 3.195312-5.710938 3.050781-12.707032-.378906-18.285156l-55.394532-90.085938.003906-70.320312c76.996094-8.976563 136.953126-74.597657 136.953126-153.964844zm-273.914063 0c0-65.554688 53.332031-118.886719 118.886719-118.886719 65.550781 0 118.882812 53.332031 118.882812 118.886719 0 65.550781-53.332031 118.882812-118.882812 118.882812-65.554688 0-118.886719-53.332031-118.886719-118.882812zm93.140625 305.769531 25.742188-41.871094 25.746093 41.871094zm0 0" fill="#ffe55a"/><g fill="#ffd500"><path d="m153.519531 44.015625c-2.980469-.226563-5.996093-.34375-9.035156-.34375-65.550781 0-118.882813 53.332031-118.882813 118.886719 0 65.550781 53.332032 118.882812 118.882813 118.882812 3.039063 0 6.054687-.117187 9.035156-.339844-61.347656-4.632812-109.847656-56.03125-109.847656-118.542968 0-62.515625 48.5-113.910156 109.847656-118.542969zm0 0"/><path d="m317.585938 162.558594c0-85.484375-69.546876-155.027344-155.027344-155.027344-3.035156 0-6.046875.097656-9.039063.269531 81.292969 4.695313 145.992188 72.308594 145.992188 154.757813 0 77.890625-57.742188 142.539062-132.667969 153.40625-2.464844.355468-4.285156 2.46875-4.285156 4.957031l-.003906 64.503906c0 .925781.257812 1.835938.746093 2.628907l54.652344 88.878906c3.429687 5.574218 3.574219 12.570312.378906 18.285156-3.195312 5.710938-9.230469 9.253906-15.773437 9.253906h17.648437c5.417969 0 10.6875-2.21875 14.1875-6.359375 5.152344-6.09375 5.664063-14.617187 1.628907-21.179687l-55.394532-90.089844v-70.316406c77-8.980469 136.957032-74.601563 136.957032-153.96875zm0 0"/><path d="m127.71875 468.328125h9.09375l25.746094-41.871094-4.761719-7.738281c-1.960937-3.1875-6.59375-3.1875-8.550781 0l-25.804688 41.957031c-2.054687 3.347657.351563 7.652344 4.277344 7.652344zm0 0"/></g><path d="m156.140625 422.515625-25.742187 41.867187c-3.035157 4.929688.640624 11.472657 6.414062 11.472657h51.488281c5.773438 0 9.445313-6.539063 6.414063-11.472657l-25.746094-41.867187c-2.886719-4.699219-9.941406-4.699219-12.828125 0zm18.691406 38.28125h-24.550781l12.273438-19.960937zm0 0"/><path d="m288.972656 162.558594c0-69.707032-56.710937-126.414063-126.414062-126.414063-28.746094 0-55.855469 9.441407-78.394532 27.300781-21.851562 17.320313-37.578124 41.660157-44.28125 68.53125-1.003906 4.035157 1.449219 8.121094 5.484376 9.128907 4.039062 1.003906 8.121093-1.453125 9.128906-5.488281 12.394531-49.699219 56.828125-84.414063 108.0625-84.414063 61.398437 0 111.351562 49.953125 111.351562 111.355469 0 61.398437-49.953125 111.351562-111.351562 111.351562-61.402344 0-111.355469-49.953125-111.355469-111.351562 0-4.160156-3.371094-7.53125-7.53125-7.53125-4.15625 0-7.527344 3.371094-7.527344 7.53125 0 69.703125 56.707031 126.414062 126.414063 126.414062 69.703125 0 126.414062-56.710937 126.414062-126.414062zm0 0"/><path d="m147.492188 496.941406h-43.007813c-3.8125 0-7.339844-2.070312-9.203125-5.398437-1.859375-3.328125-1.773438-7.417969.222656-10.664063l55.390625-90.089844c.730469-1.1875 1.117188-2.550781 1.117188-3.941406l.003906-70.320312c0-3.820313-2.863281-7.039063-6.65625-7.480469-74.285156-8.664063-130.300781-71.640625-130.300781-146.488281 0-81.332032 66.167968-147.5 147.5-147.5 29.519531 0 58.03125 8.730468 82.441406 25.25 3.441406 2.332031 8.125 1.429687 10.457031-2.015625 2.328125-3.445313 1.425781-8.125-2.019531-10.457031-26.910156-18.210938-58.335938-27.835938-90.878906-27.835938-89.636719 0-162.558594 72.921875-162.558594 162.558594 0 80.238281 58.414062 148.097656 136.957031 160.53125l-.003906 61.625-54.273437 88.273437c-4.855469 7.890625-5.0625 17.816407-.539063 25.902344 4.519531 8.085937 13.082031 13.109375 22.34375 13.109375h43.011719c4.15625 0 7.527344-3.371094 7.527344-7.53125 0-4.15625-3.371094-7.527344-7.53125-7.527344zm0 0"/><path d="m325.113281 162.558594c0-43.140625-16.78125-83.796875-47.253906-114.488282-2.933594-2.949218-7.699219-2.964843-10.648437-.035156-2.953126 2.929688-2.96875 7.695313-.039063 10.648438 27.652344 27.847656 42.882813 64.738281 42.882813 103.875 0 74.847656-56.015626 137.824218-130.296876 146.488281-3.796874.441406-6.660156 3.65625-6.660156 7.476563v70.320312c0 1.390625.382813 2.757812 1.113282 3.945312l55.398437 90.085938c1.996094 3.25 2.082031 7.339844.222656 10.667969-1.863281 3.328125-5.386719 5.398437-9.203125 5.398437h-43.015625c-4.15625 0-7.527343 3.371094-7.527343 7.527344 0 4.160156 3.371093 7.53125 7.527343 7.53125h43.015625c9.261719 0 17.828125-5.023438 22.347656-13.109375 4.519532-8.085937 4.3125-18.011719-.539062-25.902344l-54.28125-88.273437.003906-61.625c78.539063-12.429688 136.953125-80.292969 136.953125-160.53125zm0 0"/></svg>