<svg height="511pt" viewBox="-30 0 511 511.99996" width="511pt" xmlns="http://www.w3.org/2000/svg"><path d="m426.15625 12.570312-62.683594-2.667968c-9.921875-.449219-18.398437 7.316406-18.824218 17.289062-.425782 9.972656 7.316406 18.402344 17.289062 18.824219l19.601562.835937-69.875 65.269532c-22.988281-18.761719-52.316406-30.027344-84.230468-30.027344-32.210938 0-61.792969 11.472656-84.875 30.546875l-39.175782-36.4375 7.445313-1.773437c9.707031-2.320313 15.699219-12.070313 13.382813-21.777344-2.320313-9.710938-12.070313-15.707032-21.777344-13.382813l-13.851563 3.304688 2.296875-14.054688c1.609375-9.851562-5.074218-19.140625-14.925781-20.75-9.851563-1.601562-19.140625 5.074219-20.75 14.925781l-1.234375 7.550782-7.359375-6.847656c-7.308594-6.796876-18.742187-6.382813-25.542969.925781-6.796875 7.3125-6.382812 18.746093.925782 25.546875l7.359374 6.84375-7.441406 1.773437c-9.707031 2.320313-15.699218 12.070313-13.382812 21.777344 1.980468 8.300781 9.390625 13.882813 17.5625 13.882813 1.390625 0 2.800781-.164063 4.214844-.5l13.851562-3.304688-2.296875 14.054688c-1.609375 9.851562 5.074219 19.140624 14.925781 20.75.984375.160156 1.964844.238281 2.933594.238281 8.699219 0 16.367188-6.296875 17.816406-15.160157l1.230469-7.550781 39.28125 36.53125c-15.144531 21.640625-24.046875 47.957031-24.046875 76.316407 0 67.445312 50.304688 123.355468 115.359375 132.203124v138.667969c0 9.984375 8.089844 18.074219 18.074219 18.074219 9.980468 0 18.074218-8.089844 18.074218-18.074219v-138.667969c65.054688-8.847656 115.355469-64.757812 115.355469-132.203124 0-28.65625-9.082031-55.230469-24.515625-77l69.867188-65.253907-.503906 19.613281c-.253907 9.976563 7.625 18.273438 17.605468 18.53125.15625.003907.3125.007813.472656.007813 9.765626 0 17.804688-7.792969 18.058594-17.613281l1.609375-62.714844c.25-9.859375-7.449219-18.101562-17.300781-18.523438zm-198.722656 300.238282c-53.644532 0-97.285156-43.644532-97.285156-97.285156 0-53.644532 43.640624-97.285157 97.285156-97.285157 53.640625 0 97.285156 43.640625 97.285156 97.285157 0 53.640624-43.644531 97.285156-97.285156 97.285156zm0 0" fill="#ff94d4"/><g fill="#ff73c6"><path d="m73.242188 26.007812-2.152344 13.1875c-.566406 3.464844 2.511718 6.425782 5.953125 5.726563l11.539062-2.347656 2.296875-14.054688c1.609375-9.851562-5.074218-19.140625-14.921875-20.75-3.304687-.535156-6.535156-.125-9.441406 1.003907 5.039063 3.957031 7.832031 10.460937 6.726563 17.234374zm0 0"/><path d="m106.75 50.265625c2.328125 9.757813-3.695312 19.558594-13.453125 21.890625l-1.457031.34375c-3.910156.921875-5.203125 5.835938-2.257813 8.566406l39.914063 36.984375c1.925781 1.789063 4.902344 1.785157 6.828125-.003906 2.136719-1.984375 4.441406-4.148437 6.234375-5.40625l-39.175782-36.4375 7.023438-1.675781c9.527344-2.273438 15.878906-11.621094 13.945312-21.230469-2.027343-10.089844-11.996093-16.402344-21.917968-14.03125l-2.558594.613281c3.324219 2.457032 5.839844 6.050782 6.875 10.386719zm0 0"/><path d="m130.148438 215.523438c0-53.640626 43.640624-97.285157 97.285156-97.285157 1.097656 0 2.191406.027344 3.28125.0625-6.519532-1.375-13.277344-2.101562-20.199219-2.101562-53.921875 0-97.796875 43.871093-97.796875 97.796875 0 53.925781 43.871094 97.800781 97.796875 97.800781.886719 0 1.765625-.015625 2.644531-.039063-46.898437-6.925781-83.011718-47.4375-83.011718-96.234374zm0 0"/><path d="m59.828125 108.140625c-1.039063 6.359375-5.269531 11.386719-10.777344 13.757813 2.21875 1.621093 4.832031 2.777343 7.734375 3.25.984375.160156 1.964844.238281 2.933594.238281 8.699219 0 16.367188-6.296875 17.816406-15.164063l1.230469-7.546875-12.433594-2.402343c-2.78125-.539063-5.460937 1.335937-5.90625 4.136718zm0 0"/><path d="m406.214844 73.265625.144531-5.644531c.113281-4.449219-5.191406-6.835938-8.445313-3.796875l-74.769531 69.835937c-1.785156 1.667969-2.097656 4.375-.75 6.410156 14.0625 21.210938 22.261719 46.628907 22.261719 73.925782 0 66.351562-48.429688 121.597656-111.796875 132.265625-2.410156.40625-4.171875 2.496093-4.171875 4.941406v135.097656c0 6.972657-3.9375 13.023438-9.703125 16.066407 2.738281 1.453124 5.890625 2.230468 9.242187 2.085937 9.75-.421875 17.277344-8.800781 17.277344-18.558594v-138.167969c65.058594-8.847656 115.359375-64.757812 115.359375-132.203124 0-28.65625-9.082031-55.230469-24.515625-77zm0 0"/><path d="m426.15625 12.570312-7.851562-.332031c5.738281 3.179688 9.558593 9.355469 9.375 16.351563l-1.617188 63.050781c-.199219 7.816406-5.320312 14.339844-12.316406 16.722656 2.746094 1.835938 6.019531 2.960938 9.570312 3.050781.15625.003907.3125.003907.46875.003907 9.769532 0 17.808594-7.789063 18.058594-17.609375l1.609375-62.71875c.253906-9.855469-7.445313-18.097656-17.296875-18.519532zm0 0"/></g><path d="m227.429688 512c-14.117188 0-25.601563-11.484375-25.601563-25.605469v-60.289062c0-4.160157 3.371094-7.53125 7.527344-7.53125 4.160156 0 7.53125 3.371093 7.53125 7.53125v60.289062c0 5.816407 4.730469 10.542969 10.542969 10.542969 5.816406 0 10.542968-4.726562 10.542968-10.542969v-138.667969c0-3.769531 2.785156-6.953124 6.519532-7.460937 31.332031-4.261719 59.761718-20.140625 80.050781-44.710937 2.652343-3.207032 7.398437-3.660157 10.601562-1.011719 3.207031 2.648437 3.660157 7.394531 1.015625 10.601562-21.296875 25.785157-50.613281 43.019531-83.125 49v132.25c0 14.121094-11.484375 25.605469-25.605468 25.605469zm-18.070313-108.484375c-4.160156 0-7.53125-3.371094-7.53125-7.53125v-41.839844c-66.214844-12.203125-115.359375-70.660156-115.359375-138.621093 0-26.804688 7.503906-52.648438 21.761719-75.164063l-24.902344-23.160156c-3.890625 9.378906-13.054687 15.71875-23.609375 15.71875-11.695312 0-22.167969-8.199219-24.921875-19.582031-.804687-3.316407-.921875-6.785157-.371094-10.152344l.472657-2.890625-2.847657.679687c-10.480469 2.507813-21.699219-1.976562-27.503906-11.058594-1.546875-2.421874-2.675781-5.105468-3.34375-7.898437-2.820313-11.8125 3.074219-23.699219 13.515625-28.882813-8.257812-9.761718-7.859375-24.589843.835938-33.9375 8.691406-9.34375 23.453124-10.820312 33.785156-3.289062 4.414062-10.777344 15.839844-17.527344 27.824218-15.570312 13.765626 2.25 23.398438 15.609374 21.144532 29.398437l-.472656 2.886719 2.847656-.679688c13.589844-3.246094 27.613281 5.394532 30.851562 18.960938 2.800782 11.742187-3.011718 23.5625-13.339844 28.792968l24.773438 23.039063c24.292969-18.210937 54.035156-28.175781 84.464844-28.175781 30.117187 0 59.617187 9.785156 83.78125 27.675781l52.054687-48.625-1.652343-.070313c-6.835938-.292968-13.144532-3.226562-17.773438-8.261718-5.421875-5.910156-7.777344-14.152344-6.308594-22.039063 1.425782-7.667969 6.4375-14.382812 13.34375-17.996093 3.96875-2.078126 8.460938-3.0625 12.933594-2.863282l62.664062 2.667969c13.867188.589844 24.863282 12.359375 24.503907 26.238281l-1.605469 62.714844c-.359375 13.992188-11.601562 24.949219-25.589844 24.949219-6.992187 0-13.753906-2.898438-18.570312-7.96875-4.710938-4.957031-7.207032-11.453125-7.035156-18.289063l.042968-1.65625-52.039062 48.609375c14.554687 22.671875 22.210937 48.765625 22.210937 75.878907 0 22.042968-4.96875 43.167968-14.773437 62.789062-1.859375 3.71875-6.378906 5.230469-10.101563 3.371094-3.71875-1.859375-5.230469-6.382813-3.371093-10.101563 8.75-17.511719 13.183593-36.375 13.183593-56.058593 0-26.183594-7.996093-51.300782-23.128906-72.640626-2.179687-3.074218-1.75-7.289062 1.003906-9.863281l69.867188-65.253906c4.78125-4.472656 12.835937-.832031 12.667969 5.695313l-.503907 19.613281c-.15625 6.121093 5.136719 11.199219 11.238281 10.789062 5.332032-.355469 9.703126-4.90625 9.839844-10.246093l1.609375-62.71875c.144531-5.714844-4.382812-10.558594-10.09375-10.800782l-62.679687-2.671875c-5.726563-.226562-10.746094 4.34375-10.980469 10.085938-.238281 5.742187 4.335937 10.738281 10.085937 10.980469l19.601563.835937c6.527344.277344 9.605469 8.554687 4.820313 13.027344l-69.878907 65.265625c-2.75 2.574218-6.984375 2.714844-9.902343.332031-22.382813-18.269531-50.605469-28.332031-79.46875-28.332031-29.144532 0-57.585938 10.238281-80.074219 28.824218-2.914063 2.40625-7.160157 2.28125-9.925781-.292968l-39.175782-36.433594c-4.324218-4.019531-2.351562-11.472656 3.378906-12.839844l7.445313-1.777344c5.652344-1.347656 9.15625-7.046874 7.804687-12.703124-1.332031-5.585938-7.101562-9.136719-12.699218-7.804688l-13.851563 3.304688c-5.144531 1.226562-10.035156-3.320313-9.183593-8.539063l2.296874-14.054687c.9375-5.734376-2.96875-11.167969-8.707031-12.101563-5.730469-.9375-11.167969 2.96875-12.101562 8.703125l-1.234375 7.550781c-.949219 5.8125-8.238282 8.324219-12.5625 4.300781l-7.359375-6.84375c-4.210938-3.914062-10.984375-3.671874-14.898438.539063-3.914062 4.207031-3.671875 10.988281.539063 14.902344l7.355468 6.84375c4.324219 4.019531 2.355469 11.472656-3.378906 12.839843l-7.441406 1.773438c-5.652344 1.351562-9.15625 7.050781-7.804688 12.703125 1.335938 5.601563 7.089844 9.148437 12.699219 7.808594l13.855469-3.308594c5.140625-1.226563 10.03125 3.324219 9.179688 8.539063l-2.296876 14.054687c-1.015624 6.214844 3.808594 12.035156 10.085938 12.242187 5.242188.171876 9.878906-3.671874 10.722656-8.839843l1.234375-7.550781c.949219-5.816407 8.234375-8.324219 12.558594-4.300782l39.28125 36.53125c2.75 2.558594 3.195313 6.753906 1.039063 9.832032-14.839844 21.207031-22.683594 46.105468-22.683594 72 0 62.671874 46.792968 116.300781 108.84375 124.742187 3.730468.507813 6.515625 3.691406 6.515625 7.460937v48.257813c0 4.160156-3.371094 7.53125-7.527344 7.53125zm18.070313-83.175781c-57.792969 0-104.8125-47.023438-104.8125-104.816406 0-4.160157 3.371093-7.53125 7.53125-7.53125 4.160156 0 7.53125 3.371093 7.53125 7.53125 0 49.492187 40.261718 89.753906 89.753906 89.753906 49.488281 0 89.753906-40.261719 89.753906-89.753906 0-49.492188-40.265625-89.753907-89.753906-89.753907-38.632813 0-72.847656 24.636719-85.132813 61.304688-1.324219 3.941406-5.59375 6.066406-9.535156 4.746093-3.941406-1.320312-6.070313-5.589843-4.746094-9.53125 14.347657-42.8125 54.296875-71.582031 99.410157-71.582031 57.796874 0 104.816406 47.023438 104.816406 104.816407 0 57.792968-47.019532 104.816406-104.816406 104.816406zm0 0"/></svg>