<svg height="511pt" viewBox="-31 0 511 511.99937" width="511pt" xmlns="http://www.w3.org/2000/svg"><path d="m424.726562 10.265625-62.96875-2.683594c-10.015624-.453125-18.484374 7.351563-18.914062 17.371094-.425781 10.015625 7.351562 18.484375 17.371094 18.910156l19.691406.839844-70.199219 65.570313c-23.09375-18.847657-52.558593-30.164063-84.621093-30.164063-32.058594 0-61.523438 11.316406-84.617188 30.164063l-17.066406-15.941407 12.871094-14.113281c6.757812-7.410156 6.226562-18.894531-1.183594-25.652344-7.40625-6.753906-18.894532-6.226562-25.648438 1.183594l-12.578125 13.792969-26.59375-24.839844 19.691407-.839844c10.019531-.425781 17.796874-8.894531 17.371093-18.914062s-8.878906-17.816407-18.914062-17.367188l-62.96875 2.679688c-9.902344.421875-17.636719 8.703125-17.382813 18.605469l1.617188 63.007812c.253906 9.867188 8.332031 17.691406 18.144531 17.691406.15625 0 .3125 0 .472656-.003906 10.023438-.257812 17.941407-8.59375 17.6875-18.617188l-.507812-19.703124 26.910156 25.132812-10.65625 11.6875c-6.757813 7.410156-6.226563 18.894531 1.183594 25.652344 3.480469 3.171875 7.859375 4.738281 12.226562 4.738281 4.929688 0 9.839844-1.992187 13.421875-5.921875l10.367188-11.367188 16.738281 15.632813c-15.507813 21.871094-24.632813 48.566406-24.632813 77.355469 0 67.757812 50.535157 123.921875 115.890626 132.8125v139.3125c0 10.027344 8.132812 18.15625 18.15625 18.15625 10.03125 0 18.160156-8.128906 18.160156-18.15625v-139.3125c65.355468-8.890625 115.890625-65.054688 115.890625-132.8125 0-28.789063-9.125-55.484375-24.632813-77.355469l70.1875-65.554687-.503906 19.707031c-.253906 10.023437 7.664062 18.355469 17.6875 18.613281.160156.003906.316406.007812.472656.007812 9.8125 0 17.890625-7.828124 18.144532-17.691406l1.613281-63.007812c.253906-9.90625-7.476563-18.1875-17.378907-18.605469zm-199.640624 301.621094c-53.886719 0-97.730469-43.84375-97.730469-97.734375s43.84375-97.734375 97.730469-97.734375c53.890624 0 97.734374 43.84375 97.734374 97.734375s-43.839843 97.734375-97.734374 97.734375zm0 0" fill="#cc98e8"/><g fill="#bf80e2"><path d="m70.273438 44.6875-5.328126.226562c-4.511718.191407-6.515624 5.761719-3.164062 8.785157l23.46875 21.171875c2.0625 1.859375 5.238281 1.703125 7.105469-.347656l4.527343-4.964844-26.617187-24.855469zm0 0"/><path d="m88.417969 7.582031-17.34375.738281c9.902343-.28125 18.191406 7.449219 18.613281 17.367188.429688 10.019531-7.347656 18.484375-17.367188 18.910156l.027344.015625 17.617188-.75c10.019531-.429687 17.792968-8.894531 17.367187-18.914062s-8.878906-17.816407-18.914062-17.367188zm0 0"/><path d="m117.148438 53.804688c7.421874 6.769531 7.953124 18.273437 1.183593 25.695312l-9.53125 10.453125c-1.863281 2.042969-1.734375 5.203125.285157 7.085937l18.707031 17.472657c1.785156 1.664062 4.5 1.8125 6.457031.359375l6.203125-4.621094-17.050781-15.917969 12.871094-14.113281c6.757812-7.410156 6.226562-18.894531-1.183594-25.652344-5.761719-5.253906-13.980469-6.082031-20.53125-2.714844.902344.570313 1.773437 1.210938 2.589844 1.953126zm0 0"/><path d="m88.566406 132.53125 10.363282-11.351562-6.3125-5.894532c-2.054688-1.917968-5.277344-1.789062-7.167969.285156l-14.902344 16.332032c-1.460937 1.605468-3.152344 2.867187-4.964844 3.824218 2.929688 1.820313 6.25 2.730469 9.5625 2.730469 4.929688 0 9.839844-1.996093 13.421875-5.925781zm0 0"/><path d="m127.355469 214.152344c0-52.125 41.015625-94.84375 92.46875-97.589844-4.101563-.523438-8.285157-.796875-12.527344-.796875-53.980469 0-97.898437 43.917969-97.898437 97.898437 0 53.980469 43.917968 97.898438 97.898437 97.898438 2.390625 0 4.765625-.089844 7.113281-.261719-48.882812-5.335937-87.054687-46.863281-87.054687-97.148437zm0 0"/><path d="m424.726562 10.265625-15.617187-.667969c9.019531 1.296875 15.8125 9.167969 15.574219 18.46875l-1.617188 63.113282c-.179687 6.953124-4.246094 12.882812-10.0625 15.792968 2.601563 1.5625 5.621094 2.507813 8.871094 2.589844.160156.003906.316406.007812.472656.007812 9.8125 0 17.890625-7.828124 18.144532-17.695312l1.613281-63.003906c.253906-9.90625-7.476563-18.1875-17.378907-18.605469zm0 0"/><path d="m404.695312 71.265625v-7.585937c0-4.441407-5.332031-6.714844-8.539062-3.636719l-76.179688 73.175781c-1.753906 1.691406-2.050781 4.390625-.703124 6.417969 14.085937 21.238281 22.296874 46.6875 22.296874 74.027343 0 66.414063-48.46875 121.710938-111.894531 132.398438-2.421875.40625-4.191406 2.507812-4.191406 4.960938v135.222656c0 6.808594-3.75 12.734375-9.289063 15.851562 3.066407 1.730469 6.679688 2.605469 10.527344 2.265625 9.445313-.839843 16.519532-9.078125 16.519532-18.5625v-138.835937c65.355468-8.890625 115.890624-65.054688 115.890624-132.8125 0-28.789063-9.125-55.484375-24.628906-77.355469zm0 0"/><path d="m45.976562 90.464844-.496093-19.222656-9.722657-9.085938c-3.269531-3.050781-8.601562-.65625-8.488281 3.816406l.625 24.273438c.183594 7.140625-3.785156 13.410156-9.699219 16.535156 2.800782 1.761719 6.097657 2.789062 9.632813 2.789062.394531 0 .792969-.015624 1.195313-.039062 9.8125-.605469 17.203124-9.238281 16.953124-19.066406zm0 0"/></g><path d="m225.085938 512c-14.179688 0-25.722657-11.539062-25.722657-25.722656v-59.386719c0-4.179687 3.386719-7.566406 7.566407-7.566406 4.179687 0 7.566406 3.386719 7.566406 7.566406v59.386719c0 5.839844 4.75 10.589844 10.589844 10.589844 5.839843 0 10.59375-4.75 10.59375-10.589844v-139.3125c0-3.785156 2.796874-6.984375 6.546874-7.496094 31.046876-4.222656 59.339844-19.851562 79.667969-44.011719 2.6875-3.199219 7.460938-3.609375 10.660157-.917969 3.199218 2.6875 3.609374 7.460938.917968 10.660157-21.3125 25.332031-50.46875 42.285156-82.664062 48.214843v132.863282c.003906 14.183594-11.535156 25.722656-25.722656 25.722656zm-18.15625-107.804688c-4.179688 0-7.5625-3.386718-7.5625-7.566406v-43.210937c-66.523438-12.257813-115.890626-70.988281-115.890626-139.265625 0-27.238282 7.691407-53.449219 22.3125-76.230469l-6.425781-6-5.207031 5.710937c-9.441406 10.351563-25.984375 11.113282-36.335938 1.675782-10.359374-9.445313-11.128906-25.976563-1.675781-36.339844l5.621094-6.164062-8.257813-7.714844.042969 1.664062c.28125 10.933594-6.617187 21.050782-16.890625 24.808594-2.824218 1.035156-5.824218 1.570312-8.832031 1.570312-14.054687 0-25.34375-11.007812-25.703125-25.0625l-1.617188-63.007812c-.359374-13.9375 10.683594-25.765625 24.617188-26.355469l62.972656-2.6835935c14.023438-.6171875 26.199219 10.5976565 26.792969 24.6054685.597656 14.015625-10.59375 26.195313-24.605469 26.792969l-1.664062.070313 7.808594 7.296874 7.417968-8.136718c9.558594-10.480469 25.859375-11.230469 36.339844-1.675782 10.359375 9.445313 11.125 25.972657 1.675781 36.339844l-7.832031 8.589844 6.890625 6.433594c24.273437-17.96875 53.910156-27.796875 84.167969-27.796875 30.257812 0 59.890625 9.828125 84.164062 27.796875l52.300782-48.847656-1.664063-.070313c-14.007813-.597656-25.203125-12.777344-24.605469-26.792969.597656-14.023437 12.785156-25.222656 26.816406-24.6054685l62.949219 2.6835935c13.929688.589844 24.976563 12.417969 24.617188 26.355469l-1.617188 63.007812c-.25 9.742188-6.074219 18.71875-14.964843 22.757813-10.0625 4.574219-22.265626 2.097656-29.730469-6.058594-4.472657-4.890625-6.902344-11.390625-6.730469-18.015625l.042969-1.664062-52.28125 48.832031c14.621093 22.777344 22.3125 48.992187 22.3125 76.230469 0 22.625-5.199219 44.253906-15.457031 64.296875-1.902344 3.722656-6.460938 5.191406-10.179688 3.289062-3.71875-1.902343-5.191406-6.460937-3.289062-10.179687 9.152343-17.890625 13.792968-37.203125 13.792968-57.40625 0-26.300782-8.035156-51.539063-23.234375-72.976563-2.191406-3.089843-1.757812-7.320312 1.007813-9.90625l70.1875-65.558593c4.808594-4.488282 12.898437-.835938 12.726562 5.722656l-.503906 19.707031c-.15625 6.148437 5.160156 11.246094 11.292969 10.839844 5.355469-.359375 9.746093-4.929688 9.886719-10.296875l1.613281-63.007813c.148437-5.742187-4.398438-10.609375-10.136719-10.851562l-62.972656-2.683594c-5.769532-.289063-10.796875 4.378906-11.03125 10.132813-.238282 5.769531 4.359375 10.785156 10.132812 11.03125l19.695313.839843c6.554687.28125 9.648437 8.597657 4.839843 13.089844l-70.199218 65.566406c-2.765625 2.582031-7.015625 2.726563-9.945313.332031-22.492187-18.351562-50.84375-28.460937-79.835937-28.460937-28.996094 0-57.347656 10.109375-79.835938 28.460937-2.933594 2.394532-7.179687 2.25-9.949218-.332031l-17.066407-15.941406c-3.027343-2.828125-3.21875-7.566406-.425781-10.625l12.871094-14.117187c3.890625-4.265626 3.574218-11.070313-.691406-14.960938-4.3125-3.933594-11.027344-3.625-14.960938.691406l-12.578125 13.792969c-2.796875 3.066406-7.71875 3.265625-10.753906.429687l-26.59375-24.839843c-2.226563-2.082031-2.988281-5.296875-1.933594-8.152344 1.058594-2.859375 3.730469-4.804687 6.773437-4.933594l19.695313-.839843c5.765625-.246094 10.378906-5.261719 10.132813-11.03125-.246094-5.777344-5.238282-10.371094-11.015626-10.132813l-62.988281 2.679687c-5.734375.246094-10.285156 5.113282-10.136719 10.855469l1.613282 63.003907c.148437 5.789062 4.796875 10.324218 10.582031 10.324218 5.878906-.027344 10.746094-4.960937 10.597656-10.863281l-.503906-19.707031c-.082031-3.046875 1.679687-5.84375 4.457031-7.09375 2.785156-1.253906 6.039063-.710938 8.269532 1.371094l26.910156 25.132812c3.027344 2.828125 3.21875 7.566406.425781 10.628906l-10.660156 11.6875c-3.886719 4.261719-3.582031 11.078125.691406 14.960938 4.277344 3.886718 11.070313 3.582031 14.960937-.6875l10.367188-11.367188c2.796875-3.070312 7.71875-3.265625 10.753906-.433594l16.738282 15.632813c2.765624 2.585937 3.199218 6.816406 1.007812 9.90625-15.203125 21.4375-23.234375 46.675781-23.234375 72.976563 0 62.964843 47.003906 116.835937 109.34375 125.316406 3.75.511718 6.542969 3.710937 6.542969 7.496094v49.664062c0 4.183594-3.386719 7.570312-7.566406 7.570312zm18.15625-84.746093c-58.058594 0-105.296876-47.234375-105.296876-105.296875 0-4.179688 3.386719-7.566406 7.566407-7.566406 4.179687 0 7.566406 3.390624 7.566406 7.566406 0 49.71875 40.449219 90.167968 90.167969 90.167968s90.164062-40.449218 90.164062-90.167968-40.445312-90.167969-90.164062-90.167969c-39.289063 0-73.789063 25.144531-85.851563 62.570313-1.28125 3.976562-5.546875 6.15625-9.519531 4.878906-3.976562-1.28125-6.164062-5.542969-4.882812-9.523438 6.785156-21.039062 19.8125-39.160156 37.675781-52.398437 18.234375-13.515625 39.871093-20.65625 62.578125-20.65625 58.058594 0 105.296875 47.234375 105.296875 105.296875s-47.238281 105.296875-105.300781 105.296875zm0 0"/></svg>