<svg id="Capa_1" transform="rotate(45)" enable-background="new 0 0 512 512" height="512"
viewBox="0 0 512 512" width="512" xmlns="http://www.w3.org/2000/svg">
<path d="m411.7269897 163.2910004c0-85.8680038-69.8589783-155.727005-155.7269897-155.727005s-155.7269897 69.8589935-155.7269897 155.727005c0 79.7279968 60.2280045 145.641983 137.5740051 154.6640167v125.0690002l-22.4710083-22.0939941c-7.1490021-7.0299988-18.6430054-6.9330139-25.6710052.2170105-7.029007 7.1489868-6.9320068 18.6419983.2169952 25.67099l53.352005 52.4570007c6.9700012 6.8540039 18.4839935 6.8540039 25.4539948 0l53.3519897-52.4570007c7.1489868-7.0289917 7.2460022-18.5230103.2170105-25.67099-7.0299988-7.1499939-18.5230103-7.2470093-25.67099-.2170105l-22.4710083 22.0939941v-125.0690307c77.3439941-9.0209961 137.5719909-74.9359894 137.5719909-154.6639862zm-275.1479949 0c0-65.8479996 53.5720062-119.4210052 119.4210052-119.4210052s119.42099 53.5720024 119.42099 119.4210052-53.571991 119.4210052-119.42099 119.4210052-119.4210052-53.5720062-119.4210052-119.4210052z"
fill="#b5b5b5" />
<g fill="#b5b5b5">
<path d="m246.9230042 44.2130013c-2.9960022-.2260017-6.022995-.3429985-9.0769958-.3429985-65.848999 0-119.4209976 53.5719986-119.4209976 119.4209976s53.5719986 119.4210052 119.4209976 119.4210052c3.0529938 0 6.0800018-.1159973 9.0769958-.3429871-61.625-4.6530151-110.3439941-56.2830048-110.3439941-119.07901-.0000153-62.7940063 48.7199859-114.4230079 110.3439941-119.0770072z"/>
<path d="m300.2780151 418.1719971c1.3829956.8009949 2.6900024 1.7799988 3.8649902 2.9750061 7.0289917 7.1489868 6.9320068 18.6419983-.2170105 25.67099l-53.352005 52.4570007c-1.1109924 1.0920105-2.345993 1.9899902-3.651001 2.7340088 6.8829956 3.9259949 15.9440155 3.0270081 21.8040009-2.7340088l53.3519897-52.4570007c7.1489868-7.0289917 7.2460022-18.5230103.2170105-25.67099-5.9279784-6.0310059-15.0239867-7.0230103-22.0179748-2.9750061z"/>
<path d="m256 7.5640001c-3.0469971 0-6.0720062.098-9.0769958.2709999 81.6589966 4.717 146.651001 72.6350021 146.651001 155.4559937 0 78.2429962-58.0050049 143.1820221-133.2690125 154.1009979-2.472992.3590155-4.3049927 2.4820013-4.3049927 4.9809942v113.0419922c0 9.4639893 11.4049988 14.2449951 18.1530151 7.6099854v-125.0699768c77.3460083-9.0220032 137.5740051-74.9360046 137.5740051-154.6640015-.0000305-85.8679886-69.8590087-155.726985-155.7270202-155.726985z"/>
</g>
</svg>