<svg height="511pt" viewBox="-31 0 511 511.9991" width="511pt" xmlns="http://www.w3.org/2000/svg"><path d="m424.730469 10.265625-62.972657-2.679687c-10.015624-.457032-18.484374 7.347656-18.910156 17.367187-.429687 10.015625 7.347656 18.484375 17.367188 18.910156l19.695312.839844-70.203125 65.570313c-23.089843-18.847657-52.554687-30.167969-84.617187-30.167969s-61.523438 11.320312-84.617188 30.167969l-17.066406-15.941407 12.871094-14.113281c6.757812-7.410156 6.226562-18.894531-1.183594-25.652344-7.40625-6.753906-18.894531-6.226562-25.648438 1.183594l-12.578124 13.792969-26.59375-24.839844 19.695312-.839844c10.015625-.425781 17.792969-8.894531 17.367188-18.914062-.425782-10.015625-8.878907-17.816407-18.914063-17.367188l-62.96875 2.683594c-9.898437.421875-17.632813 8.699219-17.378906 18.605469l1.613281 63.003906c.253906 9.867188 8.332031 17.691406 18.140625 17.691406.160156 0 .316406 0 .476563-.003906 10.023437-.257812 17.941406-8.59375 17.683593-18.617188l-.503906-19.703124 26.910156 25.132812-10.65625 11.6875c-6.757812 7.410156-6.230469 18.894531 1.179688 25.652344 3.480469 3.175781 7.863281 4.742187 12.230469 4.742187 4.925781 0 9.839843-1.996093 13.421874-5.925781l10.363282-11.367188 16.738281 15.636719c-15.503906 21.867188-24.628906 48.5625-24.628906 77.351563 0 67.757812 50.535156 123.921875 115.890625 132.8125v75.46875h-19.917969c-10.027344 0-18.15625 8.128906-18.15625 18.15625s8.128906 18.15625 18.15625 18.15625h19.917969v27.527344c0 10.03125 8.128906 18.160156 18.15625 18.160156s18.15625-8.128906 18.15625-18.160156v-27.527344h19.914062c10.027344 0 18.160156-8.128906 18.160156-18.15625s-8.132812-18.15625-18.160156-18.15625h-19.914062v-75.46875c65.355468-8.890625 115.890625-65.054688 115.890625-132.8125 0-28.789063-9.125-55.484375-24.628907-77.351563l70.1875-65.558593-.503906 19.707031c-.257812 10.023437 7.660156 18.359375 17.683594 18.613281.160156.003906.316406.007812.476562.007812 9.808594 0 17.886719-7.824218 18.140626-17.691406l1.617187-63.007812c.253906-9.902344-7.480469-18.183594-17.378906-18.605469zm-199.640625 301.621094c-53.890625 0-97.730469-43.84375-97.730469-97.730469 0-53.890625 43.839844-97.734375 97.730469-97.734375s97.734375 43.839844 97.734375 97.730469-43.84375 97.734375-97.734375 97.734375zm0 0" fill="#00f3a7"/><g fill="#00e49d">
<path d="m224.265625 80.117188c24.171875 3.027343 55.566406 19.300781 75.03125 34.195312 1.945313 1.488281 4.691406 1.328125 6.480469-.34375l3.945312-3.6875c0-.007812 0-.011719-.003906-.019531l-.011719.011719c-23.289062-19.007813-53.058593-30.359376-85.4375-30.164063-.003906.027344 0-.019531-.003906.007813zm0 0"/>
<path d="m117.25 53.460938c7.425781 6.773437 7.957031 18.285156 1.183594 25.714843l-9.542969 10.464844c-1.863281 2.042969-1.734375 5.199219.285156 7.085937l18.800781 17.5625c1.796876 1.675782 4.542969 1.808594 6.496094.316407 1.960938-1.496094 3.960938-2.941407 6-4.332031l-17.066406-15.941407 12.871094-14.113281c6.753906-7.410156 6.226562-18.894531-1.183594-25.652344-5.660156-5.160156-13.695312-6.054687-20.1875-2.890625.8125.527344 1.601562 1.109375 2.34375 1.785157zm0 0"/>
<path d="m88.570312 132.535156 10.363282-11.371094-6.417969-5.996093c-2.050781-1.917969-5.277344-1.785157-7.167969.289062l-14.738281 16.160157c-1.535156 1.683593-3.324219 2.992187-5.242187 3.964843 2.984374 1.914063 6.382812 2.875 9.78125 2.875 4.929687 0 9.839843-1.996093 13.421874-5.921875zm0 0"/>
<path d="m127.355469 214.15625c0-52.722656 41.964843-95.820312 94.242187-97.664062-4.613281-.671876-9.332031-1.023438-14.132812-1.023438-54.019532 0-97.972656 43.949219-97.972656 97.972656 0 54.023438 43.953124 97.972656 97.972656 97.972656 2.078125 0 4.132812-.074218 6.179687-.199218-48.515625-5.6875-86.289062-47.042969-86.289062-97.058594zm0 0"/>
<path d="m404.691406 71.242188v-5.882813c0-4.414063-5.273437-6.699219-8.496094-3.675781l-75.894531 71.257812c-1.792969 1.683594-2.105469 4.40625-.746093 6.457032 14.078124 21.242187 22.289062 46.703124 22.289062 74.042968 0 66.464844-48.507812 121.804688-111.980469 132.5-2.421875.410156-4.195312 2.507813-4.195312 4.964844v66.285156c0 2.785156 2.257812 5.042969 5.042969 5.042969h12.535156v-75.265625c55-7.480469 99.5-48.441406 112.222656-101.609375 1.175781-4.894531 2.074219-9.894531 2.691406-14.980469.644532-5.320312.976563-10.734375.976563-16.222656 0-28.789062-9.125-55.484375-24.628907-77.355469zm0 0"/>
<path d="m424.730469 10.265625-13.042969-.554687c7.875 2.179687 13.550781 9.476562 13.332031 17.988281l-1.621093 63.164062c-.183594 7.140625-4.464844 13.195313-10.53125 16.023438 2.632812 1.613281 5.699218 2.589843 9.007812 2.675781.160156.003906.316406.007812.476562.007812 9.808594 0 17.886719-7.828124 18.140626-17.691406l1.617187-63.007812c.253906-9.902344-7.480469-18.183594-17.378906-18.605469zm0 0"/>
<path d="m45.988281 90.949219-.507812-19.730469-9.683594-9.046875c-3.269531-3.054687-8.601563-.65625-8.488281 3.8125l.617187 23.945313c.183594 7.261718-3.917969 13.621093-9.992187 16.695312 2.851562 1.863281 6.253906 2.945312 9.894531 2.945312.15625 0 .316406-.003906.472656-.007812 10.027344-.253906 17.945313-8.589844 17.6875-18.613281zm0 0"/>
<path d="m230.710938 458.746094c-2.785157 0-5.042969 2.257812-5.042969 5.042968v22.445313c0 6.851563-3.789063 12.8125-9.382813 15.917969 2.757813 1.535156 5.957032 2.375 9.359375 2.273437 9.898438-.296875 17.601563-8.765625 17.601563-18.667969v-27.007812l.003906-.003906zm0 0"/>
<path d="m262.726562 422.433594h-14.527343c9.039062 1.28125 15.945312 9.171875 15.625 18.636718-.335938 9.882813-8.800781 17.675782-18.691407 17.675782h18.027344c10.25 0 18.511719-8.488282 18.144532-18.816406-.347657-9.839844-8.730469-17.496094-18.578126-17.496094zm0 0"/>
<path d="m61.65625 53.761719 23.773438 20.980469c2.0625 1.824218 5.207031 1.652343 7.0625-.382813l4.382812-4.804687-26.601562-24.847657-5.492188.234375c-4.539062.191406-6.527344 5.8125-3.125 8.820313zm0 0"/>
<path d="m70.273438 44.703125v.003906h.007812zm0 0"/><path d="m72.011719 44.632812c.015625 0 .035156-.003906.050781-.003906h-.054688zm0 0"/>
<path d="m88.421875 7.585938-9.621094.40625c6.023438 2.757812 10.320313 10.609374 10.621094 17.679687.425781 10.027344-7.339844 18.5-17.359375 18.957031l17.902344-.765625c10.019531-.425781 17.796875-8.890625 17.371094-18.910156-.429688-10.019531-8.878907-17.816406-18.914063-17.367187zm0 0"/>
</g>
</svg>